<?xml version="1.0" encoding="UTF-8" standalone="no"?><svg xmlns="http://www.w3.org/2000/svg" xmlns:xlink="http://www.w3.org/1999/xlink" fill="#000000" height="215.2" preserveAspectRatio="xMidYMid meet" version="1" viewBox="80.0 105.0 265.2 215.2" width="265.2" zoomAndPan="magnify"><g id="change1_1"><path d="M214.46,226.45L214.46,226.45L214.46,226.45 M173.79,185.77C173.78,185.77,173.78,185.77,173.79,185.77 c-11.22,0-21.42,4.56-28.77,11.91c-7.35,7.34-11.92,17.55-11.91,28.76c0,11.22,4.56,21.42,11.91,28.76 c7.34,7.35,17.54,11.91,28.75,11.91c0,0,0.01,0,0.01,0c11.22,0,21.42-4.56,28.76-11.91c7.35-7.34,11.92-17.55,11.91-28.76h-5h-5 c0,8.49-3.43,16.12-8.98,21.69c-5.57,5.56-13.2,8.98-21.69,8.98c-8.49,0-16.12-3.43-21.69-8.98c-5.56-5.57-8.98-13.21-8.98-21.69 c0-8.49,3.43-16.12,8.98-21.69c5.57-5.56,13.21-8.98,21.69-8.98c8.49,0,16.12,3.42,21.69,8.98c5.56,5.57,8.98,13.2,8.98,21.69h5h5 l0,0c0-11.22-4.56-21.42-11.91-28.76C195.2,190.33,185,185.77,173.79,185.77" fill="#199daf"/></g><g id="change2_1"><path d="M214.37,159.36c-6.7-4.06-14.05-7.13-21.85-9.04l-1.19,4.86h5v-8.94c0-3.72-1.52-7.13-3.96-9.57 c-2.43-2.44-5.85-3.97-9.57-3.96h-18.03c-3.72,0-7.13,1.52-9.57,3.96c-2.44,2.43-3.97,5.85-3.96,9.57v8.94h5l-1.19-4.86 c-7.8,1.91-15.16,4.98-21.85,9.04l2.59,4.28l3.54-3.54l-6.32-6.31c-1.31-1.31-2.85-2.31-4.48-2.97c-1.63-0.66-3.36-0.99-5.09-0.99 c-1.73,0-3.46,0.33-5.09,0.99s-3.17,1.66-4.48,2.97l-12.75,12.75c-1.31,1.31-2.31,2.85-2.97,4.48c-0.66,1.63-0.99,3.36-0.99,5.09 s0.33,3.46,0.99,5.09c0.66,1.63,1.66,3.17,2.97,4.48l6.32,6.32l3.53-3.54l-4.28-2.59c-4.06,6.7-7.13,14.05-9.04,21.85l4.86,1.19v-5 h-8.94c-3.72,0-7.13,1.52-9.57,3.96c-2.44,2.43-3.97,5.85-3.96,9.57v18.03c0,3.72,1.52,7.13,3.96,9.57 c2.43,2.44,5.85,3.97,9.57,3.96h8.94v-5l-4.86,1.19c1.91,7.8,4.98,15.16,9.04,21.85l4.28-2.59l-3.53-3.54l-6.32,6.32 c-1.31,1.31-2.31,2.85-2.97,4.48c-0.66,1.63-0.99,3.36-0.99,5.09c0,1.73,0.33,3.46,0.99,5.09c0.66,1.63,1.66,3.17,2.97,4.48 l12.75,12.75c1.31,1.31,2.85,2.31,4.48,2.97c1.63,0.66,3.36,0.99,5.09,0.99c1.73,0,3.46-0.33,5.09-0.99 c1.63-0.66,3.17-1.66,4.48-2.97l6.32-6.32l-3.54-3.53l-2.59,4.27c6.7,4.06,14.05,7.13,21.85,9.04l1.19-4.86h-5v8.94 c0,3.72,1.52,7.13,3.96,9.57c2.43,2.44,5.85,3.97,9.57,3.96h18.03c3.72,0,7.13-1.52,9.57-3.96c2.44-2.43,3.97-5.85,3.96-9.57v-8.94 h-5l1.19,4.86c7.8-1.91,15.15-4.98,21.85-9.04l-2.59-4.27l-3.53,3.53l6.31,6.32c1.31,1.31,2.85,2.31,4.48,2.97 c1.63,0.66,3.36,0.99,5.09,0.99c1.73,0,3.46-0.33,5.09-0.99c1.63-0.66,3.17-1.66,4.48-2.97l12.75-12.75 c1.31-1.31,2.31-2.85,2.97-4.48c0.66-1.63,0.99-3.36,0.99-5.09c0-1.73-0.33-3.46-0.99-5.09c-0.66-1.63-1.66-3.17-2.97-4.48 l-6.32-6.32l-3.53,3.54l4.28,2.59c4.06-6.7,7.13-14.05,9.04-21.85l-4.86-1.19v5h8.94c3.72,0,7.14-1.52,9.57-3.96 c2.44-2.43,3.97-5.85,3.96-9.57c0-2.76-2.24-5-5-5c-2.76,0-5,2.24-5,5c0,0.99-0.39,1.84-1.03,2.5c-0.65,0.65-1.51,1.03-2.5,1.04 h-12.86l-0.93,3.81c-1.67,6.81-4.35,13.22-7.88,19.05l-2.03,3.35l9.09,9.09c0.35,0.36,0.6,0.74,0.78,1.16 c0.17,0.42,0.26,0.88,0.26,1.33s-0.09,0.91-0.26,1.33c-0.17,0.42-0.42,0.81-0.78,1.16l-12.75,12.75c-0.35,0.36-0.74,0.6-1.16,0.78 c-0.42,0.17-0.88,0.26-1.33,0.26c-0.46,0-0.91-0.09-1.33-0.26c-0.42-0.17-0.81-0.42-1.17-0.78l-9.09-9.09l-3.35,2.03 c-5.83,3.54-12.24,6.21-19.05,7.88l-3.81,0.93v12.86c0,0.99-0.39,1.84-1.03,2.5c-0.65,0.65-1.51,1.03-2.5,1.04h-18.03 c-0.99,0-1.84-0.39-2.5-1.04c-0.65-0.65-1.03-1.5-1.04-2.5v-12.86l-3.81-0.93c-6.81-1.67-13.22-4.35-19.05-7.88l-3.35-2.03 l-9.09,9.09c-0.36,0.36-0.74,0.6-1.16,0.78c-0.42,0.17-0.88,0.26-1.33,0.26c-0.46,0-0.91-0.09-1.33-0.26 c-0.42-0.17-0.81-0.42-1.17-0.78l-12.75-12.75c-0.35-0.36-0.6-0.74-0.78-1.16c-0.17-0.42-0.26-0.88-0.26-1.33s0.09-0.91,0.26-1.33 c0.17-0.42,0.42-0.81,0.78-1.16l9.09-9.09l-2.03-3.35c-3.54-5.83-6.21-12.24-7.88-19.05l-0.94-3.81H93.57 c-0.99,0-1.84-0.39-2.5-1.04c-0.65-0.65-1.03-1.5-1.04-2.5v-18.03c0-0.99,0.39-1.84,1.04-2.5c0.65-0.65,1.5-1.03,2.5-1.03h12.86 l0.94-3.81c1.67-6.81,4.35-13.22,7.88-19.05l2.03-3.35l-9.09-9.09c-0.35-0.36-0.6-0.74-0.78-1.17c-0.17-0.42-0.26-0.87-0.26-1.33 s0.09-0.91,0.26-1.33c0.17-0.42,0.42-0.81,0.78-1.16l12.75-12.75c0.36-0.35,0.74-0.6,1.16-0.78c0.42-0.17,0.88-0.26,1.33-0.26 c0.46,0,0.91,0.09,1.33,0.26c0.42,0.17,0.81,0.42,1.17,0.78l9.09,9.09l3.35-2.03c5.83-3.53,12.24-6.21,19.05-7.88l3.81-0.93v-12.86 c0-0.99,0.39-1.84,1.04-2.5c0.65-0.65,1.5-1.03,2.5-1.03h18.03c0.99,0,1.84,0.39,2.5,1.03c0.65,0.65,1.03,1.51,1.03,2.5v12.86 l3.81,0.93c6.81,1.67,13.22,4.35,19.05,7.88c2.36,1.43,5.44,0.68,6.87-1.68C217.48,163.87,216.73,160.79,214.37,159.36" fill="#199daf"/></g><g id="change3_1"><path d="M306.65,174.41L306.65,174.41L306.65,174.41 M275.77,143.52c0,0-0.01,0-0.01,0c-8.51,0-16.27,3.47-21.84,9.05 c-5.58,5.57-9.05,13.33-9.05,21.84c0,8.51,3.47,16.27,9.05,21.84c5.57,5.58,13.32,9.05,21.83,9.05c0,0,0,0,0.01,0 c8.51,0,16.27-3.47,21.84-9.05c5.58-5.57,9.05-13.33,9.05-21.84h-5h-5c0,5.78-2.33,10.98-6.12,14.77 c-3.8,3.79-8.99,6.12-14.77,6.12c-5.78,0-10.98-2.33-14.77-6.12c-3.79-3.8-6.12-8.99-6.12-14.77c0-5.78,2.33-10.98,6.12-14.77 c3.8-3.79,8.99-6.12,14.77-6.12c5.78,0,10.98,2.33,14.77,6.12c3.79,3.8,6.11,8.99,6.12,14.77h5h5l0,0c0-8.51-3.47-16.27-9.05-21.84 C292.03,146.99,284.28,143.52,275.77,143.52" fill="#4c98a8"/></g><g id="change3_2"><path d="M247.43,135.14l3.35-2.03c4.11-2.49,8.63-4.38,13.44-5.56l3.81-0.93V116.2c0-0.34,0.12-0.61,0.35-0.84 c0.23-0.22,0.5-0.35,0.84-0.35h13.08c0.35,0,0.61,0.13,0.84,0.35c0.22,0.23,0.35,0.5,0.35,0.84v10.41l3.81,0.93 c4.81,1.18,9.33,3.07,13.44,5.56l3.35,2.03l7.36-7.36c0.13-0.12,0.25-0.2,0.39-0.26c0.14-0.06,0.29-0.09,0.45-0.09 c0.15,0,0.31,0.03,0.45,0.09c0.14,0.06,0.26,0.14,0.39,0.26l9.25,9.25c0.12,0.13,0.2,0.25,0.26,0.39s0.09,0.29,0.09,0.45 c0,0.16-0.03,0.31-0.09,0.45s-0.14,0.26-0.26,0.39l-7.36,7.36l2.03,3.35c2.49,4.11,4.38,8.63,5.56,13.44l0.93,3.81h10.41 c0.34,0,0.61,0.13,0.84,0.35c0.22,0.23,0.35,0.5,0.35,0.84v13.08c0,0.35-0.13,0.61-0.35,0.84c-0.23,0.22-0.5,0.35-0.84,0.35h-10.41 l-0.93,3.81c-1.18,4.81-3.07,9.33-5.56,13.44l-2.03,3.35l7.36,7.36c0.12,0.13,0.2,0.25,0.26,0.39s0.09,0.29,0.09,0.45 c0,0.16-0.03,0.31-0.09,0.45s-0.14,0.26-0.26,0.39l-9.25,9.25c-0.13,0.13-0.25,0.21-0.39,0.26c-0.14,0.06-0.29,0.09-0.45,0.09 c-0.16,0-0.31-0.03-0.45-0.09c-0.14-0.06-0.26-0.14-0.39-0.26l-7.36-7.36l-3.35,2.03c-4.11,2.49-8.63,4.38-13.44,5.56l-3.81,0.94 v10.41c0,0.35-0.13,0.61-0.35,0.84c-0.23,0.22-0.5,0.35-0.84,0.35h-13.08c-0.34,0-0.61-0.12-0.84-0.35 c-0.22-0.23-0.35-0.5-0.35-0.84v-10.41l-3.81-0.94c-4.81-1.18-9.33-3.07-13.44-5.56l-3.35-2.03l-7.36,7.36 c-0.13,0.13-0.25,0.21-0.39,0.26c-0.14,0.06-0.29,0.09-0.45,0.09s-0.31-0.03-0.45-0.09c-0.14-0.06-0.26-0.14-0.39-0.26l-9.25-9.25 c-0.13-0.13-0.21-0.25-0.26-0.39c-0.06-0.14-0.09-0.29-0.09-0.45c0-0.16,0.03-0.31,0.09-0.45c0.06-0.14,0.14-0.26,0.26-0.39 l7.36-7.36l-2.03-3.35c-2.49-4.11-4.38-8.63-5.56-13.44l-0.94-3.81h-10.41c-0.34,0-0.61-0.13-0.84-0.35 c-0.22-0.23-0.35-0.5-0.35-0.84v-13.08c0-0.35,0.12-0.61,0.35-0.84c0.23-0.22,0.5-0.35,0.84-0.35h10.41l0.94-3.81 c1.18-4.81,3.07-9.33,5.56-13.44l2.03-3.35l-7.36-7.36c-0.13-0.13-0.21-0.25-0.26-0.39c-0.06-0.14-0.09-0.29-0.09-0.45 c0-0.16,0.03-0.31,0.09-0.45c0.06-0.14,0.14-0.26,0.26-0.39l9.25-9.25c0.13-0.12,0.25-0.2,0.39-0.26c0.14-0.06,0.29-0.09,0.45-0.09 s0.31,0.03,0.45,0.09c0.14,0.06,0.26,0.14,0.39,0.26L247.43,135.14 M282.32,105.01c0,0-0.01,0-0.01,0h-13.08c0,0-0.01,0-0.01,0 c-3.07,0-5.89,1.26-7.9,3.28c-2.02,2.01-3.28,4.84-3.28,7.91v2.71c-3.11,0.99-6.11,2.24-8.98,3.71l-1.91-1.91 c-1.08-1.08-2.35-1.91-3.7-2.46c-1.35-0.55-2.78-0.82-4.21-0.82s-2.86,0.27-4.21,0.82c-1.35,0.55-2.62,1.37-3.7,2.46l-9.25,9.25 c-1.08,1.08-1.91,2.35-2.46,3.7c-0.55,1.35-0.82,2.78-0.82,4.21c0,1.43,0.27,2.86,0.82,4.21c0.55,1.35,1.38,2.62,2.46,3.7 l1.91,1.91c-1.48,2.86-2.72,5.87-3.71,8.98h-2.7c0,0-0.01,0-0.01,0c-1.94,0-3.79,0.51-5.39,1.39c0.75,0.42,1.49,0.85,2.22,1.29 c2.36,1.43,3.12,4.51,1.68,6.87c-0.94,1.55-2.59,2.41-4.28,2.41c-0.88,0-1.78-0.23-2.59-0.73c-0.89-0.54-1.8-1.06-2.72-1.56 c-0.07,0.5-0.1,1.01-0.1,1.52v13.08c0,3.07,1.26,5.9,3.28,7.91c2.01,2.02,4.83,3.28,7.91,3.28c0,0,0,0,0.01,0h2.7 c0.99,3.11,2.24,6.11,3.71,8.98l-1.91,1.91c-1.08,1.08-1.91,2.35-2.46,3.7s-0.82,2.78-0.82,4.21s0.27,2.86,0.82,4.21 c0.55,1.35,1.38,2.62,2.46,3.7l9.25,9.25c1.08,1.08,2.35,1.91,3.7,2.46c1.35,0.55,2.78,0.82,4.21,0.82s2.86-0.27,4.21-0.82 c1.35-0.55,2.62-1.38,3.7-2.46l1.91-1.91c2.86,1.48,5.86,2.72,8.98,3.71v2.7c0,0.21,0.01,0.41,0.02,0.61 c0.82-1.64,2.52-2.77,4.48-2.77c2.76,0,5,2.24,5,5c0,2.8-0.86,5.43-2.33,7.6c1.25,0.48,2.61,0.75,4.02,0.75c0,0,0,0,0.01,0h13.08 c0,0,0.01,0,0.01,0c3.07,0,5.89-1.26,7.9-3.28c2.02-2.01,3.28-4.84,3.28-7.91v-2.7c3.11-0.99,6.12-2.24,8.98-3.71l1.91,1.91 c1.08,1.08,2.35,1.91,3.7,2.46c1.35,0.55,2.78,0.82,4.21,0.82c1.43,0,2.86-0.27,4.21-0.82c1.35-0.55,2.62-1.38,3.7-2.46l9.25-9.25 c1.08-1.08,1.91-2.35,2.46-3.7c0.55-1.35,0.82-2.78,0.82-4.21s-0.27-2.86-0.82-4.21c-0.55-1.35-1.37-2.62-2.46-3.7l-1.91-1.91 c1.48-2.86,2.72-5.86,3.71-8.98h2.71c3.07,0,5.9-1.26,7.91-3.28c2.02-2.01,3.28-4.84,3.28-7.91v-13.08c0-3.07-1.26-5.9-3.28-7.91 c-2.01-2.01-4.83-3.28-7.9-3.28c0,0-0.01,0-0.01,0l0,0h-2.71c-0.99-3.11-2.24-6.12-3.71-8.98l1.91-1.91 c1.08-1.08,1.91-2.35,2.46-3.7c0.55-1.35,0.82-2.78,0.82-4.21c0-1.43-0.27-2.86-0.82-4.21c-0.55-1.35-1.38-2.62-2.46-3.7 l-9.25-9.25c-1.08-1.08-2.35-1.91-3.7-2.46c-1.35-0.55-2.78-0.82-4.21-0.82c-1.43,0-2.86,0.27-4.21,0.82 c-1.35,0.55-2.62,1.37-3.7,2.46l-1.91,1.91c-2.86-1.48-5.87-2.72-8.98-3.71v-2.7c0-3.07-1.26-5.9-3.28-7.91 C288.21,106.28,285.39,105.01,282.32,105.01" fill="#4c98a8"/></g><g id="change4_1"><path d="M262.52,230.46c-1.96,0-3.66,1.13-4.48,2.77c0.15,2.84,1.38,5.43,3.26,7.3c1.08,1.09,2.41,1.96,3.88,2.53 c1.47-2.17,2.34-4.8,2.33-7.6C267.52,232.7,265.28,230.46,262.52,230.46 M212.15,158.07c-0.93,0.51-1.77,1.15-2.51,1.89 c-1.68,1.67-2.84,3.92-3.17,6.39c0.92,0.5,1.83,1.02,2.72,1.56c0.81,0.49,1.7,0.73,2.59,0.73c1.69,0,3.34-0.86,4.28-2.41 c1.43-2.36,0.68-5.44-1.68-6.87C213.64,158.92,212.9,158.49,212.15,158.07" fill="#4c98a8"/></g></svg>