<?xml version="1.0" encoding="UTF-8" standalone="no"?><svg xmlns="http://www.w3.org/2000/svg" xmlns:xlink="http://www.w3.org/1999/xlink" fill="#449da1" height="60" preserveAspectRatio="xMidYMid meet" version="1" viewBox="2.0 2.0 60.0 60.0" width="60" zoomAndPan="magnify"><g id="change1_1"><path d="M3,40h1v21c0,0.553,0.447,1,1,1h54c0.553,0,1-0.447,1-1V40h1c0.553,0,1-0.447,1-1v-4c0-0.553-0.447-1-1-1H51v-5 c0-4.379-3.145-8.033-7.294-8.833C45.111,18.886,46,17.047,46,15c0-3.859-3.141-7-7-7s-7,3.141-7,7c0,2.047,0.889,3.886,2.294,5.167 C30.145,20.967,27,24.621,27,29v5H17v-1.679c0.531,0.117,1.022,0.182,1.464,0.182c0.923,0,1.656-0.255,2.213-0.767 c0.946-0.87,0.872-2.052,0.812-3.001c-0.053-0.826-0.098-1.539,0.336-2.169c0.447-0.65,1.188-0.864,2.046-1.112 c1.027-0.298,2.307-0.668,3.012-1.982c0.381-0.712,0.491-1.544,0.369-2.472H28c0.334,0,0.646-0.167,0.832-0.445l2-3 c0.224-0.336,0.224-0.773,0-1.109l-2-3c-0.28-0.42-0.828-0.564-1.279-0.34l-1.355,0.678l-3.053-3.054l0.804-2.413 c0.12-0.359,0.026-0.756-0.241-1.023l-2-2c-0.306-0.306-0.769-0.379-1.154-0.188l-4,2C16.214,7.275,16,7.621,16,8v3 c0,0.245,0.09,0.481,0.253,0.664l8,9C24.442,20.878,24.715,21,25,21h0.242c0.127,0.623,0.086,1.136-0.123,1.527 c-0.292,0.545-0.848,0.729-1.805,1.005c-1.018,0.295-2.284,0.661-3.138,1.901c-0.825,1.199-0.746,2.436-0.684,3.428 c0.052,0.819,0.052,1.199-0.169,1.402c-0.184,0.169-0.814,0.468-2.619-0.091l-0.81-1.62C15.725,28.214,15.379,28,15,28H7 c-0.379,0-0.725,0.214-0.895,0.553l-1,2C5.036,30.691,5,30.845,5,31v3H3c-0.553,0-1,0.447-1,1v4C2,39.553,2.447,40,3,40z M18,10.62 V8.618l2.803-1.401l1.053,1.054l-0.804,2.413c-0.12,0.359-0.026,0.756,0.241,1.023l4,4c0.306,0.307,0.771,0.38,1.154,0.188 l1.21-0.605L28.798,17l-1.333,2h-2.016L18,10.62z M58,60H6V40h52V60z M34,15c0-2.757,2.243-5,5-5s5,2.243,5,5s-2.243,5-5,5 S34,17.757,34,15z M29,29c0-3.859,3.141-7,7-7h6c3.859,0,7,3.141,7,7v5h-5v-7h-2v7h-6v-7h-2v7h-5V29z M7,31.236L7.618,30h6.764 L15,31.236V34H7V31.236z M4,36h2h10h12h22h10v2h-1H5H4V36z" fill="inherit"/></g><g id="change1_2"><path d="M24.077,48.952C24.031,49.296,24,49.644,24,50s0.031,0.704,0.077,1.048c0.01,0.076,0.022,0.151,0.035,0.226 c0.054,0.334,0.124,0.662,0.218,0.98c0.003,0.01,0.004,0.021,0.007,0.031c0.001,0.002,0.002,0.003,0.002,0.005 C25.326,55.589,28.385,58,32,58s6.674-2.411,7.662-5.709c0.001-0.002,0.002-0.003,0.002-0.005c0.003-0.01,0.004-0.021,0.007-0.031 c0.094-0.319,0.164-0.647,0.218-0.98c0.012-0.076,0.025-0.151,0.035-0.226C39.969,50.704,40,50.356,40,50s-0.031-0.704-0.077-1.048 c-0.01-0.076-0.022-0.151-0.035-0.226c-0.054-0.334-0.124-0.662-0.218-0.98c-0.003-0.01-0.004-0.021-0.007-0.031 c-0.001-0.002-0.002-0.003-0.002-0.005C38.674,44.411,35.615,42,32,42s-6.674,2.411-7.662,5.709 c-0.001,0.002-0.002,0.003-0.002,0.005c-0.003,0.01-0.004,0.021-0.007,0.031c-0.094,0.319-0.164,0.647-0.218,0.98 C24.099,48.801,24.087,48.876,24.077,48.952z M26.078,49.079c0.004-0.026,0.008-0.052,0.012-0.079h1.974 C28.027,49.328,28,49.66,28,50s0.027,0.672,0.064,1H26.09c-0.004-0.026-0.008-0.052-0.012-0.079C26.03,50.616,26,50.309,26,50 S26.03,49.384,26.078,49.079z M32.002,44.587c0.423,0.583,0.949,1.422,1.357,2.413h-2.713C31.054,46.01,31.579,45.171,32.002,44.587 z M33.919,49C33.967,49.327,34,49.659,34,50c0,0.34-0.034,0.673-0.082,1h-3.836C30.033,50.673,30,50.341,30,50 c0-0.34,0.034-0.673,0.082-1H33.919z M37.922,49.079C37.97,49.384,38,49.691,38,50s-0.03,0.616-0.078,0.921 c-0.004,0.026-0.008,0.052-0.012,0.079h-1.974C35.973,50.672,36,50.34,36,50s-0.027-0.672-0.064-1h1.974 C37.914,49.026,37.918,49.052,37.922,49.079z M31.998,55.413c-0.423-0.583-0.949-1.422-1.357-2.413h2.713 C32.946,53.99,32.421,54.829,31.998,55.413z M26.812,53h1.695c0.32,0.966,0.75,1.822,1.179,2.535 C28.473,55.026,27.466,54.128,26.812,53z M34.314,55.535c0.428-0.713,0.859-1.569,1.179-2.535h1.695 C36.534,54.128,35.527,55.026,34.314,55.535z M37.188,47h-1.695c-0.32-0.966-0.75-1.822-1.179-2.535 C35.527,44.974,36.534,45.872,37.188,47z M29.686,44.465c-0.428,0.713-0.859,1.569-1.179,2.535h-1.695 C27.466,45.872,28.473,44.974,29.686,44.465z" fill="inherit"/></g><g id="change1_3"><path d="M62,8c0-2.737-1.215-6-7-6s-7,3.263-7,6c0,4.205,5.7,9.204,6.35,9.76C54.537,17.92,54.769,18,55,18s0.463-0.08,0.65-0.24 C56.3,17.204,62,12.205,62,8z M55,15.655c-1.827-1.713-5-5.196-5-7.655c0-1.862,0.568-4,5-4s5,2.138,5,4 C60,10.459,56.827,13.942,55,15.655z" fill="inherit"/></g><g id="change1_4"><path d="M55,6c-1.654,0-3,1.346-3,3s1.346,3,3,3s3-1.346,3-3S56.654,6,55,6z M55,10c-0.552,0-1-0.448-1-1s0.448-1,1-1s1,0.448,1,1 S55.552,10,55,10z" fill="inherit"/></g><g id="change1_5"><path d="M54 20H56V22H54z" fill="inherit"/></g><g id="change1_6"><path d="M54 24H56V26H54z" fill="inherit"/></g><g id="change1_7"><path d="M54 28H56V30H54z" fill="inherit"/></g></svg>