<?xml version="1.0" encoding="UTF-8" standalone="no"?><!-- Generator: Adobe Illustrator 22.0.1, SVG Export Plug-In . SVG Version: 6.00 Build 0)  --><svg xmlns="http://www.w3.org/2000/svg" enable-background="new 0 0 1031.4 511" fill="#000000" id="Layer_1" version="1.1" viewBox="0 0 1031.4 511" x="0px" xml:space="preserve" y="0px">
<g fill="#d69e0f" id="change1_1">
	<path d="m873 214.9c3.3 0.9 4.3-12.8-1.9-10.9s-2 9.8 1.9 10.9z" fill="inherit"/>
	<path d="m588.8 11.1s-2.1 2.9 2.9 2.9c5.1 0 15.6-3.4 24-3.4s5.9-2.9 4.2-2.9-6.3-4.6-13-4.2-6.3 3.4-10.5 3.4-3.4-1.3-12.2-0.8c-8.8 0.4 0 4.2 4.6 5z" fill="inherit"/>
	<path d="m881.5 255.1c2.8 1.9 3.3 5.2 2.8 10.4s-5.2 4.7 2.8 8 17.5 9 15.1-1.4-0.5-11.8-9-19.9c-8.5-8-9-2.8-9.9-9.5-0.9-6.6-3.3-18.9-6.6-14.2-2.9 4.2-5.2 5.7-1.9 12.8 3.4 7.2 3.8 11.9 6.7 13.8z" fill="inherit"/>
	<path d="m963.3 315.6c-6.2-6.6-16.6-11.4-20.8-10.9-4.3 0.5-8 7.1-10.4 4.7s-9.5-13.7-13.2-10.4c-3.8 3.3 0.5 7.1-4.3 7.1-4.7 0-6.1 5.7-7.1-1.9-0.9-7.6-4.7-11.4-5.7-5.7-0.9 5.7-1.4 9.5-3.8 5.2s-3.8-1.4-3.8-5.7-9.5-9-13.2-4.3c-2.4 3-3.3 3.3-4.3 9.9-0.9 6.6-3.3 17 1.9 14.2s6.2-0.5 8.5-3.8c2.4-3.3 5.2-5.2 9.5-3.3s2.4 1.9 9.9 0.9c7.6-0.9 11.3-0.9 16.6 2.4 5.2 3.3 15.6 1.4 15.6 4.7s-10.9 5.7 0 9 13.2 10.9 16.6 7.1c3.3-3.8 8-9 11.4-5.2 3.3 3.8 16.1 14.2 13.7 8.5s-1.9-10.9 5.7-17 5.7-9 2.4-9-3.3 4.3-10.9 5.2c-7.7 1.2-8.1 4.9-14.3-1.7z" fill="inherit"/>
	<path d="m520.6 20.1c0.5 0.1 0.9 0.2 1.3 0.3 4.2 1.7 7.2-0.8 7.6-4.2 4.6-6.7 2.9 5.5 8 3.4 5-2.1 12.2-7.2 18.1-10.1s-7.2-1.7-17.7-3.4-25.3 1.3-29.5 4.2c-3.9 2.7 6.1 8 12.2 9.8z" fill="inherit"/>
	<path d="m863.5 271.6c-2.9 3.7-8.5 11.8-12.3 14.7-3.8 2.8-10.4-0.9-9.9 5.7s0.9 9.5 1.4 14.2 1.4 7.6 8.5 7.6 10.4 2.4 12.8 1.4c2.4-0.9 1.9-5.2 4.7-10.9s7.6-4.3 5.7-8.5c-1.9-4.3-1.9-3.3-1.9-7.6s2.4-1.4 1-8.5c-1.5-7.1-6.7-12.3-10-8.1z" fill="inherit"/>
	<path d="m879.7 337.3c6.7 0.8 11.8 0 16.4-2.5s2.5-5.5 2.1-6.7c-0.4-1.3-3.8 1.3-8.4 2.1s-5.9 0.8-11.8 1.3c-5.9 0.4-2.1-2.1-8.4-2.5s-12.6-1.7-19.8-4.2-10.9-4.6-16-6.3-0.4-4.6-0.8-11.8-5.1-4.2-8.8-6.7c-3.8-2.5-2.5-8-0.8-6.3s2.1 3.8 2.1-5.1c0-8.8-8-14.7-13-22.3-5.1-7.6-4.2-11.8-3.8-15.6s9.3 3.4 13.9 8.8c4.6 5.5 4.6 5.5 7.2 4.2 2.5-1.3 10.1-5.5 11.8-12.2s-13.5-20.2-15.6-26.5 2.9-2.5 5.5-6.7c2.5-4.2 5.5 1.7 3.8 4.6s0.4 4.6 2.1 7.6c1.7 2.9 1.7 0 3.4-3.8s0.4-5.1 3.4-7.6 14.3-5.9 17.3-8.8 5.1-6.3 8.8-16.8c3.8-10.5-0.4-10.1-2.1-13.9s-6.7-10.1-9.7-13.9c-2.9-3.8-0.4-2.9 1.7-4.2s0.4-4.2-4.6-5.9c-5.1-1.7-4.2 1.7-8.8 0.8-4.6-0.8-2.1-4.2 2.9-10.1 5.1-5.9 2.5 1.3 5.9 3.8s4.2-2.1 6.7-0.8 7.6 3.8 11.4 8.8 3.8 10.9 7.6 10.5 3.8-2.1 5.5-5.9-4.6-7.2-7.6-10.1-5.9-2.9-3.4-5.5c2.5-2.5 0.4-6.3 1.7-9.3 1.3-2.9 5.9-1.3 10.5-3.4s5-9.3 5-16.8c0-7.6-3.8-10.9-5.9-13.5-2.1-2.5 2.5-1.3 6.3 1.7 3.8 2.9 9.7 18.9 10.9 25.3 1.3 6.3 0.4 6.3 5.5 11.8s3.4 4.6 1.7 10.9-5.9 8-12.2 9.7-4.2 2.9-8 9.3c-3.8 6.3 2.1 6.7 5.5 8.4s5-4.6 9.3-7.6c4.2-2.9 8.8-5.1 16-5.1s-2.1-9.7-2.5-14.7-0.8-8.4-2.5-12.2 1.7-3.8 6.7-6.3 4.6-7.6 1.7-7.6-5.5 2.1-12.2 1.7-5-5.9-6.7-8-3.8-6.7-4.2-10.5-6.3-8.8-10.5-12.6-6.7-6.3-6.7-4.6-2.5-0.4-8.4-0.8-7.2 0.8-12.2 0.4c-5.1-0.4 0.4-8.8 2.5-14.7s8-2.5 12.6-2.5 6.7 0.4 13.5 2.1c6.7 1.7 3.8-4.2 5.1-8.8s4.2-2.1 8-0.4 5 2.1 5-1.7 3.4-4.6 6.3-1.3c2.9 3.4-5.1 10.5-5.1 10.5s-2.5 7.6 2.1 10.1c4.6 2.5 13.9 13.5 19.4 17.3s1.7-6.3 1.7-13.5-5-6.3-8.8-13-1.3-3.8 5.9-3.8 7.6-2.5 9.3-4.6 2.9-2.5 9.3-2.5c6.3 0 2.5-2.5-0.4-5.9s-8.8-2.5-6.7-4.6 13.5 1.3 18.9 3.4c5.5 2.1 4.2 0.4 3.4-4.6s-5.5-1.3-18.9-6.3c-13.5-5-28.2-8-32.8-8s-1.3-2.9 2.1-2.9 2.5-2.9-0.8-4.6c-3.4-1.7-6.3-0.4-7.6 3.4s3.8 4.2-5.9 4.2-16.8 0-28.2-2.1-15.6-2.1-25.3-2.5-8.8-4.6-18.9-4.6-6.7-3.8-10.9-8.4-6.3-3.4-18.9-3.4-5.9 5-3.4 5.9c2.5 0.8 9.3 2.9 13.9 7.2 4.6 4.2-8.4 2.5-13.9 2.9s-5-2.9-11.4-6.7c-6.3-3.8-21.9-1.7-30.7-2.1s-9.3 0-12.6-6.3c-3.4-6.3-10.5-2.9-19.8-2.9s-14.3-4.6-18.9-7.6c-4.6-2.9-11.8-3.4-21.9-5-10.1-1.7-4.6 6.3-0.8 6.7 0 0 4.2 1.7 8.4 2.1s13.1 0.8 17.7 6.3-14.3 3.4-22.7 8-15.2 2.5-21 5c-5.9 2.5 2.9 6.7 5.1 12.2 2.1 5.5 0 5.5-3.8 6.7-3.8 1.3 1.3-5.9-0.4-8s-8-13-13-16.4c-5.1-3.4-4.2 2.9-3.4 7.6 0.8 4.6 2.1 4.6 3.4 8s-5.5 0-8.8-2.5c-3.4-2.5-14.3 3.4-19.4 0.8-5-2.5 1.7-1.7 1.7-4.2s-5.9-0.4-7.6-4.2 10.5-8.4 18.1-9.7 6.7-1.3 6.7-5c0-3.8-13.5-2.5-24.8 2.9-11.4 5.5-8.4 9.3-10.1 13-1.7 3.8 3.8 4.2 6.3 6.3s-2.9 2.9-8 4.6c-5 1.7-6.3 0-12.2 2.1s-2.5 4.6-7.6 6.7c-5 2.1-4.6 2.1-8.8 3.8s0.8-6.3 6.7-7.2c5.9-0.8 4.2-4.2 2.5-5.5s-12.6-4.6-24.4-8-30.7 1.3-37 4.2-5.9 5.1-6.7 9.3-15.2 10.5-22.3 14.3c-7.2 3.8-0.8 8.8 1.3 12.2s6.7 1.7 12.6 0 5 5.5 5.9 8c0.8 2.5 4.2 2.9 9.7 0.4s4.2-8.4 4.2-11.8-1.3-5.1 2.5-9.7 7.2-7.6 10.5-9.7c3.4-2.1 2.9 1.7-2.1 5.9s-1.7 5.5 0.8 10.5c2.5 5.1 7.6 0 13.9-0.8s-5.5 5.5-10.1 5.5 0 5-2.9 5-3.4 2.1-3.8 7.2-2.1 3.8-5.5 5.1-8.4 1.7-13.9 0.4-5-6.3-8.8-9.7-4.6 1.7-4.6 3.8-3.8 6.7-5.5 6.7-6.7 5.1-9.7 9.3c-2.9 4.2-5 1.7-5.9 0-0.8-1.7 2.1-4.2 0.4-8.4s-8.4-7.6-6.3-17.3-2.5-4.6-9.3-3.8c-6.7 0.8-8.8 3.8-9.3 6.3-0.4 2.5-4.2 7.6-8.4 12.2s-1.3 8.4 0.8 13.5 7.6-1.7 9.3-5.9 3.8-6.3 6.3-4.2-3.8 5.9-4.6 10.9c-0.8 5.1 1.7 4.6 7.6 2.9s2.9-2.9 7.6-0.8c4.6 2.1-4.2 3.8-9.7 4.2s-3.4 4.2 1.3 7.6c4.6 3.4 2.5 8.4-0.4 8.8s-8.4 1.3-16.8 2.9c-8.4 1.7-0.8 8.4-2.5 12.2s-2.1 12.2 1.7 12.6 3.8 6.7 1.7 8.8-2.5 4.2-7.6 8-1.3 7.2-2.9 12.2c-1.7 5-5.9 2.1-10.9 7.6s-7.2 9.7-10.9 16c-3.8 6.3-4.2 6.7 0.4 14.3s0 9.7-3.8 16.4 1.3 7.2 2.9 13c1.7 5.9 5.1 4.6 6.3 10.5 1.3 5.9 2.9 7.6 8.8 11.8s11.8 10.1 14.7 8.8 7.6-4.6 17.3-4.2 6.3-4.2 16.4-5.9 4.6 1.3 5.9 4.2c1.3 3 6.7 5.9 14.3 6.3s1.3 9.7 0.8 15.6c-0.4 5.9 0 5.9 3.8 10.9s8.8 16.4 10.1 22.3-1.3 12.6-4.6 18.1c-3.4 5.5-2.1 18.1 5 27.4 7.2 9.3 2.9 8.8 2.9 18.5s5.1 8 8.8 13.5c3.8 5.5 2.1 15.6 5.5 21 3.4 5.5 9.3 0.4 16-2.1s9.7-1.7 17.7-7.6 14.3-17.7 14.3-21c0-3.4 2.5-4.6 6.7-6.3s3.4-12.6 2.9-15.6c-0.4-2.9 0.8-5.5 2.5-7.2s12.2-11.8 16-16 0.4-10.1-0.4-16.8-3.4-9.3-3.4-17.3-2.5-7.2 11.4-20.2c13.9-13 26.9-33.7 28.2-38.3s0.8-8.4 0-11.8-18.9 3.4-23.1 3.4-11.8-9.3-12.6-12.6c-0.8-3.4-7.2-6.7-12.6-11.8-5.5-5-1.3-12.2-5.5-17.7s-6.3-13.5-7.2-18.1c-0.8-4.6 6.3 3.4 11.8 9.7s12.6 18.1 14.7 22.3 3.8 10.5 4.2 15.6c0.4 5 3.8 5.9 8.8 5.5s22.7-9.7 29-12.6 13.9-11.8 16.8-20.2-6.3-7.2-10.5-11.4-4.2 0-9.3 1.3c-5 1.3-9.3-5.5-17.3-13-8-7.6-2.9-5-1.3-6.7s9.7 3.8 14.3 9.3c4.6 5.5 5.5 3.4 10.9 3.4 5.5 0 6.7 2.5 13.9 4.6s10.9-0.8 17.1-0.2c6.1 0.6 5.2 3.6 9.5 10.3 4.2 6.7 2.5 4.6 11.8 5.5 9.3 0.8 2.5 0 2.5 5.9s0.8 8 6.3 15.2 7.6 20.6 9.3 27.4c1.7 6.7 5.1 0 10.5 0 5.5 0 0.4 4.6 4.6 11.4 4.2 6.7 7.2-2.1 7.2-4.6s-2.5-8.8-5-10.9-5.9-1.7-3-5c3-3.4 0.4-6.7 0.4-11.4 0-4.6 0.4-8 2.5-10.1s9.7-9.7 14.3-15.2 8.4-6.3 14.7-5.9 1.3 1.3 5.1 6.3c3.8 5.1 4.6 12.2 8.8 17.3s4.6-0.8 8-2.5 1.3 5 3.8 10.1 0.8 11.8 0.8 16.4 5.5 9.3 8.8 13.5c3.4 4.2 2.1 6.3 0 8s-6.3-4.2-9.7-7.6-8.4-1.3-5 2.5 5.5 10.5 9.3 17.7 11.8 15.6 17.3 23.1c5.5 7.6 23.1 10.9 29.9 10.9 6-0.3 19.5 5.6 26.2 6.4zm-292.1-163.3c-2.5 5-3.8 8.4-7.6 7.2-3.8-1.3-16.4-0.8-22.7-2.9s-15.6-5.9-17.3-1.3 4.2 8.4-6.3 4.6-21.9-8.4-23.1-11.8c-1.3-3.4 4.2-12.6-3.4-12.6s-18.1-0.4-21.5 2.1-16.4 7.2-20.6 5.9c-3.8-1.1-9.7-2.5-2.9-5.5 6.7-2.9 14.7-1.3 15.6-5.5 0.8-4.2-5.9-5 0.8-8.8s4.2-7.2 8.8-9.3 10.9-1.7 14.3-2.9c3.4-1.3-1.3-2.5 5.5 1.3 6.7 3.8 10.9 10.9 14.3 11.4 3.4 0.4 5.5 2.9 3.4 4.6s-5.5 2.9-6.7 2.9c-1.3 0-2.1 3.4-0.8 3.8s4.2 5.9 6.3 4.2 0-4.2 3.8-5.5 7.6-2.9 5.9-5.5c-1.7-2.5-3.4-5.5 0-3.8s6.3 0.8 2.5-2.9c-3.8-3.8-5.1-3.8-9.7-7.2s-9.7-5.1-9.7-7.6-2.9-7.2 1.7-5.5 20.6 10.5 20.6 13.9 4.2 9.3 0.4 12.2 3.8 3.8 5.5 5.5 0.8 6.3 5.5 5.5c4.6-0.8 8-0.4 5.5-5.1-2.5-4.6-6.7-6.7-2.5-8.4s5.1-3.8 6.3 3.4c1.3 7.2-0.4 9.7 9.7 10.1s16.8-2.5 18.1 0.4c1.1 3 2.8 8.1 0.3 13.1zm16.4-31.5c-6.7-0.4-18.1-2.5-23.6-2.5s-7.6 0.8-7.6 0.8c-4.6-0.8-15.6 2.1-10.1-5.1s2.1-16.4 8.8-13.9 7.2 12.2 11.4 6.3 8.8-12.6 10.1-8-5.9 8.4 2.9 12.2c8.9 3.9 14.8 10.6 8.1 10.2zm40.4 15.5c-6.3 0-13.9-1.3-13.9-4.6v-8c-3.4-8-7.6-9.7-7.6-15.2s3.4-10.1 10.1-10.1 10.1-0.8 5 5c-5 5.9-9.7 6.3-2.9 15.6s15.6 17.3 9.3 17.3z" fill="inherit"/>
	<path d="m966.6 376.6c-4.3-10.9-4.3-19.4-6.6-24.1-2.4-4.7-0.5-10.4-7.6-10.4-2.9 0-2.8 1.9-5.2 8s0.5 17.5-5.7 16.1c-6.1-1.4-9-4.3-10.4-10.4s1.9-11.8-2.8-11.8-18-3.3-21.3 1.9 0.9 7.1-6.1 7.1c-7.1 0-9.9 0-13.7 4.7s-9 18-29.3 18.9-9.9 11.8-9.9 23.6-10.9 18.9-6.1 23.2c4.7 4.3-1.4 9.9 8.5 6.6s18.9-4.3 34.5-6.6c15.6-2.4 22.7-3.3 23.2 4.3s-1.9 2.4 4.3 3.8-0.5 11.4 6.6 12.3 2.8 6.1 9 6.1c6.1 0 8.5 6.6 3.3 6.6s-12.8 10.9-5.2 7.1 15.1-4.7 15.1-10.4-0.9-6.1 8-13.2c9-7.1 29.8-24.1 28.4-37.8-1.5-13.7-6.7-14.7-11-25.6z" fill="inherit"/>
	<path d="m1028.6 433.4c-3.8-1.9-3.8 1.4-6.1 8.5-2.4 7.1-14.2 9.9-16.1 11.4-1.9 1.4-5.7 5.7-5.7 5.7-9 5.7-26.5 11.4-22.2 16.1s7.1 1.9 17.5-3.3 13.2-11.8 18.9-15.6 9-3.3 13.2-8c4.3-4.9 4.3-12.9 0.5-14.8z" fill="inherit"/>
	<path d="m354 315.5c-7.6-2.1-8 0.4-8.8-3.8s-5.9-4.2-10.5-4.2-6.3-0.4-10.1-3.8-11.8-3.8-14.3-4.6-1.3-8-6.3-14.7c-5.1-6.7-15.6-8-22.3-11.8s-4.6-18.5-14.3-17.3c-9.7 1.3-10.5 5.1-19.4 0.4-8.8-4.6-14.7-7.6-19.4-4.2-4.6 3.4-10.5 9.7-13.5 11.4-2.9 1.7-8-1.3-10.9-0.8-2.9 0.4-6.3-3-8.4-5.9s3.8-17.7-1.7-17.7-12.6-2.5-12.6-4.6 11.4-14.7 8-16.8-10.1-0.8-16 7.2-11.4 7.6-14.3 4.6c-2.9-2.9-9.7-20.2-4.2-29.9s14.3-14.3 21-13.9 5.9-1.7 12.6-2.1 15.2 1.7 16.8 4.2c1.7 2.5-1.7 6.7 2.5 11.8 4.2 5 6.7 2.9 7.2 5 0.4 2.1-3.4 4.2-5 4.2-1.7 0-15.6 3.8-10.1 6.3s15.2 0.4 17.3 3.8-6.7 10.5 5.9 10.9 21 2.1 28.2 2.5 12.2 0.8 13 2.5 5.9-6.3-5.9-6.3-21-6.7-27.4-8c-6.3-1.3-10.5-5.5-10.9-10.5-0.4-5.1 0.4-8.8-2.1-13s-8.8-14.3-2.9-18.5 17.7-12.2 20.6-17.7 2.9-6.7 9.7-10.9c6.7-4.2 14.7-9.7 18.5-13.5s10.1-9.7 11.4-6.7c1.3 2.9 7.2 3.8 14.3 1.3 7.2-2.5 16-8.8 8.4-8.8s-12.2-2.1-10.1-5-5-4.2-7.2-3.8c-2.1 0.4-2.1-4.2 5.1-5.5s1.3 5.1 7.2 4.6c5.9-0.4 9.7-5 13.9-5.9 4.2-0.8 5.9 2.9 0.4 6.7s-7.2 2.5 0 4.2 9.3 5.5 13.5 1.7-0.8-5.1-1.3-10.1c-0.4-5 0.8-14.3-3.8-17.7s-4.6-7.6-4.6-10.9c0-3.4 0.8-10.5-3.8-7.2-4.6 3.4-8.4 5.5-10.1 3.8s0.8-5.1-2.9-7.6c-3.8-2.5-4.2-6.3-8.8-5.9s-9.3-3.4-11.8 2.1-5.1 10.1-5.9 11.8 2.9 7.6-0.4 10.5c-3.4 2.9-12.6 7.2-13.9 10.1s-6.3 10.5-7.6 5.5 4.2-12.6-3.4-14.7-13.5-0.4-14.7-5c-1.3-4.6-4.6-8.8 2.9-12.6 7.6-3.8 15.2-10.5 22.3-11.4 7.2-0.8 2.1 5.1 8 4.6 5.9-0.4-0.8-3.4 6.3-4.6 7.2-1.3 5.9-1.3 3.8-3.8s-0.8-2.9 4.6-5.5c5.5-2.5 1.3-4.2 6.7-6.3 5.5-2.1 6.7-4.2 9.7-4.2 2.9 0 2.5 1.3 0.8 5.1s-2.9 6.3 2.1 3.8c5.1-2.5 7.6-4.2 3.8-0.4s-6.3 3.8-11.8 4.6-3.8 1.7-1.3 4.6 8.8 3.4 10.9 5c2.1 1.7 4.6 7.6 9.7 4.6 5-2.9 1.3-3.4 8-6.3s16.4-4.6 15.6-8.4-7.6-5.9-8.4-10.5 9.3-7.2-3.8-9.3c-13-2.1-5.5-3.8-11.8-3.8s-18.1 0-22.3 2.1-6.7-1.3-8.8 2.1 0.4 8-1.7 8-5.9 3.4-7.6 0-5.5-6.7-0.4-8c5-1.3 5.9-0.4 6.7-4.2s-7.2-3.4-2.5-4.2c4.6-0.8 6.7 0.4 13 0.4s20.6 2.5 22.7-1.3-3.4-3.8-9.7-4.2-17.3-2.5-21.9-0.4-10.5 5.5-12.6 8.8c-2.1 3.4-2.1-0.8-6.3 0s-11.4 5.5-7.6 8 3.8 5.5-0.4 5.5-5.5 4.2-8.4 4.2-10.9-0.4-7.2-2.5c3.8-2.1 8-2.1 7.6-7.2s4.2-6.7 4.2-8.4-10.1 3.8-18.1 1.3-11.4-6.3-19.4-5.9-18.5 10.9-13.5 11.8c5.1 0.8 8.8-0.8 9.7 1.7 0.8 2.5-0.8 4.6 2.1 5.9s8.4 4.6 1.3 2.9-3.8-4.6-14.7-5.1c-10.9-0.4-17.7-3.8-29-0.8-11.4 2.9-9.7 5.5-17.3 2.9-7.6-2.5-23.6-8.4-36.2-5.9s-28.2 6.7-32 9.3c-3.8 2.5 3.8 5-2.9 5.5-6.7 0.4-22.7 0-19.4 4.2 3.4 4.2 7.6 4.6 2.5 5.5-5 0.8-11.8 1.3-14.3 5-2.5 3.8-11.8 5.9-5.9 7.6s15.6 5.5 11.4 5.9-25.7 8.8-34.9 10.9c-9.3 2.1-16.8 12.2-8.8 9.2 10.2-3.7 37.5-12.2 42.5-14.3s7.2-0.4 6.7 2.5c-0.4 2.9 5.9-1.3 10.9-5.1s5-11.4 9.3-8.8c4.2 2.5 6.7 0 10.1-0.8s6.7-2.9 9.7-1.3c2.9 1.7 10.5 3.4 12.6 5.1s2.9 5.5 0.8 5.9-2.5 2.5-2.1 5.9 2.1 6.3-2.1 7.2c-4.2 0.8-3.4 5.9-0.8 5.5 2.5-0.4 4.2-1.7 4.6-4.2s5.9-7.2 5.1-3.8-2.9 6.7-2.9 9.3c0 2.5-2.9 2.1-3.4 4.6-0.4 2.5 0.4 2.5 2.5 4.6s0.8 3.4 0.4 8-13 17.3-14.7 21.5-0.8 10.1-0.8 14.7-1.7 10.5 2.9 12.2 5 2.5 5 6.7 0 9.3 2.5 12.2 1.3 2.5 1.3 7.2 2.9 2.1 3.4 5.9c0.4 3.8-2.1 5.5 2.1 8.4s8.8 5 6.7 0.4-3.4-8.4-5.5-15.2c-2.1-6.7-3.4-18.9-0.8-15.2 2.5 3.8 5.9 15.2 9.7 23.1 3.8 8 8.4 7.2 8.4 13 0 5.9-4.6 11.4 4.6 15.2 9.3 3.8 16 11.8 21.5 10.9 5.5-0.8 8.8-4.2 10.9-0.4s6.7 8.8 11.8 8.8c5 0 6.7 3.4 7.6 8.4 0.8 5 4.2 5.9 9.3 7.6 5 1.7 6.3 7.2 10.1 6.7 3.8-0.4 8.8-2.1 8.8 1.7s1.7 13-4.6 18.9-9.3 10.1-5.9 13.9 0.4 7.6-1.3 10.5 1.3 5.5 4.6 10.1c3.4 4.6 8 10.1 10.9 19.4s7.2 12.6 14.3 15.6c7.2 2.9 12.6 8 12.6 15.2s-0.4 31.6-0.4 38.7c0 7.2 3.8 14.3 2.5 19.8s0 10.1 1.7 12.2 1.3 6.7 1.7 11.4c0.4 4.6 5.5 1.3 5.5 5.5s-2.1 10.5 0.4 12.6c2.5 2.1-2.9 9.7 8.4 16.8 11.4 7.2 12.2 7.6 13 8.8 0.8 1.3 4.6-2.5 4.6-0.4s-6.3 8.4 5.5 8.4 18.9 1.7 11.8-3.8c-7.2-5.5-11.4-2.9-12.6-8.4-1.3-5.5-2.9-4.6-3.8-8.4-0.8-3.8 3-5.5 1.7-9.3s-6.3-3.8-5.9-7.6 3.4-7.6 4.2-9.3 0.8-3.4-1.3-5c-2.1-1.7-1.7-2.1 1.3-3 3-0.8 3.4 0.4 4.6-3.8 1.3-4.2 5-3.8 6.7-5 1.7-1.3 7.6-2.9 5.5-8.4s-6.3-8-1.7-8 9.3-0.4 12.2-6.3 1.7-7.2 5.1-11.8 3.8-8.4 3.8-11.8-1.7-6.7 2.9-8.8 19.8-4.6 21.9-10.9 4.2-13 3.4-19.8c-0.8-6.7-1.3-10.9 3.4-16.4 4.6-5.5 10.5-10.1 10.5-15.1 0.1-5 2.3-12.1-5.3-14.2z" fill="inherit"/>
	<path d="m431.9 38.9c4.6-5 3.4-7.6 9.7-10.1s4.6-5.9 3.8-10.9c-0.8-5.1 0-2.9 2.5-4.6s6.3-2.9 12.2-3.4c5.9-0.4 0.4-2.5 0.4-5s-4.2-2.1-10.1-1.3c-5.9 0.8-5 0-9.3-1.7-4.2-1.7-29-1.7-35.4-1.7-6.3 0-17.7 1.3-23.6 1.7s-5.5 0-16.8-1.3c-11.4-1.3-41.2-0.4-52.2 0.8-10.9 1.3-18.9 2.5-26.1 7.2-7.2 4.6-11.8 2.9-19.8 3.8-8 0.8-8.8 0.8-12.6 0.8s-3.4-2.1-10.1 0.4c-6.7 2.5-4.6 4.2-7.2 0.8-2.5-3.4-5.9 0-17.7 2.9s4.2 6.3 8 7.6c0 0 8-0.4 12.6-1.7s6.7 1.7 9.7 0.8c2.9-0.8 3.8-3.8 20.6-7.6s28.6-0.8 35.4 2.1c6.7 2.9 6.7 1.3 12.6-2.5s16-6.7 26.5-8.4 3.8 2.1-2.9 4.6-12.6 1.7-11.4 5.9c1.3 4.2 14.3 2.9 18.1 2.9s4.2 5.9 4.6 9.3c0.4 3.4-0.4 5.1 0.4 8.4 0.8 3.4 2.9 2.9-0.8 6.3-3.8 3.4-5.9 2.9-5.9 8.8s2.5 12.2 8.4 16.4 9.3 4.6 12.6-2.1c3.4-6.7 11.4-10.9 15.6-13s10.1 0 15.6-5 12.6-2.9 20.6-5.5c8.2-2.3 7.3-0.6 12-5.7z" fill="inherit"/>
	<path d="m440.3 48.6c-12.6 1.7-24.4-2.5-22.3 4.2s2.5 16.8 9.3 14.7c11.6-3.6 24.4-5.5 21.5-10.9-3.1-5.5 4.1-9.7-8.5-8z" fill="inherit"/>
</g>
</svg>