<?xml version="1.0" encoding="UTF-8" standalone="no"?><svg xmlns="http://www.w3.org/2000/svg" xmlns:xlink="http://www.w3.org/1999/xlink" data-name="Layer 1" fill="#199daf" height="128.1" preserveAspectRatio="xMidYMid meet" version="1" viewBox="-0.0 -0.1 128.3 128.1" width="128.3" zoomAndPan="magnify"><g id="change1_1"><path d="M121.54907,10.798,115.916,8.65991A10.0813,10.0813,0,0,0,112.32568,8h-.00018a9.97462,9.97462,0,0,0-9.35883,6.346L95.31641,33.8689a4,4,0,0,0,2.22345,5.16718c.10028.04059.15216.12335.12335.19678a.25611.25611,0,0,1-.23492.13208.30006.30006,0,0,1-.10211-.01837A3.99645,3.99645,0,0,0,92.26453,41.657L90.475,46.22363a6.9407,6.9407,0,0,0,3.5827,8.84265L90.69373,64H94.9679l2.821-7.49176,5.40747,2.05243L101.14825,64h4.27417l1.55261-4.12335a7.02978,7.02978,0,0,0,7.84778-4.31989L116.61237,50.99a4,4,0,0,0-2.30737-5.20007c-.03479-.01318-.07727-.02832-.12122-.0434a.19732.19732,0,0,1-.09192-.09393.10534.10534,0,0,1-.00232-.09338.25892.25892,0,0,1,.23743-.13507.28285.28285,0,0,1,.06915.00867q.06171.02554.12421.04938a3.99647,3.99647,0,0,0,5.14392-2.28021l7.65033-19.52289a9.79184,9.79184,0,0,0-.16681-7.59454A9.92564,9.92564,0,0,0,121.54907,10.798Zm2.0412,11.42169-7.65033,19.52289c-.02954-.01123-.05682-.02625-.08643-.03748a4.29418,4.29418,0,0,0-1.52637-.28094,4.24617,4.24617,0,0,0-3.96191,2.67566,4.15784,4.15784,0,0,0,2.43329,5.40143c.02954.01123.06.01819.0896.02936l-1.78955,4.56671A3.01966,3.01966,0,0,1,108.28125,56a3.05331,3.05331,0,0,1-1.08545-.19977L95.92957,51.524a2.95672,2.95672,0,0,1-1.73029-3.841l1.78949-4.56665a4.30085,4.30085,0,0,0,1.43951.24854,4.2414,4.2414,0,0,0,3.95923-2.67267,4.15418,4.15418,0,0,0-2.34686-5.364L106.691,15.80542A6.03911,6.03911,0,0,1,112.32544,12a6.10573,6.10573,0,0,1,2.17108.3996l5.63312,2.13806A5.91318,5.91318,0,0,1,123.59027,22.21967Z" fill="inherit"/></g><g id="change1_2"><path d="M108,68H20a8.009,8.009,0,0,0-8,8v44a8.00909,8.00909,0,0,0,8,8h88a8.009,8.009,0,0,0,8-8V76A8.009,8.009,0,0,0,108,68Zm4,52a4,4,0,0,1-4,4H20a4,4,0,0,1-4-4V76a4,4,0,0,1,4-4h88a4,4,0,0,1,4,4Z" fill="inherit"/></g><g id="change1_3"><path d="M89.08984.32324A1.9994,1.9994,0,0,0,86.99316.272a15.9546,15.9546,0,0,1-4.22852,1.541,14.04358,14.04358,0,0,0-11.1709.92041c-2.751,1.09033-6.11133-.96875-6.13916-.98633a2.00012,2.00012,0,0,0-3.05957,1.479L60.01123,25.75342a1.98873,1.98873,0,0,0,.467,1.49774L55.90521,64h4.03094L64.368,28.38507l9.54169,1.58759A1.95784,1.95784,0,0,0,74.23779,30a2.00248,2.00248,0,0,0,1.21045-.40771l9.67706-7.3551.60516,2.40979-1.94434,1.66309a2.00022,2.00022,0,0,0-.63965,2.0083l.623,2.47461L81.8291,32.44971a2.00058,2.00058,0,0,0-.64062,2.00977l.623,2.47266-1.938,1.65234a2.00045,2.00045,0,0,0-.6416,2.01074l.62354,2.47363L77.915,44.7251a2.00041,2.00041,0,0,0-.64062,2.01025l.62354,2.47119L75.96,50.85986a2,2,0,0,0-.6416,2.01025l.623,2.47168-1.9375,1.65186a2.00127,2.00127,0,0,0-.6416,2.01123l.62354,2.47021-1.93652,1.65039A1.99419,1.99419,0,0,0,71.46027,64h5.72919l.33691-.28711a2.00054,2.00054,0,0,0,.64209-2.01123l-.62354-2.47021,1.9375-1.65186a2.00045,2.00045,0,0,0,.6416-2.01074l-.623-2.47217,1.938-1.65332a1.99947,1.99947,0,0,0,.6416-2.01074L81.457,46.96094l1.93945-1.65625a1.99986,1.99986,0,0,0,.64111-2.00977l-.623-2.47266,1.938-1.65234a2.00045,2.00045,0,0,0,.6416-2.01074l-.62354-2.47363L87.311,33.0293A1.99977,1.99977,0,0,0,87.95166,31.02l-.62354-2.47607L89.272,26.88184a2.00051,2.00051,0,0,0,.64014-2.00732l-.81055-6.98877a1.99283,1.99283,0,0,0-.68549-1.38147L89.98779,2.21875A1.99869,1.99869,0,0,0,89.08984.32324Zm-4.84961,17.562-10.52539,8-9.52783-1.585.9588-9.06067,9.40692,1.72766a2.00343,2.00343,0,0,0,1.25049-.17578L84.855,12.29779Zm1.03369,4.239.06165-.04681.00177.03088Zm.10089-14.55029L74.62061,12.9126l-9.05255-1.66272.514-4.8573a10.13188,10.13188,0,0,0,7.21582-.03564,2.27933,2.27933,0,0,0,.30029-.16162c.13818-.08887,3.43652-2.14111,8.39355-.42676a2.01688,2.01688,0,0,0,.99609.08057,22.03777,22.03777,0,0,0,2.65088-.67334Z" fill="inherit"/></g><g id="change1_4"><path d="M20.1933,42.80634a3.93943,3.93943,0,0,0,4.43518,1.118l.3-.11719L32.35938,64h4.2298L27.24664,38.6123l-4.05011,1.582-4.6933-5.49054c-8.32379.13867-14.53778,9.88837-14.53778,9.88837.31549-13.67126,9.74329-16.62061,9.74329-16.62061L31.62683,20.9743l3.57788,3.911,2.49335-.973-.46429-5.13513,4.20636-1.64233A1.94652,1.94652,0,0,1,42.15051,17,1.99762,1.99762,0,0,1,44.017,18.32562L47.907,28.896a2.07587,2.07587,0,0,1-1.16278,2.65149L42.84894,33.0683l-3.14856-3.713-2.96082,1.15533.07068,4.54968-2.56287,1.30139L44.42572,64H48.656L39.17963,38.26794a3.99986,3.99986,0,0,0,1.38776-1.92773,3.93522,3.93522,0,0,0,3.713.45844l3.89514-1.52081a6.10444,6.10444,0,0,0,3.44879-7.77472L47.73456,16.93359A5.99112,5.99112,0,0,0,42.15051,13a5.86375,5.86375,0,0,0-2.14368.40527l-4.20447,1.6416a3.98388,3.98388,0,0,0-2.30811,2.3985,3.93371,3.93371,0,0,0-3.29907-.20129L12.34064,24.21649C10.72791,24.79126.35675,29.08594.0011,44.499a3.997,3.997,0,0,0,2.80267,3.9176,3.94213,3.94213,0,0,0,4.49738-1.66138c1.26239-1.95673,5.19275-6.7171,9.58185-7.82147Z" fill="inherit"/></g><g id="change1_5"><path d="M32,81a9.01019,9.01019,0,0,0-9,9v16a9,9,0,0,0,18,0V90A9.01015,9.01015,0,0,0,32,81Zm5,25a5,5,0,0,1-10,0V90a5,5,0,0,1,10,0Z" fill="inherit"/></g><g id="change1_6"><path d="M62,81a9.01019,9.01019,0,0,0-9,9v16a9,9,0,0,0,18,0V90A9.01015,9.01015,0,0,0,62,81Zm5,25a5,5,0,0,1-10,0V90a5,5,0,0,1,10,0Z" fill="inherit"/></g><g id="change1_7"><path d="M92,81a9.01019,9.01019,0,0,0-9,9v16a9,9,0,0,0,18,0V90A9.01015,9.01015,0,0,0,92,81Zm5,25a5,5,0,0,1-10,0V90a5,5,0,0,1,10,0Z" fill="inherit"/></g></svg>