<?xml version="1.0" encoding="UTF-8" standalone="no"?><svg xmlns="http://www.w3.org/2000/svg" xmlns:xlink="http://www.w3.org/1999/xlink" fill="#000000" height="62" preserveAspectRatio="xMidYMid meet" version="1" viewBox="2.0 1.0 60.0 62.0" width="60" zoomAndPan="magnify"><g id="change1_1"><path d="m49.269 17c-.45 0-.832-.305-.958-.737-.351-1.21-.832-2.363-1.429-3.445-.217-.395-.162-.88.156-1.199l1.225-1.225-5.657-5.657-1.225 1.225c-.319.319-.804.374-1.199.156-1.082-.597-2.235-1.078-3.445-1.429-.432-.126-.737-.508-.737-.958v-1.731h-8v1.731c0 .45-.305.832-.737.958-1.21.351-2.363.832-3.445 1.429-.395.217-.88.162-1.199-.156l-1.225-1.225-5.657 5.657 1.225 1.225c.319.319.374.804.156 1.199-.597 1.082-1.078 2.235-1.429 3.445-.126.432-.508.737-.958.737h-1.731v8h1.731c.45 0 .832.305.958.737.351 1.21.832 2.363 1.429 3.446.217.395.162.88-.156 1.199l-1.225 1.225 5.657 5.657 1.225-1.225c.319-.319.804-.374 1.199-.156 1.082.597 2.235 1.078 3.445 1.429.432.124.737.507.737.957v1.731h8v-1.731c0-.45.305-.832.737-.958 1.21-.351 2.363-.832 3.445-1.429.395-.217.88-.162 1.199.156l1.225 1.225 5.657-5.657-1.225-1.225c-.319-.319-.374-.804-.156-1.199.597-1.082 1.078-2.235 1.429-3.446.126-.431.508-.736.958-.736h1.731v-8zm-17.269 16c-6.627 0-12-5.373-12-12s5.373-12 12-12 12 5.373 12 12-5.373 12-12 12z" fill="#199daf"/></g><g id="change2_1"><circle cx="32" cy="16" fill="#61d1ce" r="3"/></g><g id="change2_2"><path d="m33 19h-2c-2.209 0-4 1.791-4 4v4l2 1v5h6v-5l2-1v-4c0-2.209-1.791-4-4-4z" fill="#61d1ce"/></g><g id="change3_1"><path d="m26 45h12v12h-12z" fill="#31a9ba"/></g><g id="change2_3"><path d="m30 49h4v4h-4z" fill="#61d1ce"/></g><g fill="#edc01f" id="change4_1"><circle cx="58" cy="43" r="3"/><circle cx="58" cy="59" r="3"/><circle cx="51" cy="51" r="3"/><circle cx="6" cy="59" r="3"/><circle cx="6" cy="43" r="3"/><circle cx="13" cy="51" r="3"/></g><g id="change5_1"><path d="m58 39c-1.858 0-3.411 1.28-3.858 3h-6.142c-.265 0-.52.105-.707.293l-3.707 3.707h-2.586v2h3c.265 0 .52-.105.707-.293l3.707-3.707h5.728c.447 1.72 2 3 3.858 3 2.206 0 4-1.794 4-4s-1.794-4-4-4zm0 6c-1.103 0-2-.897-2-2s.897-2 2-2 2 .897 2 2-.897 2-2 2z"/></g><g id="change5_2"><path d="m58 55c-1.858 0-3.411 1.28-3.858 3h-5.728l-3.707-3.707c-.187-.187-.442-.293-.707-.293h-3v2h2.586l3.707 3.707c.187.188.442.293.707.293h6.142c.447 1.72 2 3 3.858 3 2.206 0 4-1.794 4-4s-1.794-4-4-4zm0 6c-1.103 0-2-.897-2-2s.897-2 2-2 2 .897 2 2-.897 2-2 2z"/></g><g id="change5_3"><path d="m51 55c2.206 0 4-1.794 4-4s-1.794-4-4-4c-1.858 0-3.411 1.28-3.858 3h-6.142v2h6.142c.447 1.72 2 3 3.858 3zm0-6c1.103 0 2 .897 2 2s-.897 2-2 2-2-.897-2-2 .897-2 2-2z"/></g><g id="change5_4"><path d="m6 63c1.858 0 3.411-1.28 3.858-3h6.142c.265 0 .52-.105.707-.293l3.707-3.707h2.586v-2h-3c-.265 0-.52.105-.707.293l-3.707 3.707h-5.728c-.447-1.72-2-3-3.858-3-2.206 0-4 1.794-4 4s1.794 4 4 4zm0-6c1.103 0 2 .897 2 2s-.897 2-2 2-2-.897-2-2 .897-2 2-2z"/></g><g id="change5_5"><path d="m2 43c0 2.206 1.794 4 4 4 1.858 0 3.411-1.28 3.858-3h5.728l3.707 3.707c.187.188.442.293.707.293h3v-2h-2.586l-3.707-3.707c-.187-.187-.442-.293-.707-.293h-6.142c-.447-1.72-2-3-3.858-3-2.206 0-4 1.794-4 4zm4-2c1.103 0 2 .897 2 2s-.897 2-2 2-2-.897-2-2 .897-2 2-2z"/></g><g id="change5_6"><path d="m13 47c-2.206 0-4 1.794-4 4s1.794 4 4 4c1.858 0 3.411-1.28 3.858-3h6.142v-2h-6.142c-.447-1.72-2-3-3.858-3zm0 6c-1.103 0-2-.897-2-2s.897-2 2-2 2 .897 2 2-.897 2-2 2z"/></g><g id="change5_7"><path d="m30 54h4c.552 0 1-.448 1-1v-4c0-.552-.448-1-1-1h-4c-.552 0-1 .448-1 1v4c0 .552.448 1 1 1zm1-4h2v2h-2z"/></g><g id="change5_8"><path d="m19 21c0 7.168 5.832 13 13 13s13-5.832 13-13-5.832-13-13-13-13 5.832-13 13zm11 10.809v-3.809c0-.379-.214-.725-.553-.895l-1.447-.723v-3.382c0-1.654 1.346-3 3-3h2c1.654 0 3 1.346 3 3v3.382l-1.447.724c-.339.169-.553.515-.553.894v3.809c-.65.12-1.316.191-2 .191s-1.35-.071-2-.191zm2-13.809c-1.103 0-2-.897-2-2s.897-2 2-2 2 .897 2 2-.897 2-2 2zm11 3c0 4.653-2.909 8.631-7 10.236v-2.618l1.447-.724c.339-.169.553-.515.553-.894v-4c0-2-1.188-3.717-2.89-4.516.548-.685.89-1.541.89-2.484 0-2.206-1.794-4-4-4s-4 1.794-4 4c0 .943.342 1.799.89 2.484-1.702.799-2.89 2.516-2.89 4.516v4c0 .379.214.725.553.895l1.447.723v2.618c-4.091-1.605-7-5.583-7-10.236 0-6.065 4.935-11 11-11s11 4.935 11 11z"/></g><g id="change5_9"><path d="m28 1c-.552 0-1 .448-1 1l-.016 1.729c-1.265.367-2.494.876-3.659 1.526l-1.225-1.225c-.188-.188-.442-.293-.707-.293s-.52.105-.707.293l-5.657 5.657c-.188.188-.293.442-.293.707s.105.52.293.707l1.212 1.233c-.637 1.157-1.146 2.385-1.511 3.666h-1.73c-.552 0-1 .448-1 1v8c0 .552.448 1 1 1l1.729.016c.367 1.265.876 2.494 1.526 3.659l-1.225 1.225c-.188.188-.293.442-.293.707s.105.52.293.707l5.657 5.657c.375.375 1.039.375 1.414 0l1.233-1.212c1.157.637 2.385 1.146 3.666 1.511v1.73c0 .552.448 1 1 1h3v3h-5c-.552 0-1 .448-1 1v12c0 .552.448 1 1 1h12c.552 0 1-.448 1-1v-12c0-.552-.448-1-1-1h-5v-3h3c.552 0 1-.448 1-1l.016-1.729c1.265-.367 2.494-.876 3.659-1.526l1.225 1.225c.188.188.442.293.707.293s.52-.105.707-.293l5.657-5.657c.188-.188.293-.442.293-.707s-.105-.52-.293-.707l-1.212-1.233c.637-1.157 1.146-2.385 1.511-3.666h1.73c.552 0 1-.448 1-1v-8c0-.552-.448-1-1-1l-1.729-.016c-.367-1.265-.876-2.494-1.526-3.659l1.225-1.225c.188-.188.293-.442.293-.707s-.105-.52-.293-.707l-5.657-5.657c-.375-.375-1.039-.375-1.414 0l-1.233 1.212c-1.157-.636-2.385-1.146-3.666-1.51v-1.731c0-.552-.448-1-1-1zm9 55h-10v-10h10zm2.7-49.007c.796.439 1.755.309 2.389-.325l.518-.518 4.243 4.243-.518.518c-.633.634-.763 1.594-.325 2.388.566 1.027 1.019 2.118 1.344 3.242.253.873 1.024 1.459 1.918 1.459h.731v6h-.731c-.894 0-1.665.586-1.918 1.459-.326 1.124-.778 2.214-1.344 3.241-.439.795-.309 1.755.325 2.389l.518.518-4.243 4.243-.518-.518c-.634-.633-1.594-.762-2.388-.325-1.027.566-2.118 1.019-3.242 1.344-.873.253-1.459 1.024-1.459 1.918v.731h-6v-.731c0-.894-.586-1.665-1.459-1.918-1.124-.326-2.214-.778-3.241-1.344-.796-.439-1.755-.308-2.389.325l-.518.518-4.243-4.243.518-.518c.633-.634.763-1.594.325-2.388-.566-1.027-1.019-2.118-1.344-3.242-.253-.873-1.024-1.459-1.918-1.459h-.731v-6h.731c.894 0 1.665-.586 1.918-1.459.326-1.124.778-2.214 1.344-3.241.439-.795.309-1.755-.325-2.389l-.518-.518 4.243-4.243.518.518c.634.633 1.594.762 2.388.325 1.027-.566 2.118-1.019 3.242-1.344.873-.253 1.459-1.024 1.459-1.918v-.731h6v.731c0 .894.586 1.665 1.459 1.918 1.124.326 2.214.778 3.241 1.344z"/></g></svg>