<?xml version="1.0" encoding="UTF-8" standalone="no"?><svg xmlns="http://www.w3.org/2000/svg" xmlns:xlink="http://www.w3.org/1999/xlink" fill="#000000" height="52.1" preserveAspectRatio="xMidYMid meet" version="1" viewBox="5.9 5.9 52.1 52.1" width="52.1" zoomAndPan="magnify"><g data-name="labor day" id="change1_1"><path d="M54.97,26.76H51.08A18.86433,18.86433,0,0,0,49.19,22.21l2.76-2.75a3.10231,3.10231,0,0,0,0-4.37l-3.04-3.04a3.10231,3.10231,0,0,0-4.37,0l-2.75,2.76a18.86291,18.86291,0,0,0-4.55-1.89V9.03a3.09841,3.09841,0,0,0-3.09-3.09h-4.3a3.09841,3.09841,0,0,0-3.09,3.09v3.91a18.93,18.93,0,0,0-4.53,1.88l-2.77-2.77a3.10231,3.10231,0,0,0-4.37,0l-3.04,3.04a3.10231,3.10231,0,0,0,0,4.37l2.76,2.75A18.86433,18.86433,0,0,0,12.92,26.76H9.03a3.09842,3.09842,0,0,0-3.09,3.09v4.3a3.09847,3.09847,0,0,0,3.09,3.09h3.89a18.86391,18.86391,0,0,0,1.89,4.55l-2.76,2.75a3.10231,3.10231,0,0,0,0,4.37l3.04,3.04a3.10242,3.10242,0,0,0,4.37,0l2.75-2.76a18.86514,18.86514,0,0,0,4.55,1.89v3.89a3.09846,3.09846,0,0,0,3.09,3.09h4.3a3.09846,3.09846,0,0,0,3.09-3.09V51.08a18.86514,18.86514,0,0,0,4.55-1.89l2.75,2.76a3.10242,3.10242,0,0,0,4.37,0l3.04-3.04a3.10231,3.10231,0,0,0,0-4.37l-2.76-2.75a18.86391,18.86391,0,0,0,1.89-4.55h3.89a3.09847,3.09847,0,0,0,3.09-3.09v-4.3A3.09842,3.09842,0,0,0,54.97,26.76ZM56.06,34.15a1.09256,1.09256,0,0,1-1.09,1.09H50.29a.99368.99368,0,0,0-.97.78,17.09161,17.09161,0,0,1-2.23,5.39A.99957.99957,0,0,0,47.23,42.65l3.3,3.3a1.08045,1.08045,0,0,1,0,1.54l-3.04,3.04a1.08045,1.08045,0,0,1-1.54,0l-3.3-3.3a.99959.99959,0,0,0-1.24-.14A17.0906,17.0906,0,0,1,36.02,49.32a.99362.99362,0,0,0-.78.97v4.68a1.09255,1.09255,0,0,1-1.09,1.09h-4.3a1.09255,1.09255,0,0,1-1.09-1.09V50.29a.99362.99362,0,0,0-.78-.97,16.99476,16.99476,0,0,1-5.39-2.23.99959.99959,0,0,0-1.24005.14l-3.3,3.3a1.08045,1.08045,0,0,1-1.54,0l-3.04-3.04a1.08045,1.08045,0,0,1,0-1.54l3.3-3.3a.99957.99957,0,0,0,.14-1.24,17.09161,17.09161,0,0,1-2.23-5.39.99368.99368,0,0,0-.97-.78H9.03a1.09256,1.09256,0,0,1-1.09-1.09v-4.3a1.09255,1.09255,0,0,1,1.09-1.09h4.68a.99367.99367,0,0,0,.97-.78,17.09277,17.09277,0,0,1,2.23-5.39.99959.99959,0,0,0-.14-1.24l-3.3-3.3a1.08045,1.08045,0,0,1,0-1.54l3.04-3.04a1.08045,1.08045,0,0,1,1.54,0l3.3,3.3a1.0147,1.0147,0,0,0,1.24005.14C24.41,15.65,26.41,15.2,28.4,14.46a1.07388,1.07388,0,0,0,.36-.75V9.03a1.09253,1.09253,0,0,1,1.09-1.09h4.3a1.09253,1.09253,0,0,1,1.09,1.09v4.68a.99374.99374,0,0,0,.78.97A17.09187,17.09187,0,0,1,41.41,16.91a.99959.99959,0,0,0,1.24-.14l3.3-3.3a1.08045,1.08045,0,0,1,1.54,0l3.04,3.04a1.08045,1.08045,0,0,1,0,1.54l-3.3,3.3A.99959.99959,0,0,0,47.09,22.59a17.09277,17.09277,0,0,1,2.23,5.39.99367.99367,0,0,0,.97.78h4.68a1.09255,1.09255,0,0,1,1.09,1.09ZM43.39,29.61h-.48a10.93659,10.93659,0,0,0-8.72-10.09c.08-.72-.17-1.45-1-1.47H30.81c-.82.02-1.08.75-1,1.47a10.93659,10.93659,0,0,0-8.72,10.09,2.92141,2.92141,0,1,0-.48,5.81h1.98v4.51c.19,5.39,9.02,7.22,9.95,6.97.36-.07,8.87-1.88995,8.87-6.97V35.42h1.98A2.90518,2.90518,0,0,0,43.39,29.61ZM29.81,21.58v2.44a2.19146,2.19146,0,0,0,4.38,0V21.58a8.94116,8.94116,0,0,1,6.72,8.03H23.09A8.94116,8.94116,0,0,1,29.81,21.58ZM43.39,33.42H20.61a.90532.90532,0,0,1,0-1.81H43.39A.90522.90522,0,0,1,43.39,33.42Z" fill="#199daf"/></g></svg>