<?xml version="1.0" encoding="UTF-8" standalone="no"?><svg xmlns="http://www.w3.org/2000/svg" xmlns:xlink="http://www.w3.org/1999/xlink" fill="#199daf" height="601.9" preserveAspectRatio="xMidYMid meet" version="1" viewBox="-11.0 -1.9 582.2 601.9" width="582.2" zoomAndPan="magnify"><g id="change1_1"><path d="M271.6,598.7c2.8,0.8,5.6,1.3,8.4,1.3c2.7,0,5.5-0.4,8.2-1.2c40.8-11.8,78.7-29.9,112.4-53.7c4.5-3.2,5.6-9.4,2.4-13.9 c-3.2-4.5-9.4-5.6-13.9-2.4c-31.9,22.5-67.7,39.7-106.5,50.9c-1.7,0.5-3.3,0.5-5.1,0c-51-14.8-96.3-39.4-134.8-73.1 c-4.2-3.7-10.5-3.2-14.1,0.9c-3.6,4.2-3.2,10.5,0.9,14.1C170.1,557.2,218,583.2,271.6,598.7z" fill="inherit"/><path d="M15.7,130.5c-5.4-0.7-10.5,3.1-11.2,8.6C-2.6,191.8-11,327,63,443.8c1.9,3,5.1,4.6,8.5,4.6c1.8,0,3.7-0.5,5.3-1.6 c4.7-3,6.1-9.1,3.1-13.8C9.4,321.9,17.5,192.3,24.3,141.8C25,136.3,21.2,131.3,15.7,130.5z" fill="inherit"/><path d="M90.4,465.5c-4.3,3.5-5,9.8-1.5,14.1c3,3.7,6.2,7.4,9.5,11.2c2,2.2,4.7,3.4,7.5,3.4c2.4,0,4.7-0.8,6.6-2.5 c4.1-3.7,4.5-10,0.8-14.1c-3.1-3.5-6.1-7-8.9-10.4C101,462.7,94.7,462,90.4,465.5z" fill="inherit"/><path d="M529.9,106.2c-36.2-6.3-71.9-16.3-106.2-29.8C379.1,58.7,336.7,35.1,297.8,6c-10.5-7.9-25.2-7.9-35.6,0 c-19.1,14.3-39.5,27.5-60.4,39.3c-4.8,2.7-6.5,8.8-3.8,13.6c2.7,4.8,8.8,6.5,13.6,3.8c21.7-12.2,42.8-25.9,62.6-40.7 c3.4-2.6,8.1-2.6,11.6,0c40.4,30.2,84.3,54.7,130.5,73c35.6,14,72.7,24.4,110.2,31c4.2,0.7,7.4,4,8,8.3 c6.4,42.3,16.2,151.9-31.7,256.6c-2.3,5-0.1,11,4.9,13.3c1.3,0.6,2.8,0.9,4.2,0.9c3.8,0,7.4-2.2,9.1-5.8 c50.2-109.7,40-223.9,33.3-268C552.4,118.4,542.5,108.3,529.9,106.2z" fill="inherit"/><path d="M270.4,528.3c3.2,1.2,6.4,1.7,9.7,1.7c3.2,0,6.4-0.6,9.5-1.7c13.8-4.9,27.4-10.7,40.3-17.3c4.9-2.5,6.8-8.6,4.3-13.5 c-2.5-4.9-8.6-6.8-13.5-4.3c-12.1,6.2-24.8,11.7-37.8,16.3c-1.9,0.7-3.6,0.7-5.7,0c-46.2-16.3-85.7-42-117.2-76.4 c-75.5-82.3-82.1-192.5-79.4-250.7c0.1-1.6,0.5-3.1,1.1-4.5c2.4-5,0.3-11-4.7-13.3c-5-2.4-11-0.3-13.3,4.7 c-1.7,3.6-2.8,7.6-3.1,11.9c-2.9,61.5,4.2,177.7,84.6,265.3C178.9,483.4,221.1,511,270.4,528.3z" fill="inherit"/><path d="M463.7,350c1.1,0.4,2.3,0.6,3.4,0.6c4.1,0,7.9-2.5,9.4-6.6c22.5-61.3,24.8-122.4,22.9-162.9c-0.4-8.3-4-15.8-10.1-21.3 c-4.1-3.7-10.4-3.4-14.1,0.7c-3.7,4.1-3.4,10.4,0.7,14.1c2.1,1.9,3.3,4.6,3.5,7.5c1.9,38.6-0.4,96.8-21.7,155 C455.9,342.3,458.6,348.1,463.7,350z" fill="inherit"/><path d="M276.1,90.8c2.9-1.3,6.2-1.1,8.9,0.7c29,18.7,59.5,34.9,90.6,48.2c1.3,0.5,2.6,0.8,3.9,0.8c3.9,0,7.6-2.3,9.2-6.1 c2.2-5.1-0.2-11-5.3-13.1c-30.1-12.8-59.6-28.5-87.6-46.6c-8.3-5.3-18.7-6.1-27.7-2.1c-5.1,2.2-7.3,8.1-5.1,13.2 C265.2,90.8,271.1,93.1,276.1,90.8z" fill="inherit"/><path d="M434.9,161.7c1,0.3,1.9,0.4,2.9,0.4c4.3,0,8.3-2.8,9.6-7.1c1.6-5.3-1.4-10.9-6.7-12.5c-4.8-1.4-9.7-3.1-14.5-4.8 c-5.2-1.9-10.9,0.8-12.8,6c-1.9,5.2,0.8,10.9,6,12.8C424.6,158.4,429.7,160.2,434.9,161.7z" fill="inherit"/><path d="M226.1,274.8c-11.9-12.1-32.6-12.1-44.5,0l-12.5,12.8c-12.1,12.4-12.1,32.5,0,44.8l76.6,78.2c5.9,6.1,13.8,9.4,22.3,9.4 c8.4,0,16.3-3.3,22.2-9.4L430.9,267c12.1-12.4,12.1-32.5,0-44.8l-12.5-12.8c-5.9-6.1-13.8-9.4-22.2-9.4c0,0,0,0,0,0 c-8.4,0-16.3,3.3-22.3,9.4l-98,100c-4.3,4.4-11.6,4.4-15.9,0L226.1,274.8z M290.2,323.4l98-100c2.1-2.2,5-3.4,8-3.4s5.8,1.2,8,3.4 l12.5,12.8c4.5,4.6,4.5,12.2,0,16.8L275.9,396.6c-4.3,4.4-11.6,4.4-15.9,0l-76.6-78.2c-4.5-4.6-4.5-12.2,0-16.8l12.5-12.8 c4.3-4.4,11.6-4.4,15.9,0l33.9,34.6C257.6,335.5,278.3,335.5,290.2,323.4z" fill="inherit"/><path d="M50,120c0,4.8,3.4,9,8.2,9.8c63.4,11.7,70.3,18.6,82,82c0.9,4.7,5,8.2,9.8,8.2s9-3.4,9.8-8.2c11.7-63.4,18.6-70.3,82-82 c4.7-0.9,8.2-5,8.2-9.8s-3.4-9-8.2-9.8c-63.4-11.7-70.3-18.6-82-82c-0.9-4.7-5-8.2-9.8-8.2s-9,3.4-9.8,8.2 c-11.7,63.4-18.6,70.3-82,82C53.4,111,50,115.2,50,120z M150,72.9c8.7,25.8,21.3,38.4,47.1,47.1c-25.8,8.7-38.4,21.3-47.1,47.1 c-8.7-25.8-21.3-38.4-47.1-47.1C128.7,111.3,141.3,98.7,150,72.9z" fill="inherit"/><path d="M551.8,470.2c-63.4-11.7-70.3-18.6-82-82c-0.9-4.7-5-8.2-9.8-8.2s-9,3.4-9.8,8.2c-11.7,63.4-18.6,70.3-82,82 c-4.7,0.9-8.2,5-8.2,9.8s3.4,9,8.2,9.8c63.4,11.7,70.3,18.6,82,82c0.9,4.7,5,8.2,9.8,8.2s9-3.4,9.8-8.2c11.7-63.4,18.6-70.3,82-82 c4.7-0.9,8.2-5,8.2-9.8S556.6,471,551.8,470.2z M460,527.1c-8.7-25.8-21.3-38.4-47.1-47.1c25.8-8.7,38.4-21.3,47.1-47.1 c8.7,25.8,21.3,38.4,47.1,47.1C481.3,488.7,468.7,501.3,460,527.1z" fill="inherit"/></g></svg>