<?xml version="1.0" encoding="UTF-8" standalone="no"?><svg xmlns="http://www.w3.org/2000/svg" xmlns:xlink="http://www.w3.org/1999/xlink" fill="#d69e0f" height="128" preserveAspectRatio="xMidYMid meet" version="1" viewBox="7.0 0.0 107.9 128.0" width="107.9" zoomAndPan="magnify"><g id="change1_1"><path d="M17.8,18h25.3c1.1,0,2-0.9,2-2s-0.9-2-2-2H17.8c-1.1,0-2,0.9-2,2S16.7,18,17.8,18z" fill="inherit"/></g><g id="change1_2"><path d="M17.5,26h67c1.1,0,2-0.9,2-2s-0.9-2-2-2h-67c-1.1,0-2,0.9-2,2S16.4,26,17.5,26z" fill="inherit"/></g><g id="change1_3"><path d="M17.5,34h67c1.1,0,2-0.9,2-2s-0.9-2-2-2h-67c-1.1,0-2,0.9-2,2S16.4,34,17.5,34z" fill="inherit"/></g><g id="change1_4"><path d="M17.5,50h67c1.1,0,2-0.9,2-2s-0.9-2-2-2h-67c-1.1,0-2,0.9-2,2S16.4,50,17.5,50z" fill="inherit"/></g><g id="change1_5"><path d="M84.2,38H37.8c-1.1,0-2,0.9-2,2s0.9,2,2,2h46.3c1.1,0,2-0.9,2-2S85.3,38,84.2,38z" fill="inherit"/></g><g id="change1_6"><path d="M42.5,92h2.9c0.5-0.1,1-0.1,1.5-0.1c0.2,0,0.4,0,0.6,0.1h10.9c0.1,0,0.2,0,0.2,0l3.7-2.5c-1.1-0.9-2.4-1.5-4-1.5h-16 c-3.3,0-6,2.7-6,6v14c0,3.3,2.7,6,6,6h16c3.3,0,6-2.7,6-6v-5.4l-4,2.7v2.7c0,1.1-0.9,2-2,2h-16c-1.1,0-2-0.9-2-2V94 C40.5,92.9,41.4,92,42.5,92z" fill="inherit"/></g><g id="change1_7"><path d="M68.2,92.9c-0.6-0.9-1.9-1.2-2.8-0.5l-13.3,9L48,96.6c-0.7-0.8-2-0.9-2.8-0.2c-0.8,0.7-0.9,2-0.2,2.8l5.3,6.1 c0.4,0.5,1,0.7,1.5,0.7c0.4,0,0.8-0.1,1.1-0.3l14.7-10C68.5,95,68.8,93.8,68.2,92.9z" fill="inherit"/></g><g id="change1_8"><path d="M80.6,78H17.5c-1.1,0-2,0.9-2,2s0.9,2,2,2h64.6C81.7,80.7,81.2,79.3,80.6,78z" fill="inherit"/></g><g id="change1_9"><path d="M17.5,74h61.3c-0.4-1.3-0.7-2.6-0.8-4H17.5c-1.1,0-2,0.9-2,2S16.4,74,17.5,74z" fill="inherit"/></g><g id="change1_10"><path d="M35.8,64c0,1.1,0.9,2,2,2h40.4c0.3-1.4,0.7-2.7,1.3-4H37.8C36.7,62,35.8,62.9,35.8,64z" fill="inherit"/></g><g id="change1_11"><path d="M17.5,58h64.9c1.1-1.2,2.4-2.2,3.8-3c-0.3-0.6-1-1-1.7-1h-67c-1.1,0-2,0.9-2,2S16.4,58,17.5,58z" fill="inherit"/></g><g id="change1_12"><path d="M15,128h72c4.1,0,7.4-3.1,7.9-7h-4.1c-0.4,1.7-2,3-3.9,3H15c-2.2,0-4-1.8-4-4V8c0-2.2,1.8-4,4-4h72c2.2,0,4,1.8,4,4v45.3 c0.4-0.1,0.8-0.1,1.2-0.2C92.8,53,93.4,53,94,53c0.3,0,0.7,0,1,0.1V8c0-4.4-3.6-8-8-8H15c-4.4,0-8,3.6-8,8v112 C7,124.4,10.6,128,15,128z" fill="inherit"/></g><g id="change1_13"><path d="M92.6,57.1c-5.6,0.6-10,5.1-10.6,10.7c-0.2,2.4,0.2,4.7,1.3,6.8c2.4,4.5,3.6,9,3.6,13.4v3h-1c-2.2,0-4,1.8-4,4v4h-3 c-3.3,0-6,2.7-6,6v4c0,1.1,0.9,2,2,2h38c1.1,0,2-0.9,2-2v-4c0-3.3-2.7-6-6-6h-3v-4c0-2.2-1.8-4-4-4h-1v-2.7c0-5,1.2-9.6,3.3-13.3 c1.1-1.8,1.7-3.9,1.7-6.1c0-3.4-1.5-6.7-4-8.9C99.5,57.8,96.1,56.7,92.6,57.1z M109,103c1.1,0,2,0.9,2,2v2H77v-2c0-1.1,0.9-2,2-2 H109z M102,95v4H86v-4H102z M99.3,63c1.7,1.5,2.7,3.7,2.7,6c0,1.4-0.4,2.8-1.1,4c-2.6,4.3-3.9,9.6-3.9,15.3V91h-6v-3 c0-5-1.4-10.2-4.1-15.3c-0.7-1.4-1-3-0.9-4.5c0.4-3.7,3.4-6.7,7-7.1C95.4,60.8,97.6,61.5,99.3,63z" fill="inherit"/></g><g id="change1_14"><path d="M112,115c0-1.1-0.9-2-2-2H78c-1.1,0-2,0.9-2,2s0.9,2,2,2h32C111.1,117,112,116.1,112,115z" fill="inherit"/></g></svg>