<?xml version="1.0" encoding="UTF-8" standalone="no"?><svg xmlns="http://www.w3.org/2000/svg" xmlns:xlink="http://www.w3.org/1999/xlink" fill="#000000" height="44" preserveAspectRatio="xMidYMid meet" version="1" viewBox="0.0 0.0 44.0 44.0" width="44" zoomAndPan="magnify"><g fill="#d69e0f" id="change1_1"><path d="M 26.078125 21.121094 C 26.03125 20.195312 25.984375 19.265625 25.84375 18.386719 C 26.910156 18.0625 27.925781 17.644531 28.808594 17.089844 C 29.644531 18.246094 30.199219 19.589844 30.335938 21.121094 Z M 25.84375 25.613281 C 25.984375 24.730469 26.03125 23.804688 26.078125 22.878906 L 30.335938 22.878906 C 30.199219 24.363281 29.644531 25.753906 28.808594 26.910156 C 27.929688 26.351562 26.957031 25.890625 25.84375 25.613281 Z M 25.566406 27.328125 C 26.308594 27.558594 27.003906 27.835938 27.652344 28.207031 C 26.816406 28.992188 25.796875 29.546875 24.6875 29.917969 C 25.011719 29.222656 25.335938 28.296875 25.566406 27.328125 Z M 20.238281 26.957031 C 20.84375 26.863281 21.445312 26.816406 22.046875 26.816406 C 22.648438 26.816406 23.25 26.863281 23.851562 26.957031 C 23.34375 29.132812 22.554688 30.382812 22.046875 30.382812 C 21.535156 30.382812 20.75 29.132812 20.238281 26.957031 Z M 18.527344 27.328125 C 18.757812 28.296875 19.035156 29.222656 19.40625 29.964844 C 18.292969 29.59375 17.277344 28.992188 16.441406 28.253906 C 17.089844 27.835938 17.738281 27.558594 18.527344 27.328125 Z M 17.96875 22.878906 C 18.015625 23.804688 18.0625 24.730469 18.203125 25.613281 C 17.136719 25.9375 16.117188 26.351562 15.238281 26.910156 C 14.40625 25.753906 13.847656 24.40625 13.710938 22.878906 Z M 18.203125 18.433594 C 18.0625 19.3125 18.015625 20.238281 17.96875 21.164062 L 13.710938 21.164062 C 13.847656 19.683594 14.402344 18.292969 15.238281 17.136719 C 16.117188 17.691406 17.136719 18.109375 18.203125 18.433594 Z M 18.527344 16.671875 C 17.785156 16.441406 17.089844 16.164062 16.441406 15.792969 C 17.277344 15.007812 18.292969 14.449219 19.40625 14.082031 C 19.035156 14.820312 18.757812 15.699219 18.527344 16.671875 Z M 24.363281 22.878906 C 24.316406 23.714844 24.269531 24.5 24.175781 25.195312 C 23.480469 25.101562 22.785156 25.054688 22.046875 25.054688 C 21.351562 25.054688 20.609375 25.101562 19.914062 25.195312 C 19.824219 24.5 19.730469 23.714844 19.730469 22.878906 Z M 19.730469 21.121094 C 19.777344 20.285156 19.824219 19.5 19.914062 18.757812 C 20.609375 18.851562 21.304688 18.898438 22.046875 18.898438 C 22.785156 18.898438 23.480469 18.851562 24.175781 18.757812 C 24.269531 19.453125 24.363281 20.238281 24.363281 21.121094 Z M 24.640625 14.078125 C 25.753906 14.449219 26.773438 15.050781 27.605469 15.792969 C 27.003906 16.164062 26.308594 16.441406 25.519531 16.671875 C 25.335938 15.699219 25.011719 14.820312 24.640625 14.078125 Z M 23.851562 17.042969 C 23.25 17.136719 22.648438 17.183594 22.046875 17.183594 C 21.445312 17.183594 20.84375 17.136719 20.238281 17.042969 C 20.75 14.867188 21.535156 13.617188 22.046875 13.617188 C 22.554688 13.617188 23.34375 14.867188 23.851562 17.042969 Z M 22.046875 11.902344 C 16.441406 11.902344 11.902344 16.441406 11.902344 22 C 11.902344 27.558594 16.441406 32.144531 22.046875 32.144531 C 27.652344 32.144531 32.144531 27.605469 32.144531 22 C 32.144531 16.394531 27.601562 11.902344 22.046875 11.902344"/><path d="M 24.316406 2.269531 C 24.316406 3.523438 23.300781 4.539062 22.046875 4.539062 C 20.792969 4.539062 19.777344 3.523438 19.777344 2.269531 C 19.777344 1.015625 20.792969 0 22.046875 0 C 23.300781 0 24.316406 1.015625 24.316406 2.269531"/><path d="M 19.128906 9.449219 C 20.054688 9.632812 21.027344 9.726562 22.046875 9.726562 C 23.066406 9.726562 24.035156 9.632812 24.964844 9.449219 C 25.289062 9.402344 25.519531 9.078125 25.472656 8.707031 L 25.242188 6.902344 C 25.148438 6.160156 24.730469 5.511719 24.132812 5.140625 C 23.527344 5.558594 22.835938 5.835938 22.046875 5.835938 C 21.257812 5.835938 20.519531 5.558594 19.960938 5.140625 C 19.359375 5.511719 18.941406 6.160156 18.851562 6.902344 L 18.617188 8.707031 C 18.527344 9.03125 18.757812 9.355469 19.128906 9.449219"/><path d="M 9.660156 6.414062 C 10.546875 7.300781 10.546875 8.738281 9.660156 9.625 C 8.773438 10.511719 7.335938 10.511719 6.449219 9.625 C 5.5625 8.738281 5.5625 7.300781 6.449219 6.414062 C 7.335938 5.527344 8.773438 5.527344 9.660156 6.414062"/><path d="M 9.078125 13.570312 L 10.191406 15.007812 C 10.421875 15.285156 10.792969 15.332031 11.070312 15.144531 C 11.855469 14.636719 12.597656 13.988281 13.339844 13.292969 C 14.082031 12.550781 14.683594 11.808594 15.191406 11.023438 C 15.378906 10.746094 15.332031 10.328125 15.050781 10.144531 L 13.617188 9.03125 C 13.015625 8.570312 12.273438 8.429688 11.578125 8.570312 C 11.484375 9.308594 11.160156 10.003906 10.605469 10.558594 C 10.050781 11.113281 9.355469 11.441406 8.613281 11.53125 C 8.429688 12.226562 8.613281 12.96875 9.078125 13.570312"/><path d="M 4.539062 21.953125 C 4.539062 23.207031 3.523438 24.222656 2.269531 24.222656 C 1.015625 24.222656 0 23.207031 0 21.953125 C 0 20.699219 1.015625 19.683594 2.269531 19.683594 C 3.523438 19.683594 4.539062 20.699219 4.539062 21.953125"/><path d="M 8.707031 25.425781 C 9.03125 25.472656 9.355469 25.242188 9.449219 24.917969 C 9.632812 23.992188 9.726562 23.019531 9.726562 22 C 9.726562 20.980469 9.632812 20.007812 9.449219 19.082031 C 9.402344 18.757812 9.078125 18.527344 8.707031 18.574219 L 6.902344 18.757812 C 6.160156 18.851562 5.511719 19.269531 5.140625 19.871094 C 5.558594 20.472656 5.835938 21.167969 5.835938 21.953125 C 5.835938 22.742188 5.558594 23.480469 5.140625 24.035156 C 5.511719 24.640625 6.160156 25.054688 6.902344 25.148438 L 8.707031 25.425781"/><path d="M 9.625 34.339844 C 10.507812 35.226562 10.507812 36.664062 9.625 37.550781 C 8.738281 38.4375 7.300781 38.4375 6.414062 37.550781 C 5.527344 36.664062 5.527344 35.226562 6.414062 34.339844 C 7.300781 33.453125 8.738281 33.453125 9.625 34.339844"/><path d="M 13.292969 30.660156 C 12.550781 29.917969 11.808594 29.320312 11.023438 28.808594 C 10.746094 28.621094 10.328125 28.667969 10.144531 28.949219 L 9.03125 30.382812 C 8.570312 30.984375 8.429688 31.726562 8.570312 32.421875 C 9.308594 32.515625 10.003906 32.886719 10.558594 33.394531 C 11.113281 33.949219 11.441406 34.644531 11.53125 35.386719 C 12.226562 35.570312 12.96875 35.386719 13.570312 34.921875 L 15.007812 33.808594 C 15.285156 33.578125 15.332031 33.207031 15.144531 32.929688 C 14.636719 32.144531 14.035156 31.402344 13.292969 30.660156"/><path d="M 24.222656 41.730469 C 24.222656 42.984375 23.207031 44 21.953125 44 C 20.699219 44 19.683594 42.984375 19.683594 41.730469 C 19.683594 40.476562 20.699219 39.460938 21.953125 39.460938 C 23.207031 39.460938 24.222656 40.476562 24.222656 41.730469"/><path d="M 24.871094 34.550781 C 23.945312 34.367188 22.972656 34.273438 21.953125 34.273438 C 20.933594 34.273438 19.960938 34.367188 19.035156 34.550781 C 18.710938 34.597656 18.480469 34.921875 18.527344 35.292969 L 18.757812 37.101562 C 18.851562 37.839844 19.265625 38.488281 19.871094 38.859375 C 20.472656 38.441406 21.164062 38.164062 21.953125 38.164062 C 22.738281 38.164062 23.480469 38.441406 24.035156 38.859375 C 24.640625 38.488281 25.054688 37.839844 25.148438 37.101562 L 25.382812 35.292969 C 25.472656 34.96875 25.242188 34.644531 24.871094 34.550781"/><path d="M 37.550781 34.375 C 38.433594 35.261719 38.433594 36.699219 37.550781 37.585938 C 36.664062 38.472656 35.226562 38.472656 34.339844 37.585938 C 33.453125 36.699219 33.453125 35.261719 34.339844 34.375 C 35.226562 33.488281 36.664062 33.488281 37.550781 34.375"/><path d="M 34.921875 30.429688 L 33.808594 28.992188 C 33.578125 28.714844 33.207031 28.667969 32.929688 28.855469 C 32.144531 29.363281 31.402344 30.011719 30.660156 30.707031 C 29.917969 31.449219 29.320312 32.191406 28.808594 32.976562 C 28.621094 33.253906 28.667969 33.671875 28.949219 33.855469 L 30.382812 34.96875 C 30.984375 35.429688 31.726562 35.570312 32.421875 35.429688 C 32.515625 34.691406 32.886719 33.996094 33.394531 33.441406 C 33.949219 32.886719 34.644531 32.558594 35.386719 32.46875 C 35.570312 31.773438 35.386719 31.03125 34.921875 30.429688"/><path d="M 44 22.046875 C 44 23.300781 42.984375 24.316406 41.730469 24.316406 C 40.476562 24.316406 39.460938 23.300781 39.460938 22.046875 C 39.460938 20.792969 40.476562 19.777344 41.730469 19.777344 C 42.984375 19.777344 44 20.792969 44 22.046875"/><path d="M 37.097656 18.804688 L 35.292969 18.574219 C 34.96875 18.527344 34.644531 18.757812 34.550781 19.082031 C 34.367188 20.007812 34.273438 20.980469 34.273438 22 C 34.273438 23.019531 34.367188 23.992188 34.550781 24.917969 C 34.597656 25.242188 34.921875 25.472656 35.292969 25.425781 L 37.097656 25.195312 C 37.839844 25.101562 38.488281 24.6875 38.859375 24.085938 C 38.441406 23.480469 38.164062 22.785156 38.164062 22 C 38.164062 21.214844 38.441406 20.472656 38.859375 19.914062 C 38.488281 19.3125 37.839844 18.898438 37.097656 18.804688"/><path d="M 37.585938 6.449219 C 38.472656 7.335938 38.472656 8.773438 37.585938 9.660156 C 36.699219 10.546875 35.261719 10.546875 34.378906 9.660156 C 33.488281 8.773438 33.488281 7.335938 34.378906 6.449219 C 35.261719 5.5625 36.699219 5.5625 37.585938 6.449219"/><path d="M 30.707031 13.339844 C 31.449219 14.082031 32.191406 14.679688 32.976562 15.191406 C 33.253906 15.375 33.671875 15.332031 33.855469 15.050781 L 34.96875 13.617188 C 35.429688 13.015625 35.570312 12.273438 35.429688 11.578125 C 34.691406 11.484375 33.996094 11.113281 33.441406 10.605469 C 32.886719 10.050781 32.558594 9.355469 32.46875 8.613281 C 31.773438 8.429688 31.03125 8.613281 30.429688 9.078125 L 28.992188 10.191406 C 28.71875 10.421875 28.667969 10.792969 28.855469 11.070312 C 29.363281 11.855469 29.96875 12.597656 30.707031 13.339844"/></g></svg>