<?xml version="1.0" encoding="UTF-8" standalone="no"?><svg xmlns="http://www.w3.org/2000/svg" xmlns:xlink="http://www.w3.org/1999/xlink" fill="#199daf" height="128.3" preserveAspectRatio="xMidYMid meet" version="1" viewBox="0.0 -0.2 128.1 128.3" width="128.1" zoomAndPan="magnify"><g id="change1_1"><path d="M123.3,16.5l-72-16.3c-1.8-0.4-3.6,0-5.1,1.2C44.8,2.5,44,4.2,44,6v2.1c1.4,0.1,2.7,0.3,4,0.7V6c0-0.6,0.3-1.2,0.8-1.6 c0.5-0.4,1.1-0.5,1.7-0.4l72,16.3c0.9,0.2,1.6,1,1.6,2v63.5l3,3c0.4,0.4,0.7,0.7,1,1.1V22.4C128,19.5,126.1,17.1,123.3,16.5z" fill="inherit"/></g><g id="change1_2"><path d="M110.3,77.8c-5.1-5.1-13.4-5.1-18.5,0L84,85.2l-6.4-6.4c-1.1,0.8-2.4,1.5-3.8,1.8l29.7,29.7c0.9-1,2-1.8,3.1-2.5L93.1,94.2 l7-6.7c0.7-0.6,2.3-0.7,3.1,0l12.5,12.9c0.4,0.4,0.9,0.6,1.4,0.6c1.7,0,2.6-2.1,1.4-3.4c0,0-12.5-13-12.5-13c0,0-0.1-0.1-0.1-0.1 c-2.3-2-6.2-2-8.5,0l-7.1,6.8L86.9,88l7.7-7.4c3.6-3.6,9.3-3.6,12.9,0l13.9,13.9c1.7,1.7,2.7,4,2.7,6.4c0,2.4-0.9,4.7-2.7,6.5 l-0.9,0.9c1.1,0.8,2.1,1.7,2.9,2.8l0.8-0.9c2.5-2.5,3.8-5.8,3.8-9.3s-1.4-6.8-3.8-9.3L110.3,77.8z" fill="inherit"/></g><g id="change1_3"><path d="M125.3,114.9c0.4,1.3,0.7,2.7,0.7,4.1c0,2.5-0.7,4.9-2,6.9v0.1c0,1.1,0.9,2,2,2s2-0.9,2-2v-14c-0.3,0.4-0.6,0.7-1,1.1 L125.3,114.9z" fill="inherit"/></g><g id="change1_4"><path d="M113,110c-5,0-9,4-9,9s4,9,9,9s9-4,9-9S118,110,113,110z M113,124c-2.8,0-5-2.2-5-5s2.2-5,5-5s5,2.2,5,5S115.8,124,113,124z" fill="inherit"/></g><g id="change1_5"><path d="M78,70.2V53.4c0-3.8-2.2-7.3-5.6-9.2l-14.3-7.6c-0.6-0.3-1.3-0.6-1.9-0.9c-1,1.2-2.1,2.2-3.3,3.1c1.2,0.3,2.3,0.8,3.3,1.3 l14.3,7.6c2.2,1.2,3.5,3.3,3.5,5.6v16.8c0,1.5-1.3,2.7-3,2.7s-3-1.2-3-2.7V56c0-0.7-0.4-1.4-1.1-1.8l-9-4.7c-0.6-0.3-1.4-0.3-2,0.1 c-0.6,0.4-1,1-1,1.7v29.3c0,0,0,0.1,0,0.1l1.2,18.9c0,0.1,0,0.1,0,0.2l3.4,21.1c0.1,0.7-0.1,1.4-0.6,1.9c-1,1.1-2.7,1.4-4.1,0.8 c-0.9-0.4-1.6-1.1-1.8-2.1l-4.4-22.4l-2.1-22.6c-0.1-1-0.8-1.7-1.8-1.8c-1-0.1-1.8,0.5-2.1,1.4L36.5,98c-0.1,0.2-0.1,0.4-0.1,0.6 v22.7c0,1.5-1.4,2.7-3.2,2.7c-1.8,0-3.2-1.2-3.2-2.7V98.8l4-17.7c0-0.1,0-0.3,0-0.4v-34c0-0.8-0.4-1.4-1.1-1.8L5.5,31 C4.6,30.5,4,29.6,4,28.7c0-0.9,0.5-1.7,1.3-2.2c0.9-0.6,2-0.6,3-0.2L30.4,37c0.4,0.2,0.8,0.4,1.2,0.5c-2-1.8-3.5-4-4.5-6.6L10,22.7 c-2.2-1.1-4.8-0.9-6.9,0.4c-2,1.2-3.1,3.3-3.1,5.6c0,2.5,1.4,4.7,3.7,5.9L30,47.8v32.6l-4,17.7c0,0.1,0,0.3,0,0.4v22.7 c0,3.7,3.2,6.7,7.2,6.7s7.2-3,7.2-6.7V98.9l3.2-11.2l1.1,12.1c0,0.1,0,0.1,0,0.2l4.4,22.5c0.6,3.2,3.6,5.6,7.1,5.6 c2.2,0,4.3-0.9,5.7-2.5c1.3-1.5,1.8-3.3,1.5-5.2l-3.3-21L59,80.6V54.6l5,2.6v13c0,3.7,3.1,6.7,7,6.7S78,73.9,78,70.2z" fill="inherit"/></g><g id="change1_6"><path d="M43,38c7.2,0,13-5.8,13-13s-5.8-13-13-13s-13,5.8-13,13S35.8,38,43,38z M43,16c5,0,9,4,9,9s-4,9-9,9s-9-4-9-9S38,16,43,16z" fill="inherit"/></g></svg>