<?xml version="1.0" encoding="UTF-8" standalone="no"?><svg xmlns="http://www.w3.org/2000/svg" xmlns:xlink="http://www.w3.org/1999/xlink" fill="#ffffff" height="248.3" preserveAspectRatio="xMidYMid meet" version="1" viewBox="-1.9 0.0 275.2 248.3" width="275.2" zoomAndPan="magnify"><g id="change1_1"><path d="M71.129,62.082c-0.58-0.139-1.182-0.221-1.805-0.221H30.689c-0.167,0-0.33,0.015-0.494,0.025 c-2.818,0.068-8.294,0.977-13.899,6.244C3.404,80.244-1.88,107.808,0.591,150.056c0.249,4.252,3.774,7.534,7.979,7.533 c0.157,0,0.316-0.004,0.475-0.014c4.411-0.258,7.777-4.043,7.519-8.453c-2.056-35.14,1.926-53.871,6.397-63.168v33.089v18.939v98 c0,6.83,5.537,12.363,12.363,12.363c6.828,0,12.365-5.533,12.365-12.363v-90.271h4.635v90.271c0,6.83,5.537,12.363,12.363,12.363 c6.828,0,12.365-5.533,12.365-12.363v-98v-18.939V83.711c11.215,7.6,30.249,18.678,62.034,18.677c0.643,0,1.296-0.005,1.949-0.014 c4.418-0.062,7.949-3.694,7.886-8.112c-0.063-4.417-3.652-7.973-8.112-7.886c-31.331,0.405-48.05-11.196-58.028-18.15 C78.314,65.113,74.895,62.739,71.129,62.082z M46.205,70.045h3.801h3.799l1.9,7.5l-0.289,0.456 c-1.566,1.306-3.484,1.96-5.412,1.962c-1.928-0.002-3.843-0.655-5.408-1.958l-0.292-0.46L46.205,70.045z M50.005,134.545l-9.5-12 l5.471-40.321c1.297,0.486,2.662,0.74,4.027,0.739h0.002c0,0,0.004,0,0.006,0c1.363,0,2.725-0.254,4.021-0.74l5.473,40.322 L50.005,134.545z" fill="inherit"/><path d="M27.161,33.663c0,12.427,10.074,22.5,22.5,22.5c12.428,0,22.5-10.073,22.5-22.5c0-1.026-0.075-2.035-0.208-3.025H27.369 C27.236,31.629,27.161,32.637,27.161,33.663z" fill="inherit"/><path d="M23.457,25.421c0,1.668,1.35,3.018,3.016,3.018h0.402h46.262h0.4c1.668,0,3.018-1.35,3.018-3.018 c0-1.666-1.35-3.019-3.018-3.019h-0.416c-0.198-7.686-4.146-14.436-10.08-18.496v1.841c0,1.318-1.068,2.389-2.387,2.389 c-1.318,0-2.389-1.07-2.389-2.389V1.403C56.41,0.693,54.442,0.21,52.392,0v5.747c0,1.318-1.068,2.389-2.387,2.389 c-1.32,0-2.389-1.07-2.389-2.389V0c-2.05,0.21-4.018,0.693-5.873,1.403v4.344c0,1.318-1.068,2.389-2.389,2.389 c-1.318,0-2.387-1.07-2.387-2.389v-1.84c-5.933,4.06-9.881,10.81-10.079,18.495h-0.418C24.807,22.402,23.457,23.755,23.457,25.421z" fill="inherit"/><path d="M120.435,116.967v13.815h-14.802v54.133H86.319v4.784h167.45v-4.784h-7.731v-6.346c12.818,2.296,22.707,5.712,22.909,8.262 c0.012,0.148,0.07,3.691-18.907,9.005c-9.771,2.735-19.714,5.292-29.33,7.765c-37.709,9.694-51.929,13.952-51.609,20.248 c0.185,3.655,4.599,6.739,25.539,9.912l0.6-3.955c-20.534-3.111-22.045-5.893-22.146-6.122c0.083-0.388,1.158-2.536,14.157-6.748 c9.003-2.918,21.366-6.097,34.455-9.461c9.636-2.478,19.601-5.04,29.412-7.787c15.467-4.33,22.195-8.394,21.816-13.173 c-0.212-2.682-2.437-6.683-19.228-10.455c-2.654-0.596-5.284-1.101-7.668-1.517v-43.761h-16.696l0-0.002 c0-0.615-0.027-1.224-0.066-1.83l5.586-0.985l-1.067-6.052l-5.581,0.984c-0.344-1.181-0.762-2.33-1.252-3.441l4.907-2.833 l-3.073-5.322l-4.91,2.835c-0.724-0.985-1.513-1.919-2.357-2.801l3.647-4.347l-4.707-3.95l-3.642,4.341 c-1.012-0.677-2.072-1.288-3.171-1.832l1.938-5.324l-5.774-2.102l-1.938,5.325c-1.175-0.286-2.378-0.501-3.606-0.634v-5.668h-6.145 v5.668c-1.228,0.133-2.431,0.348-3.606,0.634l-1.938-5.325l-5.774,2.102l1.938,5.324c-1.099,0.544-2.159,1.154-3.171,1.832 l-3.642-4.341l-4.707,3.95l3.647,4.347c-0.844,0.882-1.633,1.815-2.357,2.801l-4.91-2.835l-3.073,5.322l4.907,2.833 c-0.489,1.111-0.908,2.26-1.252,3.441l-5.581-0.984l-1.067,6.052l5.586,0.985c-0.039,0.606-0.066,1.215-0.066,1.83l0,0.002h-15.609 v-13.815H120.435z M123.435,119.967h31.021v10.815h-31.021V119.967z M112.012,144.781h17.72v3.544h-17.72V144.781z M133.984,144.781h7.088v3.544h-7.088V144.781z M214.564,168.702c2.422,0,4.386,1.964,4.386,4.386c0,2.422-1.964,4.386-4.386,4.386 c-2.422,0-4.386-1.964-4.386-4.386C210.178,170.666,212.142,168.702,214.564,168.702z M227.986,168.702 c2.422,0,4.386,1.964,4.386,4.386c0,2.422-1.963,4.386-4.386,4.386c-2.422,0-4.386-1.964-4.386-4.386 C223.601,170.666,225.564,168.702,227.986,168.702z M181.151,130.781c0-11.075,8.978-20.052,20.052-20.052 c11.075,0,20.052,8.978,20.052,20.052l0,0.002h-13.341l0-0.002c0-3.706-3.005-6.711-6.711-6.711s-6.711,3.005-6.711,6.711l0,0.002 h-13.341L181.151,130.781z M196.357,136.807v3.544h-84.345v-3.544H196.357z" fill="inherit"/></g></svg>