<?xml version="1.0" encoding="UTF-8" standalone="no"?><svg xmlns="http://www.w3.org/2000/svg" xmlns:xlink="http://www.w3.org/1999/xlink" fill="#000000" height="60" preserveAspectRatio="xMidYMid meet" version="1" viewBox="1.9 2.0 60.1 60.0" width="60.1" zoomAndPan="magnify"><g fill="#ffffff" id="change1_1"><path d="M 56 51 C 53.792969 51 52 49.207031 52 47 C 52 44.792969 53.792969 43 56 43 C 58.207031 43 60 44.792969 60 47 C 60 49.207031 58.207031 51 56 51 Z M 51.539062 51 L 12.460938 51 C 13.414062 49.9375 14 48.535156 14 47 C 14 45.464844 13.414062 44.0625 12.460938 43 L 51.539062 43 C 50.585938 44.0625 50 45.464844 50 47 C 50 48.535156 50.585938 49.9375 51.539062 51 Z M 8 51 C 5.792969 51 4 49.207031 4 47 C 4 44.792969 5.792969 43 8 43 C 10.207031 43 12 44.792969 12 47 C 12 49.207031 10.207031 51 8 51 Z M 28 33 L 36 33 L 36 41 L 28 41 Z M 47 33 L 55 33 L 55 41 L 47 41 Z M 57 41.089844 L 57 32 C 57 31.449219 56.550781 31 56 31 L 46 31 C 45.449219 31 45 31.449219 45 32 L 45 41 L 38 41 L 38 32 C 38 31.449219 37.550781 31 37 31 L 27 31 C 26.449219 31 26 31.449219 26 32 L 26 41 L 8 41 C 4.691406 41 2 43.691406 2 47 C 2 49.96875 4.167969 52.429688 7 52.910156 L 7 60 L 5 60 L 5 62 L 11 62 L 11 60 L 9 60 L 9 53 L 55 53 L 55 60 L 53 60 L 53 62 L 59 62 L 59 60 L 57 60 L 57 52.910156 C 59.832031 52.429688 62 49.96875 62 47 C 62 44.03125 59.832031 41.570312 57 41.089844" fill="inherit"/><path d="M 8 45 C 6.898438 45 6 45.898438 6 47 C 6 48.101562 6.898438 49 8 49 C 9.101562 49 10 48.101562 10 47 C 10 45.898438 9.101562 45 8 45" fill="inherit"/><path d="M 18 45 C 16.898438 45 16 45.898438 16 47 C 16 48.101562 16.898438 49 18 49 C 19.101562 49 20 48.101562 20 47 C 20 45.898438 19.101562 45 18 45" fill="inherit"/><path d="M 25 45 C 23.898438 45 23 45.898438 23 47 C 23 48.101562 23.898438 49 25 49 C 26.101562 49 27 48.101562 27 47 C 27 45.898438 26.101562 45 25 45" fill="inherit"/><path d="M 32 45 C 30.898438 45 30 45.898438 30 47 C 30 48.101562 30.898438 49 32 49 C 33.101562 49 34 48.101562 34 47 C 34 45.898438 33.101562 45 32 45" fill="inherit"/><path d="M 39 45 C 37.898438 45 37 45.898438 37 47 C 37 48.101562 37.898438 49 39 49 C 40.101562 49 41 48.101562 41 47 C 41 45.898438 40.101562 45 39 45" fill="inherit"/><path d="M 46 45 C 44.898438 45 44 45.898438 44 47 C 44 48.101562 44.898438 49 46 49 C 47.101562 49 48 48.101562 48 47 C 48 45.898438 47.101562 45 46 45" fill="inherit"/><path d="M 56 45 C 54.898438 45 54 45.898438 54 47 C 54 48.101562 54.898438 49 56 49 C 57.101562 49 58 48.101562 58 47 C 58 45.898438 57.101562 45 56 45" fill="inherit"/><path d="M 17 37 L 9 37 L 9 29 L 17 29 Z M 8 27 C 7.449219 27 7 27.449219 7 28 L 7 38 C 7 38.550781 7.449219 39 8 39 L 18 39 C 18.550781 39 19 38.550781 19 38 L 19 28 C 19 27.449219 18.550781 27 18 27 L 8 27" fill="inherit"/><path d="M 17 6 L 17 8 L 9 8 L 9 6 Z M 17.484375 18 L 21.054688 23 L 4.945312 23 L 8.515625 18 Z M 9 14 L 17 14 L 17 16 L 9 16 Z M 9 10 L 17 10 L 17 12 L 9 12 Z M 7 2 L 7 16.679688 L 2.1875 23.417969 C 1.96875 23.722656 1.9375 24.125 2.109375 24.457031 C 2.28125 24.789062 2.625 25 3 25 L 23 25 C 23.375 25 23.71875 24.789062 23.890625 24.457031 C 24.058594 24.125 24.03125 23.722656 23.8125 23.417969 L 19 16.679688 L 19 2 L 17 2 L 17 4 L 9 4 L 9 2 L 7 2" fill="inherit"/></g></svg>