<?xml version="1.0" encoding="UTF-8" standalone="no"?><svg xmlns="http://www.w3.org/2000/svg" xmlns:xlink="http://www.w3.org/1999/xlink" fill="#ffffff" height="31" preserveAspectRatio="xMidYMid meet" version="1" viewBox="0.5 0.5 31.0 31.0" width="31" zoomAndPan="magnify"><g id="change1_1"><path d="M30.40381,19.82471c-0.22949-0.36768-0.60693-0.61816-1.03467-0.68652l-9.45801-1.51758 c-0.4458-0.07373-0.89551,0.05957-1.23193,0.35742c-0.75049,0.66406-1.35352,1.44385-1.78906,2.3042 c-1.06592-0.60742-2.04736-1.35791-2.93115-2.24121c-0.8833-0.88379-1.63379-1.86523-2.24121-2.93115 c0.86035-0.43555,1.64014-1.03857,2.3042-1.78906c0.29736-0.33643,0.42871-0.78857,0.35742-1.23193l-1.51758-9.45801 c-0.06836-0.42773-0.31885-0.80518-0.68652-1.03467c-0.67627-0.42188-1.4292-0.72119-2.15527-0.86963 C9.45801,0.57617,8.85352,0.5,8.22461,0.5C3.96533,0.5,0.5,3.96533,0.5,8.22461C0.5,21.05859,10.94141,31.5,23.77539,31.5 c4.25928,0,7.72461-3.46533,7.72461-7.72461c0-0.62891-0.07617-1.2334-0.20703-1.7124 C31.125,21.25391,30.82568,20.50098,30.40381,19.82471z M23.77539,28.5C12.5957,28.5,3.5,19.4043,3.5,8.22461 C3.5,5.61963,5.61963,3.5,8.22461,3.5c0.36719,0,0.71045,0.04199,1.10303,0.14453c0.24463,0.05078,0.47412,0.11963,0.69189,0.20752 l1.27637,7.9541c-0.57959,0.49854-1.25586,0.84131-1.98633,1.00244c-0.43604,0.09619-0.80615,0.38086-1.01074,0.77783 c-0.2041,0.39648-0.22168,0.86328-0.04688,1.27393c0.8418,1.98047,2.04834,3.76416,3.58594,5.30176 s3.32129,2.74414,5.30176,3.58594c0.41064,0.17432,0.87695,0.15674,1.27393-0.04688 c0.39697-0.20459,0.68164-0.57471,0.77783-1.01074c0.16113-0.73047,0.50391-1.40674,1.00244-1.98633l7.95264,1.27637 c0.0918,0.22998,0.16699,0.48291,0.22852,0.7749c0.08301,0.30957,0.125,0.65283,0.125,1.02002 C28.5,26.38037,26.38037,28.5,23.77539,28.5z" fill="inherit"/></g></svg>