<?xml version="1.0" encoding="UTF-8" standalone="no"?><svg xmlns="http://www.w3.org/2000/svg" xmlns:xlink="http://www.w3.org/1999/xlink" fill="#000000" height="192.1" preserveAspectRatio="xMidYMid meet" version="1.1" viewBox="102.1 116.6 221.0 192.1" width="221" zoomAndPan="magnify">
 <g id="surface1">
  <g id="change1_1"><path d="m288.77 298.46c0 5.62-4.55 10.17-10.16 10.17h-166.35c-5.61 0-10.16-4.55-10.16-10.17v-144.38c0-5.61 4.55-10.16 10.16-10.16h166.35c5.61 0 10.16 4.55 10.16 10.16v144.38" fill="#aac7d4"/></g>
  <g id="change2_1"><path d="m288.77 287.58c0 5.61-4.55 10.16-10.16 10.16h-166.35c-5.61 0-10.16-4.55-10.16-10.16v-144.39c0-5.61 4.55-10.16 10.16-10.16h166.35c5.61 0 10.16 4.55 10.16 10.16v144.39" fill="#e6ecee"/></g>
  <g id="change3_1"><path d="m288.77 182.44v-39.25c0-5.61-4.55-10.16-10.16-10.16h-166.35c-5.61 0-10.16 4.55-10.16 10.16v39.25h186.67" fill="#31a9ba"/></g>
  <g id="change4_1"><path d="m140.04 208.82h-20.18v-14.05h20.18v14.05" fill="#a8e1e1"/></g>
  <g id="change4_2"><path d="m172.78 208.82h-20.17v-14.05h20.17v14.05" fill="#a8e1e1"/></g>
  <g id="change4_3"><path d="m205.52 208.82h-20.17v-14.05h20.17v14.05" fill="#a8e1e1"/></g>
  <g id="change4_4"><path d="m238.27 208.82h-20.18v-14.05h20.18v14.05" fill="#a8e1e1"/></g>
  <g id="change4_5"><path d="m271.01 208.82h-20.18v-14.05h20.18v14.05" fill="#a8e1e1"/></g>
  <g id="change4_6"><path d="m140.04 231.95h-20.18v-14.05h20.18v14.05" fill="#a8e1e1"/></g>
  <g id="change4_7"><path d="m172.78 231.95h-20.17v-14.05h20.17v14.05" fill="#a8e1e1"/></g>
  <g id="change3_2"><path d="m205.52 231.95h-20.17v-14.05h20.17v14.05" fill="#31a9ba"/></g>
  <g id="change4_8"><path d="m238.27 231.95h-20.18v-14.05h20.18v14.05" fill="#a8e1e1"/></g>
  <g id="change4_9"><path d="m271.01 231.95h-20.18v-14.05h20.18v14.05" fill="#a8e1e1"/></g>
  <g id="change4_10"><path d="m140.04 255.09h-20.18v-14.05h20.18v14.05" fill="#a8e1e1"/></g>
  <g id="change4_11"><path d="m172.78 255.09h-20.17v-14.05h20.17v14.05" fill="#a8e1e1"/></g>
  <g id="change4_12"><path d="m205.52 255.09h-20.17v-14.05h20.17v14.05" fill="#a8e1e1"/></g>
  <g id="change4_13"><path d="m238.27 255.09h-20.18v-14.05h20.18v14.05" fill="#a8e1e1"/></g>
  <g id="change4_14"><path d="m271.01 255.09h-20.18v-14.05h20.18v14.05" fill="#a8e1e1"/></g>
  <g id="change4_15"><path d="m140.04 278.22h-20.18v-14.05h20.18v14.05" fill="#a8e1e1"/></g>
  <g id="change4_16"><path d="m172.78 278.22h-20.17v-14.05h20.17v14.05" fill="#a8e1e1"/></g>
  <g id="change4_17"><path d="m205.52 278.22h-20.17v-14.05h20.17v14.05" fill="#a8e1e1"/></g>
  <g id="change4_18"><path d="m238.27 278.22h-20.18v-14.05h20.18v14.05" fill="#a8e1e1"/></g>
  <g id="change4_19"><path d="m271.01 278.22h-20.18v-14.05h20.18v14.05" fill="#a8e1e1"/></g>
  <g id="change1_2"><path d="m144.91 152.23c0 4.61-3.73 8.34-8.34 8.34-4.6 0-8.33-3.73-8.33-8.34v-27.33c0-4.6 3.73-8.33 8.33-8.33 4.61 0 8.34 3.73 8.34 8.33v27.33" fill="#aac7d4"/></g>
  <g id="change1_3"><path d="m262.63 152.23c0 4.61-3.73 8.34-8.33 8.34s-8.34-3.73-8.34-8.34v-27.33c0-4.6 3.74-8.33 8.34-8.33s8.33 3.73 8.33 8.33v27.33" fill="#aac7d4"/></g>
  <g id="change5_1"><path d="m323.1 257.72c0 18.96-15.37 34.33-34.33 34.33s-34.33-15.37-34.33-34.33 15.37-34.33 34.33-34.33 34.33 15.37 34.33 34.33" fill="#449da1"/></g>
  <path d="m2671.1 1678.3l146.2-143.1 287.1 279.3" fill="none" stroke="#ffffff" stroke-miterlimit="10" stroke-width="80" transform="matrix(.1 0 0 -.1 0 425.2)"/>
 </g>
</svg>