<?xml version="1.0" encoding="UTF-8" standalone="no"?><svg xmlns="http://www.w3.org/2000/svg" xmlns:xlink="http://www.w3.org/1999/xlink" fill="#268d92" height="409.9" preserveAspectRatio="xMidYMid meet" version="1" viewBox="0.0 0.0 287.4 409.9" width="287.4" zoomAndPan="magnify"><defs><clipPath id="a"><path d="M 0 0 L 159 0 L 159 409.890625 L 0 409.890625 Z M 0 0"/></clipPath><clipPath id="b"><path d="M 226 108 L 287.390625 108 L 287.390625 316 L 226 316 Z M 226 108"/></clipPath></defs><g><g clip-path="url(#a)" id="change1_1"><path d="M 95.121094 67.160156 C 98.808594 83.765625 95.140625 90.417969 91.257812 97.464844 C 87.167969 104.882812 82.074219 114.117188 89.128906 128.8125 C 93.8125 138.570312 103.359375 152.867188 113.480469 168.019531 C 122.542969 181.589844 131.90625 195.609375 137.238281 205.664062 C 123.925781 210.488281 110.539062 212.15625 106.707031 212.554688 C 102.769531 212.964844 99.332031 215.300781 97.507812 218.8125 C 95.679688 222.320312 95.742188 226.484375 97.667969 229.9375 C 105.753906 244.46875 109.988281 255.308594 110.988281 259.972656 C 108.625 261.304688 104.90625 262.921875 102.683594 263.886719 C 94.40625 267.484375 86.589844 270.878906 86.855469 279.65625 C 86.929688 282.085938 87.957031 288.050781 95.878906 290.929688 C 98.757812 291.976562 101.621094 292.8125 104.4375 293.636719 C 104.59375 293.683594 104.753906 293.730469 104.914062 293.777344 C 100.988281 301.265625 95.234375 315.597656 99.355469 334.152344 C 101.613281 344.316406 100.296875 347.023438 99.839844 347.609375 C 98.976562 348.714844 95.125 351.34375 77.996094 351.832031 C 41.15625 352.886719 17.007812 361.570312 6.230469 377.648438 C 1.9375 384.042969 -0.128906 391.296875 0.0078125 399.324219 C 7.515625 403.296875 15.285156 406.828125 23.292969 409.890625 C 20.230469 401.136719 20.375 394.417969 23.742188 389.394531 C 30.222656 379.730469 50.21875 373.722656 78.597656 372.914062 C 93.613281 372.484375 108.59375 370.691406 116.476562 360.570312 C 123.617188 351.402344 122.082031 339.191406 119.945312 329.578125 C 116.671875 314.839844 122.660156 304.898438 126.242188 298.957031 C 127.265625 297.261719 128.148438 295.800781 128.761719 294.257812 C 130.101562 290.910156 129.980469 287.304688 128.417969 284.097656 C 127.023438 281.226562 124.796875 279.257812 122.261719 277.796875 C 124.652344 276.347656 126.878906 274.679688 128.601562 272.714844 C 133.964844 266.585938 133.457031 257.292969 126.910156 241.636719 C 125.601562 238.503906 124.050781 235.113281 122.28125 231.507812 C 128.730469 230.257812 136.945312 228.265625 145.253906 225.1875 C 150.765625 223.144531 155.136719 218.832031 157.242188 213.355469 C 159.347656 207.890625 158.996094 201.773438 156.285156 196.578125 C 150.492188 185.46875 140.597656 170.648438 131.003906 156.285156 C 121.746094 142.421875 112.175781 128.089844 108.140625 119.6875 C 105.789062 114.785156 106.46875 113.558594 109.726562 107.644531 C 114.265625 99.414062 121.128906 86.972656 115.707031 62.585938 C 111.164062 42.132812 101.289062 18.472656 92.597656 0.00390625 C 84.976562 0.222656 77.457031 0.855469 70.054688 1.863281 C 78.769531 19.734375 90.410156 45.96875 95.121094 67.160156"/></g><g id="change1_3"><path d="M 183.777344 211.886719 C 183.777344 221.105469 180.675781 229.960938 174.800781 237.492188 C 173.46875 239.203125 172.730469 241.34375 172.730469 243.519531 C 172.730469 245.933594 173.613281 248.261719 175.21875 250.074219 L 175.390625 250.265625 C 177.265625 252.390625 179.96875 253.609375 182.804688 253.609375 C 182.90625 253.609375 183.011719 253.605469 183.109375 253.601562 C 186.03125 253.515625 188.738281 252.144531 190.53125 249.847656 C 193.484375 246.0625 196.003906 241.96875 198.011719 237.675781 C 201.84375 229.496094 203.785156 220.820312 203.785156 211.886719 C 203.785156 202.953125 201.84375 194.277344 198.011719 186.101562 C 195.890625 181.570312 193.210938 177.269531 190.046875 173.308594 C 188.238281 171.046875 185.535156 169.703125 182.632812 169.621094 L 182.351562 169.617188 C 179.550781 169.617188 176.867188 170.8125 174.996094 172.898438 L 174.824219 173.089844 C 173.203125 174.898438 172.3125 177.230469 172.3125 179.660156 C 172.3125 181.910156 173.089844 184.125 174.5 185.898438 C 180.570312 193.515625 183.777344 202.503906 183.777344 211.886719"/></g><g id="change1_4"><path d="M 226.097656 211.882812 C 226.097656 232.640625 217.921875 252.503906 203.074219 267.804688 C 201.277344 269.65625 200.285156 272.101562 200.285156 274.683594 C 200.285156 277.09375 201.164062 279.414062 202.761719 281.21875 L 202.945312 281.425781 C 204.753906 283.472656 207.359375 284.683594 210.09375 284.75 L 210.328125 284.753906 C 212.984375 284.753906 215.570312 283.660156 217.429688 281.757812 C 225.609375 273.371094 232.207031 263.792969 237.035156 253.285156 C 243.050781 240.191406 246.101562 226.265625 246.101562 211.882812 C 246.101562 197.5 243.050781 183.574219 237.035156 170.484375 C 232.148438 159.851562 225.449219 150.171875 217.128906 141.710938 C 215.273438 139.820312 212.691406 138.738281 210.039062 138.738281 L 209.824219 138.742188 C 207.074219 138.804688 204.550781 139.964844 202.714844 142.011719 L 202.53125 142.21875 C 200.902344 144.027344 200.007812 146.367188 200.007812 148.804688 C 200.007812 151.402344 201.007812 153.859375 202.828125 155.714844 C 217.832031 171.050781 226.097656 190.996094 226.097656 211.882812"/></g><g clip-path="url(#b)" id="change1_2"><path d="M 267.039062 211.886719 C 267.039062 245.054688 253.625 276.320312 230.234375 297.667969 C 228.203125 299.519531 227.039062 302.167969 227.039062 304.929688 C 227.039062 307.339844 227.921875 309.664062 229.519531 311.472656 L 229.789062 311.78125 C 231.554688 313.773438 233.988281 314.953125 236.652344 315.097656 C 236.835938 315.109375 237.019531 315.113281 237.203125 315.113281 C 239.652344 315.113281 242.007812 314.203125 243.828125 312.546875 C 257.738281 299.914062 268.640625 284.464844 276.234375 266.632812 C 283.53125 249.488281 287.390625 230.558594 287.390625 211.886719 C 287.390625 193.195312 283.527344 174.25 276.214844 157.09375 C 268.605469 139.246094 257.683594 123.789062 243.75 111.152344 C 241.800781 109.386719 239.277344 108.472656 236.601562 108.605469 C 233.960938 108.738281 231.53125 109.902344 229.765625 111.871094 L 229.488281 112.175781 C 227.859375 113.992188 226.960938 116.335938 226.960938 118.773438 C 226.960938 121.535156 228.132812 124.1875 230.167969 126.042969 C 253.601562 147.394531 267.039062 178.683594 267.039062 211.886719"/></g></g></svg>