<?xml version="1.0" encoding="UTF-8" standalone="no"?><svg xmlns="http://www.w3.org/2000/svg" xmlns:xlink="http://www.w3.org/1999/xlink" fill="#000000" height="60" preserveAspectRatio="xMidYMid meet" version="1" viewBox="9.0 2.0 48.0 60.0" width="48" zoomAndPan="magnify"><g fill="#199daf" id="change1_1"><path d="M 22 24 C 22.550781 24 23 23.550781 23 23 C 23 22.449219 22.550781 22 22 22 L 11 22 L 11 14 L 26 14 C 26.550781 14 27 13.550781 27 13 C 27 12.449219 26.550781 12 26 12 L 11 12 L 11 4.992188 C 11 4.445312 11.445312 4 11.992188 4 L 30.007812 4 C 30.554688 4 31 4.445312 31 4.992188 L 31 13 C 31 13.550781 31.449219 14 32 14 C 32.550781 14 33 13.550781 33 13 L 33 4.992188 C 33 3.34375 31.65625 2 30.007812 2 L 11.992188 2 C 10.34375 2 9 3.34375 9 4.992188 L 9 47.007812 C 9 47.558594 9.449219 48.007812 10 48.007812 C 10.550781 48.007812 11 47.558594 11 47.007812 L 11 24 L 22 24" fill="inherit"/><path d="M 14 17 C 13.449219 17 13 17.449219 13 18 C 13 18.550781 13.449219 19 14 19 L 17 19 C 17.550781 19 18 18.550781 18 18 C 18 17.449219 17.550781 17 17 17 L 14 17" fill="inherit"/><path d="M 20 18 C 20 18.550781 20.449219 19 21 19 C 21.550781 19 22 18.550781 22 18 C 22 17.449219 21.550781 17 21 17 C 20.449219 17 20 17.449219 20 18" fill="inherit"/><path d="M 22 28 L 16 28 C 15.449219 28 15 28.449219 15 29 C 15 29.550781 15.449219 30 16 30 L 22 30 C 22.550781 30 23 29.550781 23 29 C 23 28.449219 22.550781 28 22 28" fill="inherit"/><path d="M 23 33 C 23 32.449219 22.550781 32 22 32 L 14 32 C 13.449219 32 13 32.449219 13 33 C 13 33.550781 13.449219 34 14 34 L 22 34 C 22.550781 34 23 33.550781 23 33" fill="inherit"/><path d="M 14 36 C 13.449219 36 13 36.449219 13 37 C 13 37.550781 13.449219 38 14 38 L 18 38 C 18.550781 38 19 37.550781 19 37 C 19 36.449219 18.550781 36 18 36 L 14 36" fill="inherit"/><path d="M 54.007812 16 L 50 16 C 49.449219 16 49 16.449219 49 17 C 49 17.550781 49.449219 18 50 18 L 54.007812 18 C 54.554688 18 55 18.445312 55 18.992188 L 55 24 L 50 24 C 49.449219 24 49 24.449219 49 25 C 49 25.550781 49.449219 26 50 26 L 55 26 L 55 40 L 54 40 C 53.449219 40 53 40.449219 53 41 C 53 41.550781 53.449219 42 54 42 L 55 42 L 55 46.007812 C 55 46.554688 54.554688 47 54.007812 47 L 54 47 C 53.449219 47 53.003906 47.449219 53.003906 48 C 53.003906 48.550781 53.457031 49 54.007812 49 C 55.65625 49 57 47.65625 57 46.007812 L 57 18.992188 C 57 17.34375 55.65625 16 54.007812 16" fill="inherit"/><path d="M 27.992188 18 L 32 18 C 32.550781 18 33 17.550781 33 17 C 33 16.449219 32.550781 16 32 16 L 27.992188 16 C 26.34375 16 25 17.34375 25 18.992188 L 25 37 C 25 37.550781 25.449219 38 26 38 C 26.550781 38 27 37.550781 27 37 L 27 26 L 32 26 C 32.550781 26 33 25.550781 33 25 C 33 24.449219 32.550781 24 32 24 L 27 24 L 27 18.992188 C 27 18.445312 27.445312 18 27.992188 18" fill="inherit"/><path d="M 15 47 L 15 46 C 15 43.792969 16.792969 42 19 42 L 32 42 C 34.207031 42 36 43.792969 36 46 L 36 47 Z M 32 40 L 19 40 C 15.691406 40 13 42.691406 13 46 L 13 56 C 13 59.308594 15.691406 62 19 62 L 20.25 62 C 20.800781 62 21.25 61.550781 21.25 61 C 21.25 60.449219 20.800781 60 20.25 60 L 19 60 C 16.792969 60 15 58.207031 15 56 L 15 49 L 36 49 L 36 56 C 36 58.207031 34.207031 60 32 60 L 26 60 C 25.449219 60 25 60.449219 25 61 C 25 61.550781 25.449219 62 26 62 L 32 62 C 35.308594 62 38 59.308594 38 56 L 38 46 C 38 42.691406 35.308594 40 32 40" fill="inherit"/><path d="M 33 53 C 33.550781 53 34 52.550781 34 52 C 34 51.449219 33.550781 51 33 51 L 18 51 C 17.449219 51 17 51.449219 17 52 L 17 57 C 17 57.550781 17.449219 58 18 58 L 33 58 C 33.550781 58 34 57.550781 34 57 C 34 56.449219 33.550781 56 33 56 L 19 56 L 19 53 L 33 53" fill="inherit"/><path d="M 42.382812 39.078125 C 42.007812 38.917969 41.578125 39.007812 41.292969 39.292969 L 39.292969 41.292969 C 38.902344 41.683594 38.902344 42.316406 39.292969 42.707031 C 39.683594 43.097656 40.316406 43.097656 40.707031 42.707031 L 41 42.414062 L 41 45 C 41 45.019531 41.011719 45.035156 41.011719 45.050781 C 41.015625 45.121094 41.03125 45.1875 41.050781 45.257812 C 41.066406 45.316406 41.078125 45.375 41.105469 45.429688 C 41.132812 45.484375 41.171875 45.53125 41.207031 45.582031 C 41.25 45.636719 41.289062 45.691406 41.339844 45.738281 C 41.355469 45.753906 41.359375 45.769531 41.375 45.78125 C 41.421875 45.820312 41.476562 45.835938 41.523438 45.863281 C 41.5625 45.886719 41.597656 45.910156 41.640625 45.925781 C 41.757812 45.972656 41.878906 46 42 46 C 42.144531 46 42.28125 45.964844 42.40625 45.910156 C 42.441406 45.894531 42.464844 45.867188 42.496094 45.847656 C 42.589844 45.792969 42.671875 45.734375 42.742188 45.65625 C 42.753906 45.644531 42.769531 45.640625 42.78125 45.625 L 45 42.851562 L 45 45 C 45 45.550781 45.449219 46 46 46 C 46.550781 46 47 45.550781 47 45 L 47 40 C 47 39.574219 46.730469 39.199219 46.332031 39.054688 C 45.929688 38.914062 45.484375 39.042969 45.21875 39.375 L 43 42.148438 L 43 40 C 43 39.59375 42.757812 39.230469 42.382812 39.078125" fill="inherit"/><path d="M 46 48 L 41 48 C 40.449219 48 40 48.449219 40 49 C 40 49.550781 40.449219 50 41 50 L 46 50 C 46.550781 50 47 49.550781 47 49 C 47 48.449219 46.550781 48 46 48" fill="inherit"/><path d="M 41 18 C 41.550781 18 42 17.550781 42 17 C 42 16.449219 41.550781 16 41 16 C 40.449219 16 40 16.449219 40 17 C 40 17.550781 40.449219 18 41 18" fill="inherit"/><path d="M 37 28 L 37 22 L 45 22 L 45 28 Z M 38 14 L 44 14 C 44.550781 14 45 14.449219 45 15 L 45 20 L 37 20 L 37 15 C 37 14.449219 37.449219 14 38 14 Z M 48 28 L 47 28 L 47 15 C 47 13.34375 45.65625 12 44 12 L 38 12 C 36.34375 12 35 13.34375 35 15 L 35 28 L 34 28 C 32.34375 28 31 29.34375 31 31 L 31 37 C 31 37.550781 31.449219 38 32 38 C 32.550781 38 33 37.550781 33 37 L 33 36 L 45 36 C 45.550781 36 46 35.550781 46 35 C 46 34.449219 45.550781 34 45 34 L 33 34 L 33 31 C 33 30.449219 33.449219 30 34 30 L 48 30 C 48.550781 30 49 30.449219 49 31 L 49 52 L 41 52 C 40.449219 52 40 52.449219 40 53 C 40 53.550781 40.449219 54 41 54 L 49 54 L 49 59 C 49 59.550781 48.550781 60 48 60 L 40 60 C 39.449219 60 39 60.449219 39 61 C 39 61.550781 39.449219 62 40 62 L 48 62 C 49.65625 62 51 60.65625 51 59 L 51 31 C 51 29.34375 49.65625 28 48 28" fill="inherit"/></g></svg>