<?xml version="1.0" encoding="UTF-8" standalone="no"?><svg xmlns="http://www.w3.org/2000/svg" xmlns:xlink="http://www.w3.org/1999/xlink" fill="#000000" height="208" preserveAspectRatio="xMidYMid meet" version="1" viewBox="0.0 0.0 256.0 208.0" width="256" zoomAndPan="magnify"><g fill="#199daf" id="change1_1"><path d="M 68 0 C 65.789062 0 64 1.789062 64 4 L 64 184 L 4 184 C 1.792969 184 0 185.789062 0 188 C 0 190.210938 1.792969 192 4 192 L 72 192 L 72 4 C 72 1.789062 70.210938 0 68 0" fill="inherit"/><path d="M 228 200 C 216.972656 200 208 191.027344 208 180 C 208 168.972656 216.972656 160 228 160 C 239.027344 160 248 168.972656 248 180 C 248 191.027344 239.027344 200 228 200 Z M 228 152 C 212.535156 152 200 164.535156 200 180 C 200 195.464844 212.535156 208 228 208 C 243.464844 208 256 195.464844 256 180 C 256 164.535156 243.464844 152 228 152" fill="inherit"/><path d="M 141.9375 192 C 140.925781 194.847656 139.570312 197.53125 137.914062 200 L 198.085938 200 C 196.429688 197.53125 195.074219 194.847656 194.0625 192 L 141.9375 192" fill="inherit"/><path d="M 248 112 L 176 112 L 176 136 L 94.949219 136 L 180.28125 8 L 248 8 Z M 248 0 L 180.28125 0 C 177.605469 0 175.109375 1.335938 173.625 3.5625 L 81.34375 141.984375 C 80.46875 143.296875 80 144.84375 80 146.421875 L 80 157.40625 C 82.28125 154.585938 84.976562 152.109375 88 150.085938 L 88 146.421875 L 89.613281 144 L 184 144 L 184 120 L 248 120 L 248 150.085938 C 251.023438 152.109375 253.71875 154.585938 256 157.40625 L 256 8 C 256 3.582031 252.417969 0 248 0" fill="inherit"/><path d="M 108 200 C 96.972656 200 88 191.027344 88 180 C 88 168.972656 96.972656 160 108 160 C 119.027344 160 128 168.972656 128 180 C 128 191.027344 119.027344 200 108 200 Z M 108 152 C 92.535156 152 80 164.535156 80 180 C 80 195.464844 92.535156 208 108 208 C 123.464844 208 136 195.464844 136 180 C 136 164.535156 123.464844 152 108 152" fill="inherit"/><path d="M 188 104 L 220.003906 104 C 221.769531 104 223.386719 102.820312 223.863281 101.03125 L 239.863281 41.03125 C 240.433594 38.894531 239.164062 36.703125 237.03125 36.136719 C 234.902344 35.566406 232.703125 36.835938 232.136719 38.96875 L 216.925781 96 L 188 96 C 185.789062 96 184 97.789062 184 100 C 184 102.210938 185.789062 104 188 104" fill="inherit"/><path d="M 108 184 C 105.789062 184 104 182.210938 104 180 C 104 177.789062 105.789062 176 108 176 C 110.210938 176 112 177.789062 112 180 C 112 182.210938 110.210938 184 108 184 Z M 108 168 C 101.382812 168 96 173.382812 96 180 C 96 186.617188 101.382812 192 108 192 C 114.617188 192 120 186.617188 120 180 C 120 173.382812 114.617188 168 108 168" fill="inherit"/><path d="M 228 184 C 225.789062 184 224 182.210938 224 180 C 224 177.789062 225.789062 176 228 176 C 230.210938 176 232 177.789062 232 180 C 232 182.210938 230.210938 184 228 184 Z M 228 168 C 221.382812 168 216 173.382812 216 180 C 216 186.617188 221.382812 192 228 192 C 234.617188 192 240 186.617188 240 180 C 240 173.382812 234.617188 168 228 168" fill="inherit"/></g></svg>