<?xml version="1.0" encoding="UTF-8" standalone="no"?><svg xmlns="http://www.w3.org/2000/svg" xmlns:xlink="http://www.w3.org/1999/xlink" fill="#ffffff" height="512" preserveAspectRatio="xMidYMid meet" version="1" viewBox="0.0 0.0 512.0 512.0" width="512" zoomAndPan="magnify"><g id="change1_1"><path d="M 452 0 L 60 0 C 26.914062 0 0 26.914062 0 60 L 0 452 C 0 485.085938 26.914062 512 60 512 L 452 512 C 485.085938 512 512 485.085938 512 452 L 512 60 C 512 26.914062 485.085938 0 452 0 Z M 472 452 C 472 463.027344 463.027344 472 452 472 L 334 472 L 334 326 L 398.027344 326 L 405.488281 264 L 334 264 L 334 197 C 334 179.898438 346.898438 167 364 167 L 409 167 L 409 109 C 397.15625 107.328125 374.308594 105 364 105 C 340.675781 105 317.296875 114.839844 299.859375 131.992188 C 281.894531 149.664062 272 172.8125 272 197.175781 L 272 264 L 207 264 L 207 326 L 272 326 L 272 472 L 60 472 C 48.972656 472 40 463.027344 40 452 L 40 60 C 40 48.972656 48.972656 40 60 40 L 452 40 C 463.027344 40 472 48.972656 472 60 Z M 472 452" fill="inherit"/></g></svg>