<?xml version="1.0" encoding="UTF-8" standalone="no"?><svg xmlns="http://www.w3.org/2000/svg" xmlns:xlink="http://www.w3.org/1999/xlink" clip-rule="evenodd" fill="#e8bb14" fill-rule="evenodd" height="314.6" preserveAspectRatio="xMidYMid meet" stroke-linejoin="round" stroke-miterlimit="2" version="1" viewBox="0.0 0.0 1693.5 314.6" width="1693.5" zoomAndPan="magnify"><g><g><g id="change1_1"><path d="M2874,2733.62C2874,2627.04 2841.52,2540.5 2801.51,2540.5L1385.52,2540.5C1345.51,2540.5 1313.03,2627.04 1313.03,2733.62L1313.03,3119.88C1313.03,3226.46 1345.51,3313 1385.52,3313L2801.51,3313C2841.52,3313 2874,3226.46 2874,3119.88L2874,2733.62Z" fill="#ffffff" transform="matrix(1.08488 0 0 .4072 -1424.47 -1034.48)"/></g><g id="change2_1"><path d="M2297.24,3319.32C2301.23,3319.32 2305.22,3319.32 2309.2,3319.32C2310.3,3319.32 2311.19,3316.49 2311.19,3313C2311.19,3309.51 2310.3,3306.68 2309.2,3306.68C2305.22,3306.68 2301.23,3306.68 2297.24,3306.68C2296.14,3306.68 2295.24,3309.51 2295.24,3313C2295.24,3316.49 2296.14,3319.32 2297.24,3319.32ZM2369,3319.32L2380.96,3319.32C2382.06,3319.32 2382.95,3316.49 2382.95,3313C2382.95,3309.51 2382.06,3306.68 2380.96,3306.68L2369,3306.68C2367.9,3306.68 2367.01,3309.51 2367.01,3313C2367.01,3316.49 2367.9,3319.32 2369,3319.32ZM2345.08,3319.32L2357.04,3319.32C2358.14,3319.32 2359.03,3316.49 2359.03,3313C2359.03,3309.51 2358.14,3306.68 2357.04,3306.68L2345.08,3306.68C2343.98,3306.68 2343.09,3309.51 2343.09,3313C2343.09,3316.49 2343.98,3319.32 2345.08,3319.32ZM2321.16,3319.32C2325.16,3319.32 2329.14,3319.32 2333.12,3319.32C2334.22,3319.32 2335.11,3316.49 2335.11,3313C2335.11,3309.51 2334.22,3306.68 2333.12,3306.68C2329.14,3306.68 2325.16,3306.68 2321.16,3306.68C2320.06,3306.68 2319.16,3309.51 2319.16,3313C2319.16,3316.49 2320.06,3319.32 2321.16,3319.32ZM2464.68,3319.32C2468.68,3319.32 2472.67,3319.32 2476.63,3319.32C2477.73,3319.32 2478.63,3316.49 2478.63,3313C2478.63,3309.51 2477.73,3306.68 2476.63,3306.68C2472.67,3306.68 2468.68,3306.68 2464.68,3306.68C2463.58,3306.68 2462.68,3309.51 2462.68,3313C2462.68,3316.49 2463.58,3319.32 2464.68,3319.32ZM2440.76,3319.32L2452.72,3319.32C2453.82,3319.32 2454.71,3316.49 2454.71,3313C2454.71,3309.51 2453.82,3306.68 2452.72,3306.68L2440.76,3306.68C2439.66,3306.68 2438.76,3309.51 2438.76,3313C2438.76,3316.49 2439.66,3319.32 2440.76,3319.32ZM2416.84,3319.32C2420.84,3319.32 2424.83,3319.32 2428.8,3319.32C2429.89,3319.32 2430.79,3316.49 2430.79,3313C2430.79,3309.51 2429.89,3306.68 2428.8,3306.68C2424.83,3306.68 2420.84,3306.68 2416.84,3306.68C2415.74,3306.68 2414.84,3309.51 2414.84,3313C2414.84,3316.49 2415.74,3319.32 2416.84,3319.32ZM2392.92,3319.32L2404.88,3319.32C2405.98,3319.32 2406.87,3316.49 2406.87,3313C2406.87,3309.51 2405.98,3306.68 2404.88,3306.68L2392.92,3306.68C2391.82,3306.68 2390.92,3309.51 2390.92,3313C2390.92,3316.49 2391.82,3319.32 2392.92,3319.32ZM2249.4,3319.32C2253.39,3319.32 2257.38,3319.32 2261.36,3319.32C2262.46,3319.32 2263.35,3316.49 2263.35,3313C2263.35,3309.51 2262.46,3306.68 2261.36,3306.68C2257.38,3306.68 2253.39,3306.68 2249.4,3306.68C2248.3,3306.68 2247.41,3309.51 2247.41,3313C2247.41,3316.49 2248.3,3319.32 2249.4,3319.32ZM2273.32,3319.32C2277.31,3319.32 2281.3,3319.32 2285.28,3319.32C2286.38,3319.32 2287.27,3316.49 2287.27,3313C2287.27,3309.51 2286.38,3306.68 2285.28,3306.68C2281.3,3306.68 2277.31,3306.68 2273.32,3306.68C2272.22,3306.68 2271.33,3309.51 2271.33,3313C2271.33,3316.49 2272.22,3319.32 2273.32,3319.32ZM2105.88,3319.32C2109.87,3319.32 2113.86,3319.32 2117.84,3319.32C2118.94,3319.32 2119.84,3316.49 2119.84,3313C2119.84,3309.51 2118.94,3306.68 2117.84,3306.68C2113.86,3306.68 2109.87,3306.68 2105.88,3306.68C2104.78,3306.68 2103.89,3309.51 2103.89,3313C2103.89,3316.49 2104.78,3319.32 2105.88,3319.32ZM2129.8,3319.32C2133.79,3319.32 2137.78,3319.32 2141.76,3319.32C2142.86,3319.32 2143.76,3316.49 2143.76,3313C2143.76,3309.51 2142.86,3306.68 2141.76,3306.68C2137.78,3306.68 2133.79,3306.68 2129.8,3306.68C2128.7,3306.68 2127.81,3309.51 2127.81,3313C2127.81,3316.49 2128.7,3319.32 2129.8,3319.32ZM2536.43,3319.32C2540.45,3319.32 2544.43,3319.32 2548.39,3319.32C2549.49,3319.32 2550.39,3316.49 2550.39,3313C2550.39,3309.51 2549.49,3306.68 2548.39,3306.68C2544.43,3306.68 2540.45,3306.68 2536.43,3306.68C2535.33,3306.68 2534.44,3309.51 2534.44,3313C2534.44,3316.49 2535.33,3319.32 2536.43,3319.32ZM2512.51,3319.32L2524.47,3319.32C2525.57,3319.32 2526.47,3316.49 2526.47,3313C2526.47,3309.51 2525.57,3306.68 2524.47,3306.68L2512.51,3306.68C2511.41,3306.68 2510.52,3309.51 2510.52,3313C2510.52,3316.49 2511.41,3319.32 2512.51,3319.32ZM2488.59,3319.32C2492.6,3319.32 2496.59,3319.32 2500.55,3319.32C2501.65,3319.32 2502.55,3316.49 2502.55,3313C2502.55,3309.51 2501.65,3306.68 2500.55,3306.68C2496.59,3306.68 2492.6,3306.68 2488.59,3306.68C2487.49,3306.68 2486.6,3309.51 2486.6,3313C2486.6,3316.49 2487.49,3319.32 2488.59,3319.32ZM2010.2,3319.32C2014.19,3319.32 2018.17,3319.32 2022.16,3319.32C2023.26,3319.32 2024.16,3316.49 2024.16,3313C2024.16,3309.51 2023.26,3306.68 2022.16,3306.68C2018.17,3306.68 2014.19,3306.68 2010.2,3306.68C2009.1,3306.68 2008.21,3309.51 2008.21,3313C2008.21,3316.49 2009.1,3319.32 2010.2,3319.32ZM2034.12,3319.32C2038.11,3319.32 2042.1,3319.32 2046.08,3319.32C2047.18,3319.32 2048.08,3316.49 2048.08,3313C2048.08,3309.51 2047.18,3306.68 2046.08,3306.68C2042.1,3306.68 2038.11,3306.68 2034.12,3306.68C2033.02,3306.68 2032.13,3309.51 2032.13,3313C2032.13,3316.49 2033.02,3319.32 2034.12,3319.32ZM2058.04,3319.32C2062.03,3319.32 2066.01,3319.32 2070,3319.32C2071.1,3319.32 2072,3316.49 2072,3313C2072,3309.51 2071.1,3306.68 2070,3306.68C2066.01,3306.68 2062.03,3306.68 2058.04,3306.68C2056.94,3306.68 2056.05,3309.51 2056.05,3313C2056.05,3316.49 2056.94,3319.32 2058.04,3319.32ZM2081.96,3319.32C2085.95,3319.32 2089.94,3319.32 2093.92,3319.32C2095.02,3319.32 2095.92,3316.49 2095.92,3313C2095.92,3309.51 2095.02,3306.68 2093.92,3306.68C2089.94,3306.68 2085.95,3306.68 2081.96,3306.68C2080.86,3306.68 2079.97,3309.51 2079.97,3313C2079.97,3316.49 2080.86,3319.32 2081.96,3319.32ZM2153.72,3319.32C2157.71,3319.32 2161.7,3319.32 2165.68,3319.32C2166.78,3319.32 2167.68,3316.49 2167.68,3313C2167.68,3309.51 2166.78,3306.68 2165.68,3306.68C2161.7,3306.68 2157.71,3306.68 2153.72,3306.68C2152.62,3306.68 2151.73,3309.51 2151.73,3313C2151.73,3316.49 2152.62,3319.32 2153.72,3319.32ZM2177.64,3319.32C2181.63,3319.32 2185.62,3319.32 2189.6,3319.32C2190.7,3319.32 2191.59,3316.49 2191.59,3313C2191.59,3309.51 2190.7,3306.68 2189.6,3306.68C2185.62,3306.68 2181.63,3306.68 2177.64,3306.68C2176.54,3306.68 2175.65,3309.51 2175.65,3313C2175.65,3316.49 2176.54,3319.32 2177.64,3319.32ZM2201.56,3319.32C2205.55,3319.32 2209.54,3319.32 2213.52,3319.32C2214.62,3319.32 2215.51,3316.49 2215.51,3313C2215.51,3309.51 2214.62,3306.68 2213.52,3306.68C2209.54,3306.68 2205.55,3306.68 2201.56,3306.68C2200.46,3306.68 2199.57,3309.51 2199.57,3313C2199.57,3316.49 2200.46,3319.32 2201.56,3319.32ZM2225.48,3319.32C2229.47,3319.32 2233.46,3319.32 2237.44,3319.32C2238.54,3319.32 2239.43,3316.49 2239.43,3313C2239.43,3309.51 2238.54,3306.68 2237.44,3306.68C2233.46,3306.68 2229.47,3306.68 2225.48,3306.68C2224.38,3306.68 2223.49,3309.51 2223.49,3313C2223.49,3316.49 2224.38,3319.32 2225.48,3319.32ZM2584.27,3319.32C2588.3,3319.32 2592.28,3319.32 2596.23,3319.32C2597.33,3319.32 2598.22,3316.49 2598.22,3313C2598.22,3309.51 2597.33,3306.68 2596.23,3306.68C2592.28,3306.68 2588.3,3306.68 2584.27,3306.68C2583.17,3306.68 2582.28,3309.51 2582.28,3313C2582.28,3316.49 2583.17,3319.32 2584.27,3319.32ZM2560.35,3319.32L2572.31,3319.32C2573.41,3319.32 2574.3,3316.49 2574.3,3313C2574.3,3309.51 2573.41,3306.68 2572.31,3306.68L2560.35,3306.68C2559.25,3306.68 2558.36,3309.51 2558.36,3313C2558.36,3316.49 2559.25,3319.32 2560.35,3319.32ZM1938.44,3319.32C1942.43,3319.32 1946.41,3319.32 1950.4,3319.32C1951.51,3319.32 1952.4,3316.49 1952.4,3313C1952.4,3309.51 1951.51,3306.68 1950.4,3306.68C1946.41,3306.68 1942.43,3306.68 1938.44,3306.68C1937.35,3306.68 1936.45,3309.51 1936.45,3313C1936.45,3316.49 1937.35,3319.32 1938.44,3319.32ZM1962.37,3319.32C1966.35,3319.32 1970.33,3319.32 1974.33,3319.32C1975.42,3319.32 1976.32,3316.49 1976.32,3313C1976.32,3309.51 1975.42,3306.68 1974.33,3306.68C1970.33,3306.68 1966.35,3306.68 1962.37,3306.68C1961.27,3306.68 1960.37,3309.51 1960.37,3313C1960.37,3316.49 1961.27,3319.32 1962.37,3319.32ZM1986.28,3319.32C1990.27,3319.32 1994.25,3319.32 1998.24,3319.32C1999.34,3319.32 2000.24,3316.49 2000.24,3313C2000.24,3309.51 1999.34,3306.68 1998.24,3306.68C1994.25,3306.68 1990.27,3306.68 1986.28,3306.68C1985.18,3306.68 1984.29,3309.51 1984.29,3313C1984.29,3316.49 1985.18,3319.32 1986.28,3319.32ZM2608.19,3319.32C2612.22,3319.32 2616.21,3319.32 2620.15,3319.32C2621.25,3319.32 2622.14,3316.49 2622.14,3313C2622.14,3309.51 2621.25,3306.68 2620.15,3306.68C2616.21,3306.68 2612.22,3306.68 2608.19,3306.68C2607.09,3306.68 2606.2,3309.51 2606.2,3313C2606.2,3316.49 2607.09,3319.32 2608.19,3319.32ZM2632.11,3319.32L2644.07,3319.32C2645.17,3319.32 2646.06,3316.49 2646.06,3313C2646.06,3309.51 2645.17,3306.68 2644.07,3306.68L2632.11,3306.68C2631.01,3306.68 2630.12,3309.51 2630.12,3313C2630.12,3316.49 2631.01,3319.32 2632.11,3319.32ZM2679.95,3319.32C2684.01,3319.32 2687.99,3319.32 2691.91,3319.32C2693.01,3319.32 2693.9,3316.49 2693.9,3313C2693.9,3309.51 2693.01,3306.68 2691.91,3306.68C2687.99,3306.68 2684.01,3306.68 2679.95,3306.68C2678.85,3306.68 2677.96,3309.51 2677.96,3313C2677.96,3316.49 2678.85,3319.32 2679.95,3319.32ZM2656.03,3319.32L2667.99,3319.32C2669.09,3319.32 2669.98,3316.49 2669.98,3313C2669.98,3309.51 2669.09,3306.68 2667.99,3306.68L2656.03,3306.68C2654.93,3306.68 2654.04,3309.51 2654.04,3313C2654.04,3316.49 2654.93,3319.32 2656.03,3319.32ZM1914.53,3319.32C1918.51,3319.32 1922.49,3319.32 1926.49,3319.32C1927.59,3319.32 1928.48,3316.49 1928.48,3313C1928.48,3309.51 1927.59,3306.68 1926.49,3306.68C1922.49,3306.68 1918.51,3306.68 1914.53,3306.68C1913.42,3306.68 1912.53,3309.51 1912.53,3313C1912.53,3316.49 1913.42,3319.32 1914.53,3319.32ZM1890.61,3319.32C1894.58,3319.32 1898.57,3319.32 1902.57,3319.32C1903.67,3319.32 1904.56,3316.49 1904.56,3313C1904.56,3309.51 1903.67,3306.68 1902.57,3306.68C1898.57,3306.68 1894.58,3306.68 1890.61,3306.68C1889.51,3306.68 1888.61,3309.51 1888.61,3313C1888.61,3316.49 1889.51,3319.32 1890.61,3319.32ZM2703.87,3319.32C2707.94,3319.32 2711.93,3319.32 2715.83,3319.32C2716.93,3319.32 2717.82,3316.49 2717.82,3313C2717.82,3309.51 2716.93,3306.68 2715.83,3306.68C2711.93,3306.68 2707.94,3306.68 2703.87,3306.68C2702.77,3306.68 2701.88,3309.51 2701.88,3313C2701.88,3316.49 2702.77,3319.32 2703.87,3319.32ZM1699.24,3319.32C1703.21,3319.32 1707.19,3319.32 1711.2,3319.32C1712.3,3319.32 1713.2,3316.49 1713.2,3313C1713.2,3309.51 1712.3,3306.68 1711.2,3306.68C1707.19,3306.68 1703.21,3306.68 1699.24,3306.68C1698.14,3306.68 1697.25,3309.51 1697.25,3313C1697.25,3316.49 1698.14,3319.32 1699.24,3319.32ZM1866.68,3319.32C1870.66,3319.32 1874.65,3319.32 1878.65,3319.32C1879.75,3319.32 1880.64,3316.49 1880.64,3313C1880.64,3309.51 1879.75,3306.68 1878.65,3306.68C1874.65,3306.68 1870.66,3306.68 1866.68,3306.68C1865.59,3306.68 1864.69,3309.51 1864.69,3313C1864.69,3316.49 1865.59,3319.32 1866.68,3319.32ZM1842.77,3319.32C1846.74,3319.32 1850.73,3319.32 1854.73,3319.32C1855.83,3319.32 1856.72,3316.49 1856.72,3313C1856.72,3309.51 1855.83,3306.68 1854.73,3306.68C1850.73,3306.68 1846.74,3306.68 1842.77,3306.68C1841.67,3306.68 1840.77,3309.51 1840.77,3313C1840.77,3316.49 1841.67,3319.32 1842.77,3319.32ZM1818.85,3319.32C1822.82,3319.32 1826.81,3319.32 1830.81,3319.32C1831.91,3319.32 1832.8,3316.49 1832.8,3313C1832.8,3309.51 1831.91,3306.68 1830.81,3306.68C1826.81,3306.68 1822.82,3306.68 1818.85,3306.68C1817.75,3306.68 1816.85,3309.51 1816.85,3313C1816.85,3316.49 1817.75,3319.32 1818.85,3319.32ZM1794.92,3319.32C1798.9,3319.32 1802.88,3319.32 1806.88,3319.32C1807.99,3319.32 1808.88,3316.49 1808.88,3313C1808.88,3309.51 1807.99,3306.68 1806.88,3306.68C1802.88,3306.68 1798.9,3306.68 1794.92,3306.68C1793.82,3306.68 1792.93,3309.51 1792.93,3313C1792.93,3316.49 1793.82,3319.32 1794.92,3319.32ZM1771,3319.32C1774.97,3319.32 1778.96,3319.32 1782.96,3319.32C1784.06,3319.32 1784.96,3316.49 1784.96,3313C1784.96,3309.51 1784.06,3306.68 1782.96,3306.68C1778.96,3306.68 1774.97,3306.68 1771,3306.68C1769.9,3306.68 1769.01,3309.51 1769.01,3313C1769.01,3316.49 1769.9,3319.32 1771,3319.32ZM1747.08,3319.32C1751.05,3319.32 1755.04,3319.32 1759.04,3319.32C1760.14,3319.32 1761.04,3316.49 1761.04,3313C1761.04,3309.51 1760.14,3306.68 1759.04,3306.68C1755.04,3306.68 1751.05,3306.68 1747.08,3306.68C1745.98,3306.68 1745.09,3309.51 1745.09,3313C1745.09,3316.49 1745.98,3319.32 1747.08,3319.32ZM1723.16,3319.32C1727.13,3319.32 1731.12,3319.32 1735.12,3319.32C1736.22,3319.32 1737.12,3316.49 1737.12,3313C1737.12,3309.51 1736.22,3306.68 1735.12,3306.68C1731.12,3306.68 1727.13,3306.68 1723.16,3306.68C1722.06,3306.68 1721.17,3309.51 1721.17,3313C1721.17,3316.49 1722.06,3319.32 1723.16,3319.32ZM1675.32,3319.32C1679.29,3319.32 1683.27,3319.32 1687.28,3319.32C1688.38,3319.32 1689.28,3316.49 1689.28,3313C1689.28,3309.51 1688.38,3306.68 1687.28,3306.68C1683.27,3306.68 1679.29,3306.68 1675.32,3306.68C1674.22,3306.68 1673.33,3309.51 1673.33,3313C1673.33,3316.49 1674.22,3319.32 1675.32,3319.32ZM2727.79,3319.32L2739.75,3319.32C2740.85,3319.32 2741.74,3316.49 2741.74,3313C2741.74,3309.51 2740.85,3306.68 2739.75,3306.68L2727.79,3306.68C2726.69,3306.68 2725.8,3309.51 2725.8,3313C2725.8,3316.49 2726.69,3319.32 2727.79,3319.32ZM2751.71,3319.32C2755.85,3319.32 2759.84,3319.32 2763.67,3319.32C2764.77,3319.32 2765.66,3316.49 2765.66,3313C2765.66,3309.51 2764.77,3306.68 2763.67,3306.68C2759.84,3306.68 2755.85,3306.68 2751.71,3306.68C2750.61,3306.68 2749.71,3309.51 2749.71,3313C2749.71,3316.49 2750.61,3319.32 2751.71,3319.32ZM2775.63,3319.32C2779.86,3319.32 2783.85,3319.32 2787.59,3319.32C2788.69,3319.32 2789.58,3316.49 2789.58,3313C2789.58,3309.51 2788.69,3306.68 2787.59,3306.68C2783.85,3306.68 2779.86,3306.68 2775.63,3306.68C2774.53,3306.68 2773.63,3309.51 2773.63,3313C2773.63,3316.49 2774.53,3319.32 2775.63,3319.32ZM1483.97,3319.32C1487.88,3319.32 1491.86,3319.32 1495.93,3319.32C1497.03,3319.32 1497.92,3316.49 1497.92,3313C1497.92,3309.51 1497.03,3306.68 1495.93,3306.68C1491.86,3306.68 1487.88,3306.68 1483.97,3306.68C1482.87,3306.68 1481.97,3309.51 1481.97,3313C1481.97,3316.49 1482.87,3319.32 1483.97,3319.32ZM1651.4,3319.32C1655.36,3319.32 1659.35,3319.32 1663.36,3319.32C1664.46,3319.32 1665.36,3316.49 1665.36,3313C1665.36,3309.51 1664.46,3306.68 1663.36,3306.68C1659.35,3306.68 1655.36,3306.68 1651.4,3306.68C1650.3,3306.68 1649.41,3309.51 1649.41,3313C1649.41,3316.49 1650.3,3319.32 1651.4,3319.32ZM1579.65,3319.32C1583.59,3319.32 1587.58,3319.32 1591.61,3319.32C1592.71,3319.32 1593.6,3316.49 1593.6,3313C1593.6,3309.51 1592.71,3306.68 1591.61,3306.68C1587.58,3306.68 1583.59,3306.68 1579.65,3306.68C1578.55,3306.68 1577.65,3309.51 1577.65,3313C1577.65,3316.49 1578.55,3319.32 1579.65,3319.32ZM1555.73,3319.32C1559.67,3319.32 1563.65,3319.32 1567.69,3319.32C1568.79,3319.32 1569.68,3316.49 1569.68,3313C1569.68,3309.51 1568.79,3306.68 1567.69,3306.68C1563.65,3306.68 1559.67,3306.68 1555.73,3306.68C1554.63,3306.68 1553.73,3309.51 1553.73,3313C1553.73,3316.49 1554.63,3319.32 1555.73,3319.32ZM1507.89,3319.32C1511.81,3319.32 1515.8,3319.32 1519.85,3319.32C1520.95,3319.32 1521.84,3316.49 1521.84,3313C1521.84,3309.51 1520.95,3306.68 1519.85,3306.68C1515.8,3306.68 1511.81,3306.68 1507.89,3306.68C1506.79,3306.68 1505.89,3309.51 1505.89,3313C1505.89,3316.49 1506.79,3319.32 1507.89,3319.32ZM2799.55,3319.32L2811.51,3319.32C2812.61,3319.32 2813.5,3316.49 2813.5,3313C2813.5,3309.51 2812.61,3306.68 2811.51,3306.68L2799.55,3306.68C2798.45,3306.68 2797.55,3309.51 2797.55,3313C2797.55,3316.49 2798.45,3319.32 2799.55,3319.32ZM1460.05,3319.32L1472.01,3319.32C1473.11,3319.32 1474,3316.49 1474,3313C1474,3309.51 1473.11,3306.68 1472.01,3306.68L1460.05,3306.68C1458.95,3306.68 1458.06,3309.51 1458.06,3313C1458.06,3316.49 1458.95,3319.32 1460.05,3319.32ZM1627.49,3319.32C1631.44,3319.32 1635.43,3319.32 1639.44,3319.32C1640.55,3319.32 1641.44,3316.49 1641.44,3313C1641.44,3309.51 1640.55,3306.68 1639.44,3306.68C1635.43,3306.68 1631.44,3306.68 1627.49,3306.68C1626.38,3306.68 1625.49,3309.51 1625.49,3313C1625.49,3316.49 1626.38,3319.32 1627.49,3319.32ZM1603.57,3319.32C1607.52,3319.32 1611.51,3319.32 1615.53,3319.32C1616.63,3319.32 1617.52,3316.49 1617.52,3313C1617.52,3309.51 1616.63,3306.68 1615.53,3306.68C1611.51,3306.68 1607.52,3306.68 1603.57,3306.68C1602.47,3306.68 1601.57,3309.51 1601.57,3313C1601.57,3316.49 1602.47,3319.32 1603.57,3319.32ZM1531.81,3319.32C1535.74,3319.32 1539.73,3319.32 1543.77,3319.32C1544.87,3319.32 1545.76,3316.49 1545.76,3313C1545.76,3309.51 1544.87,3306.68 1543.77,3306.68C1539.73,3306.68 1535.74,3306.68 1531.81,3306.68C1530.71,3306.68 1529.81,3309.51 1529.81,3313C1529.81,3316.49 1530.71,3319.32 1531.81,3319.32ZM1436.13,3319.32C1439.98,3319.32 1443.97,3319.32 1448.09,3319.32C1449.19,3319.32 1450.08,3316.49 1450.08,3313C1450.08,3309.51 1449.19,3306.68 1448.09,3306.68C1443.97,3306.68 1439.98,3306.68 1436.13,3306.68C1435.03,3306.68 1434.14,3309.51 1434.14,3313C1434.14,3316.49 1435.03,3319.32 1436.13,3319.32ZM2823.47,3319.32C2824.68,3319.32 2825.3,3319.32 2825.3,3319.32C2828.89,3319.32 2832.39,3318.14 2835.76,3315.89C2836.84,3315.17 2837.53,3311.81 2837.3,3308.4C2837.08,3304.98 2836.02,3302.79 2834.94,3303.51C2831.83,3305.59 2828.61,3306.68 2825.3,3306.68C2825.3,3306.68 2824.68,3306.68 2823.47,3306.68C2822.37,3306.68 2821.47,3309.51 2821.47,3313C2821.47,3316.49 2822.37,3319.32 2823.47,3319.32ZM1388.29,3319.32L1400.25,3319.32C1401.35,3319.32 1402.24,3316.49 1402.24,3313C1402.24,3309.51 1401.35,3306.68 1400.25,3306.68L1388.29,3306.68C1387.19,3306.68 1386.3,3309.51 1386.3,3313C1386.3,3316.49 1387.19,3319.32 1388.29,3319.32ZM1364.37,3319.32C1366.78,3319.32 1370.8,3319.32 1376.33,3319.32C1377.43,3319.32 1378.32,3316.49 1378.32,3313C1378.32,3309.51 1377.43,3306.68 1376.33,3306.68C1370.8,3306.68 1366.78,3306.68 1364.37,3306.68C1363.27,3306.68 1362.38,3309.51 1362.38,3313C1362.38,3316.49 1363.27,3319.32 1364.37,3319.32ZM1412.21,3319.32L1424.17,3319.32C1425.27,3319.32 1426.16,3316.49 1426.16,3313C1426.16,3309.51 1425.27,3306.68 1424.17,3306.68L1412.21,3306.68C1411.11,3306.68 1410.21,3309.51 1410.21,3313C1410.21,3316.49 1411.11,3319.32 1412.21,3319.32ZM1340.28,3304.23C1343.99,3309.75 1347.95,3313.88 1352.09,3316.41C1353.17,3317.07 1354.22,3314.83 1354.42,3311.4C1354.63,3307.97 1353.92,3304.66 1352.85,3303.99C1349.03,3301.66 1345.39,3297.86 1341.97,3292.78C1340.97,3291.3 1339.78,3292.66 1339.32,3295.82C1338.85,3298.98 1339.28,3302.75 1340.28,3304.23ZM2847.51,3303.08C2851.26,3297.27 2854.75,3290.03 2857.92,3281.58C2858.76,3279.34 2858.87,3275.34 2858.16,3272.67C2857.45,3270 2856.19,3269.66 2855.35,3271.91C2852.43,3279.69 2849.22,3286.36 2845.76,3291.72C2844.77,3293.25 2844.36,3297.04 2844.85,3300.18C2845.33,3303.31 2846.52,3304.61 2847.51,3303.08ZM1321.16,3254.89C1323.65,3265.43 1326.54,3274.97 1329.76,3283.28C1330.61,3285.48 1331.87,3285.08 1332.57,3282.37C1333.26,3279.66 1333.13,3275.68 1332.28,3273.47C1329.31,3265.81 1326.64,3257.01 1324.35,3247.3C1323.69,3244.5 1322.43,3243.94 1321.56,3246.03C1320.67,3248.13 1320.5,3252.09 1321.16,3254.89ZM2866.37,3252.74C2868.79,3242.14 2870.82,3230.57 2872.37,3218.25C2872.78,3215.01 2872.29,3211.33 2871.26,3210.03C2870.24,3208.73 2869.08,3210.31 2868.67,3213.55C2867.24,3224.9 2865.37,3235.56 2863.14,3245.32C2862.5,3248.14 2862.7,3252.1 2863.59,3254.15C2864.48,3256.2 2865.73,3255.57 2866.37,3252.74ZM1311.61,3182.78C1312.25,3196.03 1313.39,3208.74 1314.98,3220.72C1315.4,3223.93 1316.57,3225.45 1317.59,3224.1C1318.6,3222.74 1319.08,3219.03 1318.65,3215.82C1317.19,3204.79 1316.14,3193.08 1315.55,3180.89C1315.39,3177.43 1314.37,3175.06 1313.28,3175.58C1312.2,3176.11 1311.45,3179.33 1311.61,3182.78ZM2875.54,3180.15C2875.84,3173.07 2875.99,3165.84 2875.99,3158.5C2875.99,3158.5 2875.99,3152.33 2875.99,3141.42C2875.99,3137.93 2875.1,3135.1 2874,3135.1C2872.9,3135.1 2872.01,3137.93 2872.01,3141.42L2872.01,3158.5C2872.01,3165.27 2871.86,3171.93 2871.59,3178.46C2871.44,3181.91 2872.2,3185.1 2873.3,3185.57C2874.39,3186.03 2875.39,3183.61 2875.54,3180.15ZM1311.04,3106.04L1311.04,3143.98C1311.04,3147.47 1311.93,3150.3 1313.03,3150.3C1314.13,3150.3 1315.02,3147.47 1315.02,3143.98L1315.02,3106.04C1315.02,3102.55 1314.13,3099.72 1313.03,3099.72C1311.93,3099.72 1311.04,3102.55 1311.04,3106.04ZM2875.99,3103.48L2875.99,3065.54C2875.99,3062.05 2875.1,3059.21 2874,3059.21C2872.9,3059.21 2872.01,3062.05 2872.01,3065.54L2872.01,3103.48C2872.01,3106.97 2872.9,3109.8 2874,3109.8C2875.1,3109.8 2875.99,3106.97 2875.99,3103.48ZM1311.04,3030.15L1311.04,3068.1C1311.04,3071.59 1311.93,3074.42 1313.03,3074.42C1314.13,3074.42 1315.02,3071.59 1315.02,3068.1L1315.02,3030.15C1315.02,3026.66 1314.13,3023.83 1313.03,3023.83C1311.93,3023.83 1311.04,3026.66 1311.04,3030.15ZM2875.99,3027.6L2875.99,2989.65C2875.99,2986.16 2875.1,2983.33 2874,2983.33C2872.9,2983.33 2872.01,2986.16 2872.01,2989.65L2872.01,3027.6C2872.01,3031.09 2872.9,3033.92 2874,3033.92C2875.1,3033.92 2875.99,3031.09 2875.99,3027.6ZM1311.04,2954.27L1311.04,2992.21C1311.04,2995.7 1311.93,2998.54 1313.03,2998.54C1314.13,2998.54 1315.02,2995.7 1315.02,2992.21L1315.02,2954.27C1315.02,2950.78 1314.13,2947.95 1313.03,2947.95C1311.93,2947.95 1311.04,2950.78 1311.04,2954.27ZM2875.99,2951.71L2875.99,2913.77C2875.99,2910.28 2875.1,2907.45 2874,2907.45C2872.9,2907.45 2872.01,2910.28 2872.01,2913.77L2872.01,2951.71C2872.01,2955.2 2872.9,2958.03 2874,2958.03C2875.1,2958.03 2875.99,2955.2 2875.99,2951.71ZM1311.04,2878.39L1311.04,2916.33C1311.04,2919.82 1311.93,2922.65 1313.03,2922.65C1314.13,2922.65 1315.02,2919.82 1315.02,2916.33L1315.02,2878.39C1315.02,2874.9 1314.13,2872.06 1313.03,2872.06C1311.93,2872.06 1311.04,2874.9 1311.04,2878.39ZM2875.99,2875.83L2875.99,2837.89C2875.99,2834.39 2875.1,2831.56 2874,2831.56C2872.9,2831.56 2872.01,2834.39 2872.01,2837.89L2872.01,2875.83C2872.01,2879.32 2872.9,2882.15 2874,2882.15C2875.1,2882.15 2875.99,2879.32 2875.99,2875.83ZM1311.04,2802.5L1311.04,2840.44C1311.04,2843.93 1311.93,2846.77 1313.03,2846.77C1314.13,2846.77 1315.02,2843.93 1315.02,2840.44L1315.02,2802.5C1315.02,2799.01 1314.13,2796.18 1313.03,2796.18C1311.93,2796.18 1311.04,2799.01 1311.04,2802.5ZM2875.99,2799.94L2875.99,2762C2875.99,2758.51 2875.1,2755.68 2874,2755.68C2872.9,2755.68 2872.01,2758.51 2872.01,2762L2872.01,2799.94C2872.01,2803.43 2872.9,2806.27 2874,2806.27C2875.1,2806.27 2875.99,2803.43 2875.99,2799.94ZM1311.04,2726.62L1311.04,2764.56C1311.04,2768.05 1311.93,2770.88 1313.03,2770.88C1314.13,2770.88 1315.02,2768.05 1315.02,2764.56L1315.02,2726.62C1315.02,2723.13 1314.13,2720.29 1313.03,2720.29C1311.93,2720.29 1311.04,2723.13 1311.04,2726.62ZM2872.01,2695L2872.01,2724.06C2872.01,2727.55 2872.9,2730.38 2874,2730.38C2875.1,2730.38 2875.99,2727.55 2875.99,2724.06L2875.99,2695L2875.99,2693.74C2875.96,2680.7 2875.44,2668.03 2874.48,2655.9C2874.22,2652.51 2873.13,2650.45 2872.06,2651.3C2871,2652.15 2870.35,2655.58 2870.61,2658.97C2871.52,2670.51 2872.01,2682.58 2872.01,2695ZM1313.09,2649.55C1311.94,2661.95 1311.25,2674.97 1311.08,2688.42C1311.03,2691.91 1311.89,2694.86 1312.99,2695C1314.09,2695.14 1315.02,2692.42 1315.06,2688.93C1315.22,2676.54 1315.86,2664.55 1316.92,2653.12C1317.23,2649.77 1316.62,2646.25 1315.57,2645.27C1314.51,2644.28 1313.4,2646.2 1313.09,2649.55ZM2870,2619.14C2868.03,2607.49 2865.62,2596.69 2862.84,2586.97C2862.1,2584.39 2860.84,2584.19 2860.03,2586.54C2859.21,2588.88 2859.15,2592.89 2859.89,2595.47C2862.45,2604.43 2864.67,2614.38 2866.49,2625.12C2867.01,2628.2 2868.22,2629.36 2869.19,2627.71C2870.16,2626.06 2870.52,2622.22 2870,2619.14ZM1325.61,2582.19C1322.71,2591.55 1320.16,2602.03 1318.05,2613.41C1317.49,2616.41 1317.8,2620.3 1318.75,2622.07C1319.69,2623.84 1320.92,2622.85 1321.48,2619.84C1323.43,2609.35 1325.78,2599.69 1328.45,2591.06C1329.23,2588.57 1329.22,2584.57 1328.43,2582.12C1327.65,2579.67 1326.39,2579.7 1325.61,2582.19ZM2853.44,2561.24C2850.01,2553.97 2846.29,2547.99 2842.35,2543.51C2841.31,2542.34 2840.17,2544.05 2839.8,2547.34C2839.43,2550.63 2839.97,2554.25 2841.01,2555.42C2844.64,2559.54 2848.07,2565.05 2851.22,2571.75C2852.14,2573.69 2853.38,2572.91 2853.99,2570.01C2854.6,2567.11 2854.35,2563.18 2853.44,2561.24ZM1346.65,2541.43C1342.64,2545.39 1338.85,2550.88 1335.34,2557.69C1334.4,2559.51 1334.1,2563.41 1334.68,2566.39C1335.25,2569.37 1336.48,2570.3 1337.42,2568.48C1340.65,2562.21 1344.15,2557.15 1347.84,2553.5C1348.89,2552.46 1349.47,2548.91 1349.15,2545.58C1348.82,2542.25 1347.7,2540.39 1346.65,2541.43ZM2830.23,2534.93C2828.61,2534.43 2826.96,2534.18 2825.3,2534.18C2825.3,2534.18 2822.83,2534.18 2818.08,2534.18C2816.98,2534.18 2816.09,2537.01 2816.09,2540.5C2816.09,2543.99 2816.98,2546.82 2818.08,2546.82L2825.3,2546.82C2826.83,2546.82 2828.35,2547.06 2829.84,2547.52C2830.94,2547.85 2831.91,2545.3 2832.02,2541.83C2832.12,2538.36 2831.32,2535.26 2830.23,2534.93ZM1370.94,2534.18C1364.9,2534.18 1361.73,2534.18 1361.73,2534.18C1360.77,2534.18 1359.82,2534.26 1358.87,2534.43C1357.77,2534.62 1356.93,2537.61 1356.99,2541.09C1357.05,2544.58 1358,2547.25 1359.09,2547.06C1359.97,2546.9 1360.85,2546.82 1361.73,2546.82C1361.73,2546.82 1364.9,2546.82 1370.94,2546.82C1372.04,2546.82 1372.93,2543.99 1372.93,2540.5C1372.93,2537.01 1372.04,2534.18 1370.94,2534.18ZM2782.2,2534.18L2770.24,2534.18C2769.14,2534.18 2768.25,2537.01 2768.25,2540.5C2768.25,2543.99 2769.14,2546.82 2770.24,2546.82L2782.2,2546.82C2783.3,2546.82 2784.2,2543.99 2784.2,2540.5C2784.2,2537.01 2783.3,2534.18 2782.2,2534.18ZM2758.28,2534.18C2754.44,2534.18 2750.45,2534.18 2746.32,2534.18C2745.22,2534.18 2744.33,2537.01 2744.33,2540.5C2744.33,2543.99 2745.22,2546.82 2746.32,2546.82C2750.45,2546.82 2754.44,2546.82 2758.28,2546.82C2759.38,2546.82 2760.28,2543.99 2760.28,2540.5C2760.28,2537.01 2759.38,2534.18 2758.28,2534.18ZM2806.12,2534.18L2794.16,2534.18C2793.06,2534.18 2792.17,2537.01 2792.17,2540.5C2792.17,2543.99 2793.06,2546.82 2794.16,2546.82L2806.12,2546.82C2807.22,2546.82 2808.12,2543.99 2808.12,2540.5C2808.12,2537.01 2807.22,2534.18 2806.12,2534.18ZM2734.36,2534.18L2722.4,2534.18C2721.3,2534.18 2720.41,2537.01 2720.41,2540.5C2720.41,2543.99 2721.3,2546.82 2722.4,2546.82L2734.36,2546.82C2735.46,2546.82 2736.36,2543.99 2736.36,2540.5C2736.36,2537.01 2735.46,2534.18 2734.36,2534.18ZM2710.44,2534.18L2698.49,2534.18C2697.39,2534.18 2696.49,2537.01 2696.49,2540.5C2696.49,2543.99 2697.39,2546.82 2698.49,2546.82L2710.44,2546.82C2711.54,2546.82 2712.44,2543.99 2712.44,2540.5C2712.44,2537.01 2711.54,2534.18 2710.44,2534.18ZM2686.53,2534.18C2682.61,2534.18 2678.62,2534.18 2674.57,2534.18C2673.47,2534.18 2672.57,2537.01 2672.57,2540.5C2672.57,2543.99 2673.47,2546.82 2674.57,2546.82C2678.62,2546.82 2682.61,2546.82 2686.53,2546.82C2687.62,2546.82 2688.52,2543.99 2688.52,2540.5C2688.52,2537.01 2687.62,2534.18 2686.53,2534.18ZM2662.61,2534.18L2650.64,2534.18C2649.55,2534.18 2648.65,2537.01 2648.65,2540.5C2648.65,2543.99 2649.55,2546.82 2650.64,2546.82L2662.61,2546.82C2663.71,2546.82 2664.6,2543.99 2664.6,2540.5C2664.6,2537.01 2663.71,2534.18 2662.61,2534.18ZM2638.68,2534.18L2626.72,2534.18C2625.62,2534.18 2624.73,2537.01 2624.73,2540.5C2624.73,2543.99 2625.62,2546.82 2626.72,2546.82L2638.68,2546.82C2639.78,2546.82 2640.68,2543.99 2640.68,2540.5C2640.68,2537.01 2639.78,2534.18 2638.68,2534.18ZM2590.85,2534.18C2586.89,2534.18 2582.91,2534.18 2578.89,2534.18C2577.79,2534.18 2576.89,2537.01 2576.89,2540.5C2576.89,2543.99 2577.79,2546.82 2578.89,2546.82C2582.91,2546.82 2586.89,2546.82 2590.85,2546.82C2591.95,2546.82 2592.84,2543.99 2592.84,2540.5C2592.84,2537.01 2591.95,2534.18 2590.85,2534.18ZM2614.76,2534.18L2602.81,2534.18C2601.7,2534.18 2600.81,2537.01 2600.81,2540.5C2600.81,2543.99 2601.7,2546.82 2602.81,2546.82L2614.76,2546.82C2615.87,2546.82 2616.76,2543.99 2616.76,2540.5C2616.76,2537.01 2615.87,2534.18 2614.76,2534.18ZM2495.17,2534.18C2491.21,2534.18 2487.22,2534.18 2483.21,2534.18C2482.11,2534.18 2481.22,2537.01 2481.22,2540.5C2481.22,2543.99 2482.11,2546.82 2483.21,2546.82C2487.22,2546.82 2491.21,2546.82 2495.17,2546.82C2496.27,2546.82 2497.16,2543.99 2497.16,2540.5C2497.16,2537.01 2496.27,2534.18 2495.17,2534.18ZM2471.25,2534.18C2467.28,2534.18 2463.3,2534.18 2459.29,2534.18C2458.19,2534.18 2457.3,2537.01 2457.3,2540.5C2457.3,2543.99 2458.19,2546.82 2459.29,2546.82C2463.3,2546.82 2467.28,2546.82 2471.25,2546.82C2472.35,2546.82 2473.24,2543.99 2473.24,2540.5C2473.24,2537.01 2472.35,2534.18 2471.25,2534.18ZM2566.93,2534.18C2562.97,2534.18 2558.99,2534.18 2554.97,2534.18C2553.87,2534.18 2552.97,2537.01 2552.97,2540.5C2552.97,2543.99 2553.87,2546.82 2554.97,2546.82C2558.99,2546.82 2562.97,2546.82 2566.93,2546.82C2568.03,2546.82 2568.92,2543.99 2568.92,2540.5C2568.92,2537.01 2568.03,2534.18 2566.93,2534.18ZM1394.86,2534.18C1390.46,2534.18 1386.47,2534.18 1382.9,2534.18C1381.8,2534.18 1380.91,2537.01 1380.91,2540.5C1380.91,2543.99 1381.8,2546.82 1382.9,2546.82C1386.47,2546.82 1390.46,2546.82 1394.86,2546.82C1395.96,2546.82 1396.85,2543.99 1396.85,2540.5C1396.85,2537.01 1395.96,2534.18 1394.86,2534.18ZM1418.78,2534.18L1406.82,2534.18C1405.72,2534.18 1404.83,2537.01 1404.83,2540.5C1404.83,2543.99 1405.72,2546.82 1406.82,2546.82L1418.78,2546.82C1419.88,2546.82 1420.77,2543.99 1420.77,2540.5C1420.77,2537.01 1419.88,2534.18 1418.78,2534.18ZM1466.62,2534.18C1462.53,2534.18 1458.54,2534.18 1454.66,2534.18C1453.56,2534.18 1452.67,2537.01 1452.67,2540.5C1452.67,2543.99 1453.56,2546.82 1454.66,2546.82C1458.54,2546.82 1462.53,2546.82 1466.62,2546.82C1467.72,2546.82 1468.61,2543.99 1468.61,2540.5C1468.61,2537.01 1467.72,2534.18 1466.62,2534.18ZM1490.54,2534.18L1478.58,2534.18C1477.48,2534.18 1476.59,2537.01 1476.59,2540.5C1476.59,2543.99 1477.48,2546.82 1478.58,2546.82L1490.54,2546.82C1491.64,2546.82 1492.53,2543.99 1492.53,2540.5C1492.53,2537.01 1491.64,2534.18 1490.54,2534.18ZM1514.46,2534.18L1502.5,2534.18C1501.4,2534.18 1500.51,2537.01 1500.51,2540.5C1500.51,2543.99 1501.4,2546.82 1502.5,2546.82L1514.46,2546.82C1515.56,2546.82 1516.45,2543.99 1516.45,2540.5C1516.45,2537.01 1515.56,2534.18 1514.46,2534.18ZM1538.38,2534.18C1534.34,2534.18 1530.35,2534.18 1526.42,2534.18C1525.32,2534.18 1524.42,2537.01 1524.42,2540.5C1524.42,2543.99 1525.32,2546.82 1526.42,2546.82C1530.35,2546.82 1534.34,2546.82 1538.38,2546.82C1539.48,2546.82 1540.37,2543.99 1540.37,2540.5C1540.37,2537.01 1539.48,2534.18 1538.38,2534.18ZM2543.01,2534.18C2539.05,2534.18 2535.06,2534.18 2531.05,2534.18C2529.95,2534.18 2529.05,2537.01 2529.05,2540.5C2529.05,2543.99 2529.95,2546.82 2531.05,2546.82C2535.06,2546.82 2539.05,2546.82 2543.01,2546.82C2544.11,2546.82 2545,2543.99 2545,2540.5C2545,2537.01 2544.11,2534.18 2543.01,2534.18ZM2519.09,2534.18C2515.13,2534.18 2511.14,2534.18 2507.13,2534.18C2506.03,2534.18 2505.14,2537.01 2505.14,2540.5C2505.14,2543.99 2506.03,2546.82 2507.13,2546.82C2511.14,2546.82 2515.13,2546.82 2519.09,2546.82C2520.19,2546.82 2521.08,2543.99 2521.08,2540.5C2521.08,2537.01 2520.19,2534.18 2519.09,2534.18ZM1442.7,2534.18L1430.74,2534.18C1429.64,2534.18 1428.75,2537.01 1428.75,2540.5C1428.75,2543.99 1429.64,2546.82 1430.74,2546.82L1442.7,2546.82C1443.8,2546.82 1444.69,2543.99 1444.69,2540.5C1444.69,2537.01 1443.8,2534.18 1442.7,2534.18ZM1562.3,2534.18L1550.34,2534.18C1549.24,2534.18 1548.34,2537.01 1548.34,2540.5C1548.34,2543.99 1549.24,2546.82 1550.34,2546.82L1562.3,2546.82C1563.4,2546.82 1564.29,2543.99 1564.29,2540.5C1564.29,2537.01 1563.4,2534.18 1562.3,2534.18ZM1586.22,2534.18L1574.26,2534.18C1573.16,2534.18 1572.26,2537.01 1572.26,2540.5C1572.26,2543.99 1573.16,2546.82 1574.26,2546.82L1586.22,2546.82C1587.32,2546.82 1588.21,2543.99 1588.21,2540.5C1588.21,2537.01 1587.32,2534.18 1586.22,2534.18ZM2447.33,2534.18C2443.36,2534.18 2439.37,2534.18 2435.37,2534.18C2434.27,2534.18 2433.38,2537.01 2433.38,2540.5C2433.38,2543.99 2434.27,2546.82 2435.37,2546.82C2439.37,2546.82 2443.36,2546.82 2447.33,2546.82C2448.43,2546.82 2449.32,2543.99 2449.32,2540.5C2449.32,2537.01 2448.43,2534.18 2447.33,2534.18ZM1610.14,2534.18C1606.11,2534.18 1602.13,2534.18 1598.18,2534.18C1597.08,2534.18 1596.18,2537.01 1596.18,2540.5C1596.18,2543.99 1597.08,2546.82 1598.18,2546.82C1602.13,2546.82 1606.11,2546.82 1610.14,2546.82C1611.24,2546.82 1612.13,2543.99 1612.13,2540.5C1612.13,2537.01 1611.24,2534.18 1610.14,2534.18ZM2423.41,2534.18C2419.44,2534.18 2415.45,2534.18 2411.45,2534.18C2410.35,2534.18 2409.45,2537.01 2409.45,2540.5C2409.45,2543.99 2410.35,2546.82 2411.45,2546.82C2415.45,2546.82 2419.44,2546.82 2423.41,2546.82C2424.51,2546.82 2425.4,2543.99 2425.4,2540.5C2425.4,2537.01 2424.51,2534.18 2423.41,2534.18ZM2303.81,2534.18C2299.83,2534.18 2295.84,2534.18 2291.85,2534.18C2290.75,2534.18 2289.86,2537.01 2289.86,2540.5C2289.86,2543.99 2290.75,2546.82 2291.85,2546.82C2295.84,2546.82 2299.83,2546.82 2303.81,2546.82C2304.91,2546.82 2305.8,2543.99 2305.8,2540.5C2305.8,2537.01 2304.91,2534.18 2303.81,2534.18ZM1634.06,2534.18L1622.1,2534.18C1621,2534.18 1620.1,2537.01 1620.1,2540.5C1620.1,2543.99 1621,2546.82 1622.1,2546.82L1634.06,2546.82C1635.16,2546.82 1636.05,2543.99 1636.05,2540.5C1636.05,2537.01 1635.16,2534.18 1634.06,2534.18ZM1657.98,2534.18C1653.96,2534.18 1649.98,2534.18 1646.02,2534.18C1644.92,2534.18 1644.02,2537.01 1644.02,2540.5C1644.02,2543.99 1644.92,2546.82 1646.02,2546.82C1649.98,2546.82 1653.96,2546.82 1657.98,2546.82C1659.08,2546.82 1659.97,2543.99 1659.97,2540.5C1659.97,2537.01 1659.08,2534.18 1657.98,2534.18ZM2112.45,2534.18C2108.46,2534.18 2104.47,2534.18 2100.49,2534.18C2099.39,2534.18 2098.49,2537.01 2098.49,2540.5C2098.49,2543.99 2099.39,2546.82 2100.49,2546.82C2104.47,2546.82 2108.46,2546.82 2112.45,2546.82C2113.55,2546.82 2114.44,2543.99 2114.44,2540.5C2114.44,2537.01 2113.55,2534.18 2112.45,2534.18ZM2351.65,2534.18C2347.67,2534.18 2343.69,2534.18 2339.69,2534.18C2338.59,2534.18 2337.7,2537.01 2337.7,2540.5C2337.7,2543.99 2338.59,2546.82 2339.69,2546.82C2343.69,2546.82 2347.67,2546.82 2351.65,2546.82C2352.75,2546.82 2353.64,2543.99 2353.64,2540.5C2353.64,2537.01 2352.75,2534.18 2351.65,2534.18ZM2375.57,2534.18C2371.59,2534.18 2367.61,2534.18 2363.61,2534.18C2362.51,2534.18 2361.62,2537.01 2361.62,2540.5C2361.62,2543.99 2362.51,2546.82 2363.61,2546.82C2367.61,2546.82 2371.59,2546.82 2375.57,2546.82C2376.67,2546.82 2377.56,2543.99 2377.56,2540.5C2377.56,2537.01 2376.67,2534.18 2375.57,2534.18ZM2327.73,2534.18C2323.75,2534.18 2319.77,2534.18 2315.77,2534.18C2314.67,2534.18 2313.78,2537.01 2313.78,2540.5C2313.78,2543.99 2314.67,2546.82 2315.77,2546.82C2319.77,2546.82 2323.75,2546.82 2327.73,2546.82C2328.83,2546.82 2329.72,2543.99 2329.72,2540.5C2329.72,2537.01 2328.83,2534.18 2327.73,2534.18ZM2279.89,2534.18C2275.91,2534.18 2271.92,2534.18 2267.93,2534.18C2266.83,2534.18 2265.93,2537.01 2265.93,2540.5C2265.93,2543.99 2266.83,2546.82 2267.93,2546.82C2271.92,2546.82 2275.91,2546.82 2279.89,2546.82C2280.99,2546.82 2281.88,2543.99 2281.88,2540.5C2281.88,2537.01 2280.99,2534.18 2279.89,2534.18ZM1945.01,2534.18L1933.05,2534.18C1931.95,2534.18 1931.06,2537.01 1931.06,2540.5C1931.06,2543.99 1931.95,2546.82 1933.05,2546.82L1945.01,2546.82C1946.11,2546.82 1947.01,2543.99 1947.01,2540.5C1947.01,2537.01 1946.11,2534.18 1945.01,2534.18ZM1968.93,2534.18C1964.94,2534.18 1960.95,2534.18 1956.97,2534.18C1955.87,2534.18 1954.98,2537.01 1954.98,2540.5C1954.98,2543.99 1955.87,2546.82 1956.97,2546.82C1960.95,2546.82 1964.94,2546.82 1968.93,2546.82C1970.03,2546.82 1970.93,2543.99 1970.93,2540.5C1970.93,2537.01 1970.03,2534.18 1968.93,2534.18ZM2399.49,2534.18C2395.52,2534.18 2391.53,2534.18 2387.53,2534.18C2386.43,2534.18 2385.53,2537.01 2385.53,2540.5C2385.53,2543.99 2386.43,2546.82 2387.53,2546.82C2391.53,2546.82 2395.52,2546.82 2399.49,2546.82C2400.59,2546.82 2401.48,2543.99 2401.48,2540.5C2401.48,2537.01 2400.59,2534.18 2399.49,2534.18ZM1681.9,2534.18C1677.88,2534.18 1673.9,2534.18 1669.94,2534.18C1668.84,2534.18 1667.94,2537.01 1667.94,2540.5C1667.94,2543.99 1668.84,2546.82 1669.94,2546.82C1673.9,2546.82 1677.88,2546.82 1681.9,2546.82C1683,2546.82 1683.89,2543.99 1683.89,2540.5C1683.89,2537.01 1683,2534.18 1681.9,2534.18ZM2040.69,2534.18C2036.7,2534.18 2032.71,2534.18 2028.73,2534.18C2027.63,2534.18 2026.74,2537.01 2026.74,2540.5C2026.74,2543.99 2027.63,2546.82 2028.73,2546.82C2032.71,2546.82 2036.7,2546.82 2040.69,2546.82C2041.79,2546.82 2042.68,2543.99 2042.68,2540.5C2042.68,2537.01 2041.79,2534.18 2040.69,2534.18ZM2064.61,2534.18C2060.62,2534.18 2056.63,2534.18 2052.65,2534.18C2051.55,2534.18 2050.66,2537.01 2050.66,2540.5C2050.66,2543.99 2051.55,2546.82 2052.65,2546.82C2056.63,2546.82 2060.62,2546.82 2064.61,2546.82C2065.71,2546.82 2066.6,2543.99 2066.6,2540.5C2066.6,2537.01 2065.71,2534.18 2064.61,2534.18ZM2088.53,2534.18L2076.57,2534.18C2075.47,2534.18 2074.57,2537.01 2074.57,2540.5C2074.57,2543.99 2075.47,2546.82 2076.57,2546.82L2088.53,2546.82C2089.63,2546.82 2090.52,2543.99 2090.52,2540.5C2090.52,2537.01 2089.63,2534.18 2088.53,2534.18ZM1897.17,2534.18L1885.21,2534.18C1884.11,2534.18 1883.22,2537.01 1883.22,2540.5C1883.22,2543.99 1884.11,2546.82 1885.21,2546.82L1897.17,2546.82C1898.27,2546.82 1899.16,2543.99 1899.16,2540.5C1899.16,2537.01 1898.27,2534.18 1897.17,2534.18ZM2255.97,2534.18L2244.01,2534.18C2242.91,2534.18 2242.01,2537.01 2242.01,2540.5C2242.01,2543.99 2242.91,2546.82 2244.01,2546.82L2255.97,2546.82C2257.07,2546.82 2257.96,2543.99 2257.96,2540.5C2257.96,2537.01 2257.07,2534.18 2255.97,2534.18ZM2232.05,2534.18L2220.09,2534.18C2218.99,2534.18 2218.09,2537.01 2218.09,2540.5C2218.09,2543.99 2218.99,2546.82 2220.09,2546.82L2232.05,2546.82C2233.15,2546.82 2234.04,2543.99 2234.04,2540.5C2234.04,2537.01 2233.15,2534.18 2232.05,2534.18ZM2208.13,2534.18L2196.17,2534.18C2195.07,2534.18 2194.17,2537.01 2194.17,2540.5C2194.17,2543.99 2195.07,2546.82 2196.17,2546.82L2208.13,2546.82C2209.23,2546.82 2210.12,2543.99 2210.12,2540.5C2210.12,2537.01 2209.23,2534.18 2208.13,2534.18ZM1921.09,2534.18L1909.13,2534.18C1908.03,2534.18 1907.14,2537.01 1907.14,2540.5C1907.14,2543.99 1908.03,2546.82 1909.13,2546.82L1921.09,2546.82C1922.19,2546.82 1923.09,2543.99 1923.09,2540.5C1923.09,2537.01 1922.19,2534.18 1921.09,2534.18ZM1992.85,2534.18L1980.89,2534.18C1979.79,2534.18 1978.9,2537.01 1978.9,2540.5C1978.9,2543.99 1979.79,2546.82 1980.89,2546.82L1992.85,2546.82C1993.95,2546.82 1994.85,2543.99 1994.85,2540.5C1994.85,2537.01 1993.95,2534.18 1992.85,2534.18ZM1873.25,2534.18C1869.26,2534.18 1865.27,2534.18 1861.29,2534.18C1860.19,2534.18 1859.3,2537.01 1859.3,2540.5C1859.3,2543.99 1860.19,2546.82 1861.29,2546.82C1865.27,2546.82 1869.26,2546.82 1873.25,2546.82C1874.35,2546.82 1875.25,2543.99 1875.25,2540.5C1875.25,2537.01 1874.35,2534.18 1873.25,2534.18ZM1753.66,2534.18C1749.65,2534.18 1745.66,2534.18 1741.7,2534.18C1740.6,2534.18 1739.7,2537.01 1739.7,2540.5C1739.7,2543.99 1740.6,2546.82 1741.7,2546.82C1745.66,2546.82 1749.65,2546.82 1753.66,2546.82C1754.76,2546.82 1755.65,2543.99 1755.65,2540.5C1755.65,2537.01 1754.76,2534.18 1753.66,2534.18ZM1705.82,2534.18C1701.81,2534.18 1697.82,2534.18 1693.86,2534.18C1692.76,2534.18 1691.86,2537.01 1691.86,2540.5C1691.86,2543.99 1692.76,2546.82 1693.86,2546.82C1697.82,2546.82 1701.81,2546.82 1705.82,2546.82C1706.92,2546.82 1707.81,2543.99 1707.81,2540.5C1707.81,2537.01 1706.92,2534.18 1705.82,2534.18ZM1825.42,2534.18L1813.46,2534.18C1812.36,2534.18 1811.46,2537.01 1811.46,2540.5C1811.46,2543.99 1812.36,2546.82 1813.46,2546.82L1825.42,2546.82C1826.52,2546.82 1827.41,2543.99 1827.41,2540.5C1827.41,2537.01 1826.52,2534.18 1825.42,2534.18ZM2016.77,2534.18L2004.81,2534.18C2003.71,2534.18 2002.82,2537.01 2002.82,2540.5C2002.82,2543.99 2003.71,2546.82 2004.81,2546.82L2016.77,2546.82C2017.87,2546.82 2018.76,2543.99 2018.76,2540.5C2018.76,2537.01 2017.87,2534.18 2016.77,2534.18ZM2136.37,2534.18L2124.41,2534.18C2123.31,2534.18 2122.41,2537.01 2122.41,2540.5C2122.41,2543.99 2123.31,2546.82 2124.41,2546.82L2136.37,2546.82C2137.47,2546.82 2138.36,2543.99 2138.36,2540.5C2138.36,2537.01 2137.47,2534.18 2136.37,2534.18ZM2160.29,2534.18C2156.3,2534.18 2152.32,2534.18 2148.33,2534.18C2147.23,2534.18 2146.33,2537.01 2146.33,2540.5C2146.33,2543.99 2147.23,2546.82 2148.33,2546.82C2152.32,2546.82 2156.3,2546.82 2160.29,2546.82C2161.39,2546.82 2162.28,2543.99 2162.28,2540.5C2162.28,2537.01 2161.39,2534.18 2160.29,2534.18ZM2184.21,2534.18C2180.22,2534.18 2176.24,2534.18 2172.25,2534.18C2171.15,2534.18 2170.25,2537.01 2170.25,2540.5C2170.25,2543.99 2171.15,2546.82 2172.25,2546.82C2176.24,2546.82 2180.22,2546.82 2184.21,2546.82C2185.31,2546.82 2186.2,2543.99 2186.2,2540.5C2186.2,2537.01 2185.31,2534.18 2184.21,2534.18ZM1849.34,2534.18L1837.38,2534.18C1836.28,2534.18 1835.38,2537.01 1835.38,2540.5C1835.38,2543.99 1836.28,2546.82 1837.38,2546.82L1849.34,2546.82C1850.43,2546.82 1851.33,2543.99 1851.33,2540.5C1851.33,2537.01 1850.43,2534.18 1849.34,2534.18ZM1801.5,2534.18L1789.54,2534.18C1788.44,2534.18 1787.54,2537.01 1787.54,2540.5C1787.54,2543.99 1788.44,2546.82 1789.54,2546.82L1801.5,2546.82C1802.6,2546.82 1803.49,2543.99 1803.49,2540.5C1803.49,2537.01 1802.6,2534.18 1801.5,2534.18ZM1777.58,2534.18L1765.62,2534.18C1764.52,2534.18 1763.62,2537.01 1763.62,2540.5C1763.62,2543.99 1764.52,2546.82 1765.62,2546.82L1777.58,2546.82C1778.68,2546.82 1779.57,2543.99 1779.57,2540.5C1779.57,2537.01 1778.68,2534.18 1777.58,2534.18ZM1729.74,2534.18L1717.78,2534.18C1716.68,2534.18 1715.78,2537.01 1715.78,2540.5C1715.78,2543.99 1716.68,2546.82 1717.78,2546.82L1729.74,2546.82C1730.84,2546.82 1731.73,2543.99 1731.73,2540.5C1731.73,2537.01 1730.84,2534.18 1729.74,2534.18Z" fill="inherit" transform="matrix(1.04517 0 0 .32945 -1341.35 -806.94)"/></g></g></g></svg>