<?xml version="1.0" encoding="UTF-8" standalone="no"?><svg xmlns="http://www.w3.org/2000/svg" xmlns:xlink="http://www.w3.org/1999/xlink" fill="#31a9ba" height="368" preserveAspectRatio="xMidYMid meet" version="1" viewBox="72.0 72.0 368.0 368.0" width="368" zoomAndPan="magnify"><g id="change1_1"><path d="M18,39h-8c-0.552,0 -1,0.447 -1,1v14c0,0.553 0.448,1 1,1h8c0.552,0 1,-0.447 1,-1v-14c0,-0.553 -0.448,-1 -1,-1Z" fill="inherit" transform="scale(8)"/><path d="M30,35h-8c-0.552,0 -1,0.447 -1,1v18c0,0.553 0.448,1 1,1h8c0.552,0 1,-0.447 1,-1v-18c0,-0.553 -0.448,-1 -1,-1Z" fill="inherit" transform="scale(8)"/><path d="M42,29h-8c-0.553,0 -1,0.448 -1,1v24c0,0.553 0.447,1 1,1h8c0.553,0 1,-0.447 1,-1v-24c0,-0.552 -0.447,-1 -1,-1Z" fill="inherit" transform="scale(8)"/><path d="M54,21h-8c-0.553,0 -1,0.448 -1,1v32c0,0.553 0.447,1 1,1h8c0.553,0 1,-0.447 1,-1v-32c0,-0.552 -0.447,-1 -1,-1Z" fill="inherit" transform="scale(8)"/><path d="M10,31c16.165,0 30.143,-10.968 36.729,-18.269v3.269c0,0.552 0.447,1 1,1c0.553,0 1,-0.448 1,-1v-6c0,-0.021 -0.011,-0.037 -0.012,-0.057c-0.004,-0.07 -0.022,-0.135 -0.041,-0.202c-0.017,-0.061 -0.029,-0.12 -0.056,-0.175c-0.026,-0.054 -0.064,-0.1 -0.101,-0.148c-0.042,-0.058 -0.083,-0.113 -0.136,-0.16c-0.016,-0.014 -0.022,-0.032 -0.038,-0.044c-0.033,-0.026 -0.074,-0.034 -0.109,-0.055c-0.061,-0.036 -0.118,-0.07 -0.186,-0.093c-0.066,-0.022 -0.131,-0.032 -0.199,-0.04c-0.041,-0.006 -0.079,-0.026 -0.122,-0.026h-5.729c-0.553,0 -1,0.448 -1,1c0,0.552 0.447,1 1,1h3.591c-6.167,7.017 -19.814,18 -35.591,18c-0.552,0 -1,0.448 -1,1c0,0.552 0.448,1 1,1Z" fill="inherit" transform="scale(8)"/></g></svg>