<?xml version="1.0" encoding="UTF-8" standalone="no"?><svg xmlns="http://www.w3.org/2000/svg" xmlns:xlink="http://www.w3.org/1999/xlink" fill="#29210d" height="385.5" preserveAspectRatio="xMidYMid meet" version="1" viewBox="0.4 -0.8 311.7 385.5" width="311.7" zoomAndPan="magnify"><g><g id="change1_1"><path d="M 299.523438 178.105469 C 284.867188 285.496094 178.398438 362.59375 157.539062 376.503906 C 155.410156 377.9375 152.628906 377.9375 150.5 376.503906 C 128.125 361.601562 6.800781 273.921875 6.800781 153.601562 C 6.792969 114.078125 22.679688 76.210938 50.886719 48.523438 C 79.09375 20.835938 117.25 5.65625 156.765625 6.398438 C 245.761719 8.058594 311.566406 89.90625 299.523438 178.105469 Z M 299.523438 178.105469" fill="#e8bb14"/></g><g id="change2_1"><path d="M 156.765625 6.398438 C 152.628906 6.324219 148.546875 6.464844 144.496094 6.71875 C 229.949219 12.351562 292.046875 92.191406 280.324219 178.078125 C 266.753906 277.476562 174.589844 350.878906 144.398438 372.300781 C 146.84375 374.035156 148.925781 375.460938 150.480469 376.5 C 152.609375 377.929688 155.390625 377.929688 157.519531 376.5 C 178.378906 362.578125 284.878906 285.484375 299.503906 178.097656 C 311.566406 89.90625 245.761719 8.058594 156.765625 6.398438 Z M 156.765625 6.398438" fill="#d69e0f"/></g><g id="change3_1"><path d="M 115.601562 300.800781 L 154 339.199219 L 192.398438 300.800781 Z M 115.601562 300.800781" fill="#f5f5f5"/></g><g id="change3_2"><path d="M 275.601562 153.601562 C 275.601562 220.757812 221.15625 275.199219 154 275.199219 C 86.84375 275.199219 32.398438 220.757812 32.398438 153.601562 C 32.398438 86.441406 86.84375 32 154 32 C 221.15625 32 275.601562 86.441406 275.601562 153.601562 Z M 275.601562 153.601562" fill="#f5f5f5"/></g><g id="change4_1"><path d="M 154 32 C 150.761719 32 147.601562 32.238281 144.398438 32.488281 C 207.621094 37.441406 256.394531 90.1875 256.394531 153.601562 C 256.394531 217.015625 207.621094 269.761719 144.398438 274.714844 C 147.601562 274.964844 150.761719 275.199219 154 275.199219 C 221.15625 275.199219 275.601562 220.757812 275.601562 153.601562 C 275.601562 86.441406 221.15625 32 154 32 Z M 154 32" fill="#cfd8dc"/></g><g id="change1_2"><path d="M 154 204.800781 L 107.84375 214.96875 C 107.238281 215.085938 106.613281 214.863281 106.214844 214.390625 C 105.820312 213.917969 105.707031 213.269531 105.921875 212.691406 C 106.792969 210.273438 107.636719 207.890625 108.445312 205.503906 C 109.015625 203.847656 109.621094 202.226562 110.191406 200.570312 C 111.070312 198.078125 110.902344 197.371094 108.847656 195.660156 C 98.113281 186.753906 87.394531 177.832031 76.6875 168.894531 C 72.816406 165.695312 69.007812 162.496094 65.117188 159.296875 C 64.042969 158.4375 64.207031 158.09375 65.355469 157.574219 C 68.113281 156.292969 70.800781 154.980469 73.527344 153.671875 C 74.53125 153.378906 75.351562 152.648438 75.757812 151.683594 C 76.160156 150.714844 76.109375 149.621094 75.613281 148.699219 L 67.804688 123.867188 C 67.613281 123.292969 67.738281 122.664062 68.132812 122.210938 C 68.527344 121.757812 69.132812 121.542969 69.726562 121.652344 C 72.214844 122.167969 74.640625 122.726562 77.089844 123.246094 C 82.210938 124.34375 87.332031 125.484375 92.453125 126.625 C 93.316406 126.972656 94.292969 126.921875 95.121094 126.492188 C 95.945312 126.0625 96.546875 125.292969 96.757812 124.382812 C 98.203125 120.960938 99.652344 117.542969 101.035156 114.054688 C 101.5 112.914062 101.738281 112.640625 102.71875 113.707031 C 108.835938 120.550781 115.023438 127.316406 121.21875 134.117188 C 121.449219 134.398438 121.6875 134.636719 121.921875 134.917969 C 122.875 136.085938 124.515625 136.429688 125.859375 135.742188 C 127.195312 134.988281 127.847656 133.421875 127.441406 131.941406 C 126.964844 129.214844 126.429688 126.488281 125.921875 123.761719 C 124.308594 115.328125 121.117188 98.609375 118.242188 83.617188 C 118.105469 82.964844 118.363281 82.289062 118.902344 81.898438 C 119.445312 81.507812 120.164062 81.472656 120.738281 81.8125 C 126.601562 85.3125 131.726562 88.359375 133.046875 89.121094 C 133.855469 89.8125 134.964844 90.042969 135.984375 89.738281 C 137.003906 89.429688 137.796875 88.621094 138.089844 87.597656 C 141.25 81.234375 147.183594 69.203125 152.445312 58.515625 C 152.71875 57.941406 153.296875 57.574219 153.9375 57.574219 C 154.574219 57.574219 155.152344 57.941406 155.425781 58.515625 C 160.6875 69.203125 166.621094 81.234375 169.78125 87.597656 C 170.074219 88.621094 170.867188 89.429688 171.886719 89.738281 C 172.90625 90.042969 174.015625 89.8125 174.824219 89.121094 C 176.144531 88.359375 181.269531 85.3125 187.132812 81.8125 C 187.707031 81.472656 188.429688 81.507812 188.96875 81.898438 C 189.507812 82.289062 189.769531 82.964844 189.628906 83.617188 C 186.769531 98.609375 183.574219 115.328125 181.949219 123.761719 C 181.441406 126.488281 180.90625 129.214844 180.433594 131.941406 C 180.023438 133.421875 180.675781 134.988281 182.011719 135.742188 C 183.359375 136.464844 185.03125 136.132812 186 134.949219 C 186.238281 134.667969 186.472656 134.433594 186.703125 134.152344 C 192.898438 127.347656 199.089844 120.582031 205.207031 113.742188 C 206.1875 112.671875 206.421875 112.945312 206.890625 114.085938 C 208.273438 117.574219 209.71875 120.992188 211.164062 124.414062 C 211.378906 125.324219 211.976562 126.09375 212.804688 126.523438 C 213.632812 126.957031 214.605469 127.003906 215.472656 126.65625 C 220.59375 125.515625 225.710938 124.378906 230.832031 123.277344 C 233.28125 122.757812 235.707031 122.203125 238.199219 121.683594 C 238.789062 121.574219 239.394531 121.789062 239.789062 122.242188 C 240.183594 122.699219 240.308594 123.328125 240.117188 123.898438 L 232.308594 148.730469 C 231.816406 149.652344 231.761719 150.75 232.167969 151.714844 C 232.570312 152.679688 233.390625 153.410156 234.398438 153.703125 C 237.125 155.015625 239.8125 156.359375 242.570312 157.605469 C 243.714844 158.125 243.847656 158.46875 242.804688 159.328125 C 238.902344 162.46875 235.125 165.726562 231.234375 168.929688 C 220.542969 177.84375 209.824219 186.765625 199.074219 195.691406 C 197.019531 197.390625 196.855469 198.113281 197.730469 200.601562 C 198.300781 202.257812 198.910156 203.878906 199.476562 205.535156 C 200.285156 207.921875 201.128906 210.304688 202 212.722656 C 202.21875 213.300781 202.105469 213.953125 201.707031 214.425781 C 201.308594 214.894531 200.6875 215.117188 200.078125 215 Z M 154 204.800781" fill="#e8bb14"/></g><g id="change2_2"><path d="M 150.644531 87.628906 C 150.9375 88.652344 151.730469 89.460938 152.75 89.769531 C 153.773438 90.078125 154.878906 89.84375 155.691406 89.152344 C 156.96875 88.429688 161.691406 85.605469 167.210938 82.316406 C 163.9375 75.699219 159.53125 66.746094 155.492188 58.546875 C 155.21875 57.972656 154.636719 57.605469 154 57.605469 C 153.363281 57.605469 152.78125 57.972656 152.507812 58.546875 C 149.828125 64 146.960938 69.761719 144.398438 75.007812 C 146.875 80 149.097656 84.511719 150.644531 87.628906 Z M 150.644531 87.628906" fill="#d69e0f"/></g><g id="change2_3"><path d="M 169.761719 87.46875 C 167.105469 101.402344 164.304688 116.070312 162.824219 123.789062 C 162.320312 126.523438 161.78125 129.246094 161.308594 131.972656 C 160.902344 133.453125 161.554688 135.019531 162.890625 135.777344 C 164.226562 136.449219 165.851562 136.105469 166.800781 134.949219 C 167.035156 134.667969 167.273438 134.433594 167.503906 134.152344 C 172.808594 128.320312 178.101562 122.507812 183.363281 116.660156 C 185.085938 107.648438 187.472656 95.15625 189.667969 83.648438 C 189.808594 82.996094 189.546875 82.324219 189.007812 81.933594 C 188.46875 81.542969 187.746094 81.507812 187.171875 81.84375 C 181.308594 85.34375 176.183594 88.390625 174.863281 89.152344 C 174.054688 89.84375 172.945312 90.078125 171.925781 89.769531 C 170.90625 89.460938 170.113281 88.652344 169.820312 87.628906 Z M 169.761719 87.46875" fill="#d69e0f"/></g><g id="change2_4"><path d="M 242.640625 157.605469 C 239.882812 156.328125 237.195312 155.015625 234.46875 153.703125 C 233.460938 153.410156 232.644531 152.679688 232.238281 151.714844 C 231.832031 150.75 231.886719 149.652344 232.378906 148.730469 L 240.1875 123.898438 C 240.378906 123.328125 240.253906 122.699219 239.859375 122.242188 C 239.464844 121.789062 238.859375 121.574219 238.269531 121.683594 C 235.777344 122.203125 233.355469 122.757812 230.902344 123.277344 C 227.441406 124.019531 223.964844 124.792969 220.496094 125.566406 L 213.210938 148.730469 C 212.71875 149.652344 212.664062 150.75 213.070312 151.714844 C 213.476562 152.679688 214.292969 153.410156 215.300781 153.703125 C 218.027344 155.015625 220.714844 156.359375 223.472656 157.605469 C 224.617188 158.125 224.753906 158.464844 223.707031 159.328125 C 219.804688 162.46875 216.027344 165.726562 212.136719 168.929688 C 201.445312 177.835938 190.726562 186.757812 179.976562 195.691406 C 177.921875 197.390625 177.757812 198.113281 178.632812 200.601562 C 179.203125 202.257812 179.8125 203.878906 180.378906 205.535156 C 181.019531 207.371094 181.660156 209.214844 182.300781 211.066406 L 200.167969 215 C 200.777344 215.117188 201.398438 214.894531 201.796875 214.425781 C 202.195312 213.953125 202.304688 213.300781 202.089844 212.722656 C 201.21875 210.304688 200.375 207.921875 199.566406 205.535156 C 199 203.878906 198.390625 202.257812 197.820312 200.601562 C 196.945312 198.113281 197.109375 197.402344 199.164062 195.691406 C 209.898438 186.785156 220.621094 177.863281 231.324219 168.929688 C 235.164062 165.726562 239.003906 162.527344 242.894531 159.328125 C 243.953125 158.464844 243.785156 158.125 242.640625 157.605469 Z M 242.640625 157.605469" fill="#d69e0f"/></g><g id="change5_1"><path d="M 146.960938 381.855469 C 151.246094 384.71875 156.832031 384.71875 161.117188 381.855469 C 174.300781 373.054688 290.398438 292.589844 305.890625 178.976562 C 312.070312 133.734375 298.625 88.007812 268.945312 53.3125 C 241.070312 20.15625 200.191406 0.707031 156.878906 0 C 115.644531 -0.773438 75.832031 15.066406 46.402344 43.957031 C 16.96875 72.847656 0.394531 112.359375 0.398438 153.601562 C 0.398438 280.410156 131.933594 371.839844 146.960938 381.855469 Z M 55.363281 53.121094 C 81.628906 27.179688 117.085938 12.6875 154 12.800781 L 156.664062 12.800781 C 196.308594 13.464844 233.714844 31.28125 259.222656 61.636719 C 286.519531 93.5625 298.878906 135.625 293.1875 177.242188 C 278.433594 285.285156 166.679688 362.714844 154.03125 371.199219 C 139.621094 361.601562 13.199219 273.753906 13.199219 153.601562 C 13.078125 115.78125 28.289062 79.527344 55.363281 53.121094 Z M 55.363281 53.121094" fill="inherit"/></g><g id="change5_2"><path d="M 192.398438 294.398438 L 115.601562 294.398438 C 113.011719 294.402344 110.679688 295.960938 109.6875 298.351562 C 108.699219 300.742188 109.246094 303.496094 111.074219 305.324219 L 149.476562 343.726562 C 151.972656 346.222656 156.027344 346.222656 158.523438 343.726562 L 196.925781 305.324219 C 198.753906 303.496094 199.300781 300.742188 198.3125 298.351562 C 197.320312 295.960938 194.988281 294.402344 192.398438 294.398438 Z M 154 330.152344 L 131.050781 307.199219 L 176.949219 307.199219 Z M 154 330.152344" fill="inherit"/></g><g id="change5_3"><path d="M 282 153.601562 C 282 82.90625 224.691406 25.601562 154 25.601562 C 83.308594 25.601562 26 82.90625 26 153.601562 C 26 224.292969 83.308594 281.601562 154 281.601562 C 224.660156 281.519531 281.917969 224.257812 282 153.601562 Z M 38.800781 153.601562 C 38.800781 89.976562 90.375 38.398438 154 38.398438 C 217.625 38.398438 269.199219 89.976562 269.199219 153.601562 C 269.199219 217.222656 217.625 268.800781 154 268.800781 C 90.40625 268.726562 38.875 217.191406 38.800781 153.601562 Z M 38.800781 153.601562" fill="inherit"/></g><g id="change5_4"><path d="M 160.398438 243.199219 L 160.398438 212.761719 L 198.800781 221.230469 C 201.644531 221.839844 204.597656 220.863281 206.511719 218.667969 C 208.46875 216.433594 209.066406 213.3125 208.066406 210.515625 C 207.203125 208.132812 206.378906 205.796875 205.570312 203.417969 L 204.292969 199.710938 C 213.917969 191.71875 223.535156 183.714844 233.148438 175.699219 L 240.007812 169.996094 C 242.292969 168.078125 244.578125 166.15625 246.882812 164.328125 C 249.105469 162.832031 250.292969 160.210938 249.953125 157.554688 C 249.613281 154.898438 247.808594 152.660156 245.28125 151.769531 C 243.363281 150.894531 241.441406 149.957031 239.523438 149.023438 L 239.09375 148.8125 L 246.308594 125.867188 C 247.199219 123.121094 246.566406 120.109375 244.640625 117.957031 C 242.714844 115.804688 239.792969 114.835938 236.964844 115.417969 L 229.550781 117.019531 C 225.160156 117.964844 220.738281 118.933594 216.277344 119.929688 C 215.125 117.214844 213.988281 114.484375 212.867188 111.65625 C 212.097656 109.113281 209.964844 107.222656 207.351562 106.761719 C 204.738281 106.300781 202.085938 107.347656 200.496094 109.472656 C 196.65625 113.789062 192.769531 118.085938 188.839844 122.363281 L 196.007812 84.851562 C 196.625 81.722656 195.347656 78.527344 192.742188 76.691406 C 190.140625 74.851562 186.699219 74.71875 183.957031 76.34375 L 174.28125 82.105469 C 170.960938 75.390625 165.851562 65.050781 161.269531 55.730469 C 159.921875 52.960938 157.113281 51.207031 154.03125 51.207031 C 150.953125 51.207031 148.140625 52.960938 146.792969 55.730469 C 142.21875 65.042969 137.125 75.367188 133.78125 82.113281 L 124.117188 76.351562 C 121.378906 74.71875 117.9375 74.851562 115.332031 76.6875 C 112.722656 78.519531 111.4375 81.714844 112.046875 84.84375 L 119.222656 122.367188 C 115.320312 118.074219 111.421875 113.777344 107.523438 109.425781 C 105.898438 107.375 103.289062 106.359375 100.699219 106.769531 C 98.089844 107.296875 95.972656 109.195312 95.164062 111.730469 C 94.101562 114.414062 93 117.0625 91.785156 119.9375 C 87.359375 118.949219 82.929688 117.976562 78.488281 117.011719 L 71.140625 115.429688 C 68.316406 114.835938 65.390625 115.785156 63.453125 117.921875 C 61.519531 120.0625 60.863281 123.066406 61.738281 125.816406 L 68.964844 148.820312 L 68.539062 149.023438 C 66.621094 149.957031 64.699219 150.894531 62.742188 151.777344 C 60.226562 152.671875 58.425781 154.902344 58.085938 157.550781 C 57.75 160.199219 58.925781 162.8125 61.136719 164.3125 C 63.460938 166.183594 65.742188 168.089844 68.027344 169.996094 L 74.890625 175.699219 L 103.742188 199.726562 L 102.421875 203.457031 C 101.628906 205.796875 100.804688 208.132812 99.921875 210.566406 C 98.945312 213.351562 99.546875 216.449219 101.496094 218.667969 C 103.421875 220.867188 106.390625 221.847656 109.25 221.230469 L 147.652344 212.773438 L 147.652344 243.199219 C 147.652344 246.734375 150.515625 249.601562 154.050781 249.601562 C 157.585938 249.601562 160.453125 246.734375 160.453125 243.199219 Z M 114.75 206.894531 L 116.238281 202.695312 C 118.207031 198.4375 116.808594 193.382812 112.9375 190.738281 C 102.964844 182.457031 93.007812 174.167969 83.054688 165.867188 L 76.195312 160.167969 L 75.707031 159.757812 L 76.347656 159.449219 C 81.289062 157.410156 83.683594 151.785156 81.726562 146.808594 L 76.328125 129.652344 C 81.246094 130.714844 86.191406 131.804688 91.171875 132.921875 C 96.136719 134.277344 101.285156 131.476562 102.84375 126.574219 C 103.152344 125.855469 103.484375 125.132812 103.761719 124.410156 C 106.839844 127.824219 109.929688 131.222656 113.027344 134.605469 L 116.898438 138.875 C 116.96875 138.949219 117.371094 139.398438 117.449219 139.46875 C 120.398438 142.667969 125.140625 143.457031 128.96875 141.390625 C 132.757812 139.359375 134.734375 135.0625 133.8125 130.867188 C 133.5 129.054688 133.175781 127.246094 132.816406 125.433594 L 126.574219 92.699219 L 129.847656 94.617188 C 132.195312 96.238281 135.148438 96.710938 137.882812 95.898438 C 140.617188 95.089844 142.839844 93.085938 143.925781 90.453125 C 146.257812 85.765625 150.082031 78.007812 154.039062 69.972656 C 157.992188 78.003906 161.828125 85.765625 164.164062 90.453125 C 165.316406 93.050781 167.53125 95.027344 170.242188 95.878906 C 172.925781 96.605469 175.792969 96.15625 178.128906 94.644531 C 178.671875 94.328125 179.863281 93.625 181.480469 92.664062 L 175.195312 125.441406 C 174.859375 127.257812 174.519531 129.074219 174.238281 130.726562 C 173.261719 134.988281 175.257812 139.375 179.105469 141.441406 C 182.925781 143.460938 187.628906 142.652344 190.550781 139.46875 C 190.621094 139.398438 191.394531 138.535156 191.464844 138.457031 L 194.972656 134.617188 C 198.070312 131.203125 201.160156 127.804688 204.238281 124.421875 C 204.585938 125.246094 204.9375 126.078125 205.300781 126.9375 C 206.957031 131.695312 212.046875 134.324219 216.886719 132.921875 C 221.8125 131.820312 226.769531 130.71875 231.671875 129.664062 L 226.273438 146.816406 C 224.316406 151.808594 226.726562 157.449219 231.691406 159.480469 L 232.292969 159.769531 L 231.804688 160.179688 L 224.945312 165.882812 C 215.003906 174.164062 205.046875 182.449219 195.074219 190.738281 C 191.207031 193.371094 189.800781 198.414062 191.746094 202.667969 L 193.25 206.90625 L 155.375 198.585938 L 155.335938 198.585938 C 154.398438 198.386719 153.425781 198.398438 152.488281 198.625 Z M 114.75 206.894531" fill="inherit"/></g></g></svg>