<?xml version="1.0" encoding="UTF-8" standalone="no"?><svg xmlns="http://www.w3.org/2000/svg" xmlns:xlink="http://www.w3.org/1999/xlink" fill="#ffffff" height="17" preserveAspectRatio="xMidYMid meet" version="1" viewBox="-0.0 -0.0 10.5 17.0" width="10.5" zoomAndPan="magnify"><g id="change1_1"><path d="M5.25,0A5.26,5.26,0,0,0,0,5.25C0,7,1.77,9.93,3.19,12H1.86L.61,17H9.89L8.64,12H7.31C8.73,9.93,10.5,7,10.5,5.25A5.26,5.26,0,0,0,5.25,0ZM7.86,13l.75,3H1.89l.75-3H3.88c.48.67.85,1.15,1,1.31l.4.51.4-.51c.12-.16.49-.64,1-1.31Zm-2.61.17C3.78,11.19,1,7.08,1,5.25a4.25,4.25,0,0,1,8.5,0C9.5,7.08,6.72,11.19,5.25,13.17Z" fill="inherit"/><path d="M5.25,3.5a2,2,0,1,0,2,2A2,2,0,0,0,5.25,3.5Zm0,3a1,1,0,1,1,1-1A1,1,0,0,1,5.25,6.5Z" fill="inherit"/></g></svg>