<?xml version="1.0" encoding="UTF-8" standalone="no"?><svg xmlns="http://www.w3.org/2000/svg" xmlns:xlink="http://www.w3.org/1999/xlink" fill="#000000" height="44" preserveAspectRatio="xMidYMid meet" version="1" viewBox="0.0 0.0 33.6 44.0" width="33.6" zoomAndPan="magnify"><defs><clipPath id="a"><path d="M 0 0 L 33.640625 0 L 33.640625 38 L 0 38 Z M 0 0"/></clipPath></defs><g><g clip-path="url(#a)" id="change1_5"><path d="M 28.039062 0 L 5.550781 0 C 2.5 0 0 2.496094 0 5.550781 L 0 32.15625 C 0 35.207031 2.5 37.707031 5.550781 37.707031 L 6.523438 37.707031 C 6.429688 37.242188 6.429688 36.738281 6.429688 36.226562 C 6.429688 35.71875 6.476562 35.253906 6.523438 34.746094 L 5.550781 34.746094 C 4.117188 34.746094 2.914062 33.589844 2.914062 32.109375 L 2.914062 5.550781 C 2.914062 4.117188 4.070312 2.960938 5.550781 2.960938 L 28.039062 2.960938 C 29.472656 2.960938 30.628906 4.117188 30.628906 5.550781 L 30.628906 32.15625 C 30.628906 33.589844 29.472656 34.792969 28.039062 34.792969 L 27.066406 34.792969 C 27.160156 35.257812 27.160156 35.765625 27.160156 36.273438 C 27.160156 36.78125 27.160156 37.246094 27.113281 37.707031 L 28.082031 37.707031 C 31.136719 37.707031 33.636719 35.207031 33.636719 32.15625 L 33.636719 5.550781 C 33.589844 2.5 31.089844 0 28.039062 0" fill="#ffffff"/></g><g id="change1_1"><path d="M 24.519531 7.589844 L 9.070312 7.589844 C 8.234375 7.589844 7.585938 8.234375 7.585938 9.070312 C 7.585938 9.902344 8.234375 10.550781 9.070312 10.550781 L 24.476562 10.550781 C 25.308594 10.550781 25.957031 9.902344 25.957031 9.070312 C 26 8.234375 25.308594 7.589844 24.519531 7.589844" fill="#ffffff"/></g><g id="change1_2"><path d="M 24.519531 14.851562 L 9.070312 14.851562 C 8.234375 14.851562 7.585938 15.5 7.585938 16.332031 C 7.585938 17.164062 8.234375 17.8125 9.070312 17.8125 L 24.476562 17.8125 C 25.308594 17.8125 25.957031 17.164062 25.957031 16.332031 C 26 15.5 25.308594 14.851562 24.519531 14.851562" fill="#ffffff"/></g><g id="change1_3"><path d="M 24.519531 22.117188 L 9.070312 22.117188 C 8.234375 22.117188 7.585938 22.765625 7.585938 23.59375 C 7.585938 24.429688 8.234375 25.078125 9.070312 25.078125 L 24.476562 25.078125 C 25.308594 25.078125 25.957031 24.429688 25.957031 23.59375 C 26 22.765625 25.308594 22.117188 24.519531 22.117188" fill="#ffffff"/></g><g id="change1_4"><path d="M 20.402344 35.582031 L 16.65625 39.328125 C 16.378906 39.605469 16.054688 39.742188 15.683594 39.742188 C 15.316406 39.742188 14.992188 39.605469 14.714844 39.328125 L 12.863281 37.476562 C 12.351562 36.96875 12.351562 36.085938 12.863281 35.582031 C 13.371094 35.070312 14.25 35.070312 14.757812 35.582031 L 15.683594 36.503906 L 18.460938 33.726562 C 18.96875 33.21875 19.847656 33.21875 20.359375 33.726562 C 20.957031 34.191406 20.957031 35.070312 20.402344 35.582031 Z M 16.792969 28.546875 C 12.539062 28.546875 9.070312 32.015625 9.070312 36.273438 C 9.070312 40.53125 12.539062 44 16.792969 44 C 21.050781 44 24.519531 40.484375 24.519531 36.226562 C 24.519531 31.96875 21.050781 28.546875 16.792969 28.546875" fill="#ffffff"/></g></g></svg>