<?xml version="1.0" encoding="UTF-8" standalone="no"?><svg xmlns="http://www.w3.org/2000/svg" xmlns:xlink="http://www.w3.org/1999/xlink" fill="#268d92" height="128" preserveAspectRatio="xMidYMid meet" version="1" viewBox="-0.2 0.0 128.3 128.0" width="128.3" zoomAndPan="magnify"><g id="change1_1"><path d="M100,26c7.2,0,13-5.8,13-13s-5.8-13-13-13S87,5.8,87,13S92.8,26,100,26z M100,4c5,0,9,4,9,9s-4,9-9,9s-9-4-9-9S95,4,100,4z" fill="inherit"/></g><g id="change1_2"><path d="M28,26c7.2,0,13-5.8,13-13S35.2,0,28,0S15,5.8,15,13S20.8,26,28,26z M28,4c5,0,9,4,9,9s-4,9-9,9s-9-4-9-9S23,4,28,4z" fill="inherit"/></g><g id="change1_3"><path d="M32,46h-28l3-15.8c0,0,0-0.1,0-0.1c0.1-0.7,0.6-1.2,1.4-1.3l9.9-1.8c-1.4-1-2.6-2.1-3.6-3.4l-7,1.3 c-2.4,0.4-4.4,2.3-4.7,4.7L0,45.7c-0.2,1.1,0.2,2.2,0.9,3C1.6,49.5,2.7,50,3.7,50H33C32.3,48.8,32,47.4,32,46z" fill="inherit"/></g><g id="change1_4"><path d="M128,45.6l-3-16c-0.3-2.4-2.2-4.3-4.6-4.7l-7-1.3c-1,1.3-2.3,2.4-3.6,3.4l9.9,1.8c0.7,0.1,1.3,0.7,1.3,1.3c0,0,0,0.1,0,0.1 l3,15.8H96c0,1.4-0.3,2.8-1,4h29.2c1.1,0,2.1-0.5,2.8-1.3C127.8,47.9,128.1,46.8,128,45.6z" fill="inherit"/></g><g id="change1_5"><path d="M64,26c7.2,0,13-5.8,13-13S71.2,0,64,0S51,5.8,51,13S56.8,26,64,26z M64,4c5,0,9,4,9,9s-4,9-9,9s-9-4-9-9S59,4,64,4z" fill="inherit"/></g><g id="change1_6"><path d="M73.7,27l9.9,1.8c0.7,0.1,1.3,0.7,1.3,1.3c0,0,0,0.1,0,0.1L88,46H70.6l0,0c2.5,0.2,4.8,1.3,6.6,3.1c0.7-0.1,1.4-0.2,2.1-0.2 c0,0,0.1,0,0.1,0c1.7,0,3.3,0.4,4.7,1.1h4.2c1.1,0,2.1-0.5,2.8-1.3c0.7-0.8,1-1.9,0.9-3.1l-3-16c-0.3-2.4-2.2-4.3-4.6-4.7l-7-1.3 C76.3,24.9,75.1,26,73.7,27z" fill="inherit"/></g><g id="change1_7"><path d="M39.1,29.6l-3,16.1c-0.2,1.1,0.2,2.2,0.9,3c0.7,0.8,1.7,1.3,2.8,1.3h9l0-4h-8.7l3-15.8c0,0,0-0.1,0-0.1 c0.1-0.7,0.6-1.2,1.4-1.3l9.9-1.8c-1.4-1-2.6-2.1-3.6-3.4l-7,1.3C41.3,25.2,39.4,27.2,39.1,29.6z" fill="inherit"/></g><g id="change1_8"><path d="M89.1,56.4c-1.2,0-2.4,0.3-3.4,0.9c-0.3-0.9-0.9-1.7-1.6-2.4c-1.3-1.3-3-2-4.9-2c-1.3,0-2.5,0.4-3.6,1 c-0.3-0.7-0.8-1.4-1.4-2c-1.3-1.3-3.1-2-4.9-2c-1,0-2,0.2-2.9,0.7c0,0,0.1-12.7,0.1-12.7c0-3.8-3.2-6.9-6.9-6.9 c-3.8,0-6.9,3.1-6.9,6.9l-0.3,38.3l-5-4.8c-3.9-3.9-10.4-3.9-14.4,0c-0.7,0.6-1.1,1.4-1.2,2.2c-0.1,0.9,0.3,1.8,0.9,2.5l8.1,8.1 c3.2,3.1,7.8,8.4,10.6,12.5c2.7,3.8,4.6,7.1,5.9,10.2c1.2-0.5,2.6-0.8,4-0.9c-1.4-3.6-3.5-7.3-6.6-11.6c-3.1-4.4-7.9-9.9-11.1-13 l-7.5-7.5c2.5-2.1,6.1-2,8.4,0.3c0,0,8.3,8.1,8.3,8.1c1.2,1.2,3.4,0.3,3.4-1.4l0.3-43c0-1.6,1.3-3,3-3c1.6,0,2.9,1.3,2.9,2.9 c0,0-0.3,33.1-0.3,33.1c0,1.1,0.9,2,1.9,2c1.1,0,2.1-0.9,2.1-2l0.1-14.1c0-1.6,1.3-3,3-3c1.5,0,2.9,1.3,2.9,2.9L72.3,71 c0,1.1,0.9,2,2,2c1.1,0,2-0.9,2-2l0.1-11.1c0-1.6,1.3-3,3-3c1.6,0,2.9,1.3,2.9,2.9l-0.1,11.1c0,0,0,0.1,0,0.1c0,1.1,0.9,2,2,2 c1.1,0,2-0.9,2-2l0.1-7.6c0-1.6,1.3-2.9,3-3c1.6,0,2.9,1.3,2.9,2.9l-0.2,21.2c0,3.2-0.4,9.4-2.9,15.2c-1.2,2.8-1.7,4.1-2.3,6.4 c1.4,0.1,2.7,0.4,3.9,0.9c0.5-2,1-3.1,2.1-5.7c2.8-6.4,3.2-13.2,3.2-16.7L96,63.3c0-1.9-0.7-3.6-2-4.9C92.7,57.1,91,56.4,89.1,56.4z" fill="inherit"/></g><g id="change1_9"><path d="M86,110H62c-4.4,0-8,3.6-8,8v2c0,4.4,3.6,8,8,8h24c4.4,0,8-3.6,8-8v-2C94,113.6,90.4,110,86,110z M90,120c0,2.2-1.8,4-4,4 H62c-2.2,0-4-1.8-4-4v-2c0-2.2,1.8-4,4-4h24c2.2,0,4,1.8,4,4V120z" fill="inherit"/></g></svg>