<?xml version="1.0" encoding="UTF-8" standalone="no"?><svg xmlns="http://www.w3.org/2000/svg" xmlns:xlink="http://www.w3.org/1999/xlink" fill="#ffffff" height="512" preserveAspectRatio="xMidYMid meet" version="1" viewBox="0.0 0.0 512.0 512.0" width="512" zoomAndPan="magnify"><g id="change1_1"><path d="M 429.761719 512 L 82.238281 512 C 36.894531 512 0 475.105469 0 429.765625 L 0 82.234375 C 0 36.894531 36.894531 0 82.238281 0 L 429.761719 0 C 475.105469 0 512 36.894531 512 82.234375 L 512 429.769531 C 512 475.105469 475.105469 512 429.761719 512 Z M 82.238281 36.570312 C 57.0625 36.570312 36.570312 57.054688 36.570312 82.234375 L 36.570312 429.769531 C 36.570312 454.945312 57.0625 475.429688 82.238281 475.429688 L 429.761719 475.429688 C 454.9375 475.429688 475.429688 454.945312 475.429688 429.765625 L 475.429688 82.234375 C 475.429688 57.054688 454.9375 36.570312 429.761719 36.570312 Z M 82.238281 36.570312" fill="inherit"/><path d="M 146.285156 457.144531 C 136.1875 457.144531 128 448.964844 128 438.855469 L 128 237.714844 C 128 227.605469 136.1875 219.429688 146.285156 219.429688 C 156.382812 219.429688 164.570312 227.605469 164.570312 237.714844 L 164.570312 438.855469 C 164.570312 448.964844 156.382812 457.144531 146.285156 457.144531 Z M 146.285156 457.144531" fill="inherit"/><path d="M 256 457.144531 C 245.902344 457.144531 237.714844 448.964844 237.714844 438.855469 L 237.714844 237.714844 C 237.714844 227.605469 245.902344 219.429688 256 219.429688 C 266.097656 219.429688 274.285156 227.605469 274.285156 237.714844 L 274.285156 438.855469 C 274.285156 448.964844 266.097656 457.144531 256 457.144531 Z M 256 457.144531" fill="inherit"/><path d="M 402.285156 457.144531 C 392.1875 457.144531 384 448.964844 384 438.855469 L 384 284.125 C 384 268.625 371.382812 256 355.882812 256 L 302.402344 256 C 286.902344 256 274.285156 268.625 274.285156 284.125 L 274.285156 420.570312 C 274.285156 430.679688 266.097656 438.855469 256 438.855469 C 245.902344 438.855469 237.714844 430.679688 237.714844 420.570312 L 237.714844 284.125 C 237.714844 248.445312 266.730469 219.429688 302.402344 219.429688 L 355.882812 219.429688 C 391.554688 219.429688 420.570312 248.445312 420.570312 284.125 L 420.570312 438.855469 C 420.570312 448.964844 412.382812 457.144531 402.285156 457.144531 Z M 402.285156 457.144531" fill="inherit"/><path d="M 182.855469 146.285156 C 182.855469 166.484375 166.484375 182.855469 146.285156 182.855469 C 126.085938 182.855469 109.714844 166.484375 109.714844 146.285156 C 109.714844 126.085938 126.085938 109.714844 146.285156 109.714844 C 166.484375 109.714844 182.855469 126.085938 182.855469 146.285156 Z M 182.855469 146.285156" fill="inherit"/></g></svg>