<?xml version="1.0" encoding="UTF-8" standalone="no"?><svg xmlns="http://www.w3.org/2000/svg" xmlns:xlink="http://www.w3.org/1999/xlink" fill="#199daf" height="128" preserveAspectRatio="xMidYMid meet" version="1" viewBox="0.0 0.0 128.1 128.0" width="128.1" zoomAndPan="magnify"><g id="change1_1"><circle cx="64" cy="62" fill="inherit" r="10"/></g><g id="change1_2"><circle cx="20" cy="15" fill="inherit" r="6"/></g><g id="change1_3"><path d="M37.9121094,5.5614624l2.0479126,3.4815063C47.3251953,5.8085938,55.453064,4,64,4 c8.7284546,0,17.0185547,1.8886719,24.5067749,5.2548828l2.0488892-3.4824219C82.4638672,2.0761719,73.4765625,0,64,0 C54.7050781,0,45.8817749,1.9979858,37.9121094,5.5614624z" fill="inherit"/></g><g id="change1_4"><path d="M28,0H12c-1.0996094,0-2.4561157,0.7753906-3.0137329,1.7235718L1.0136719,15.2772827 c-0.5576172,0.9483032-0.5576172,2.4990845,0,3.4473267l7.9725952,13.5517578C9.5438843,33.2246094,10.9003906,34,12,34h0.086853 H27.9375H28c1.0996094,0,2.4560547-0.7753906,3.0136719-1.7236328l7.9725952-13.5517578 c0.5576172-0.9482422,0.5576172-2.4990234,0-3.4473267L31.0136719,1.7235718C30.4560547,0.7753906,29.0996094,0,28,0z M30.1610718,25.0810547c-0.6669922-1.2626953-1.6845093-2.3535767-2.930603-3.1933594C25.4082031,23.8007813,22.843811,25,20,25 c-2.843689,0-5.4072266-1.1992188-7.2294922-3.1104126c-1.225647,0.8251953-2.2285156,1.8936157-2.8964844,3.1289673 L4.640564,17.0009766L12.2880859,4H27.711853l7.647522,13.0009766L30.1610718,25.0810547z" fill="inherit"/></g><g id="change1_5"><path d="M100.5917969,34h0.086853h15.850647h0.0625c1.0996094,0,2.4560547-0.7753906,3.0136719-1.7236328l7.9725952-13.5517578 c0.5576172-0.9482422,0.5576172-2.4990234,0-3.4473267l-7.9725952-13.5537109C119.0478516,0.7753906,117.6914063,0,116.5917969,0 h-16c-1.0996094,0-2.4561157,0.7753906-3.0137329,1.7235718l-7.9725952,13.5537109 c-0.5576172,0.9483032-0.5576172,2.4990845,0,3.4473267l7.9725952,13.5517578C98.1356812,33.2246094,99.4921875,34,100.5917969,34z M100.8798828,4h15.4237671l7.647522,13.0009766l-5.1983032,8.0800781c-0.6669922-1.2626953-1.6845093-2.3535767-2.930603-3.1933594 C114,23.8007813,111.4354858,25,108.5917969,25c-2.843811,0-5.4072266-1.1992188-7.2294922-3.1104126 c-1.225647,0.8251953-2.2285156,1.8936157-2.8965454,3.1289673l-5.2333984-8.0175781L100.8798828,4z" fill="inherit"/></g><g id="change1_6"><path d="M67.4248047,31.0664063C66.4823608,30.4979858,65.2412109,30.2138672,64,30.2138672 s-2.4824219,0.2841187-3.4248047,0.8525391L38.4248047,44.4335938C36.5410156,45.5703125,35,48.2998047,35,50.5v27.0020142 c0,2.2000732,1.5410156,4.9295654,3.4248047,6.0663452l8.9110718,5.3769531 c0.0098267,0.0058594,0.0195923,0.0126953,0.0292969,0.0194702c0.9921875,0.6456299,2.1240845,1.3886719,3.3154907,2.1680298 c0.296814,0.1942749,0.5975952,0.390564,0.9013062,0.5878906c0.203186,0.1327515,0.4014282,0.2626953,0.6065063,0.3964844 c0.4697266,0.3057251,0.9442749,0.6123047,1.4199219,0.9199219c0.1767578,0.1132813,0.3505859,0.2245483,0.5263672,0.3378906 c0.3613281,0.2323608,0.7216187,0.4619141,1.0809937,0.6903687c0.1708984,0.1083984,0.3417969,0.2178345,0.5117188,0.3251953 c0.4921875,0.3106079,0.9785767,0.6162109,1.4561157,0.9111938c0.1142578,0.071228,0.2246094,0.1377563,0.3369141,0.2070313 c0.3886719,0.2382813,0.7675781,0.468689,1.1376953,0.6914063c0.1386719,0.0830078,0.2763672,0.164978,0.4130859,0.2460938 c0.4619141,0.2733765,0.9121094,0.5371094,1.3339844,0.7753906C61.2333984,97.6903687,62.7401733,98,64.1942749,98 c1.069397,0,2.1104126-0.1680298,2.8291016-0.5635376c1.2393188-0.6815796,2.7236938-1.578064,4.2910767-2.5664063 c6.6738281-4.0731812,18.2607422-11.3016968,18.2607422-11.3016968C91.4589844,82.4315796,93,79.7020874,93,77.5020142V50.5 c0-2.2001953-1.5410156-4.9296875-3.4248047-6.0664063L67.4248047,31.0664063z M89,77.5020142 c0,0.7977905-0.8085938,2.2293701-1.4912109,2.6415405l-4.5410156,2.7402344 c-1.6591797-4.0391235-4.7783203-7.6796875-8.4472656-10.0518188C71.8104858,75.5419922,68.0966797,77.2196655,64,77.2196655 c-4.2207031,0-8.0322266-1.7841797-10.7607422-4.6395874c-3.8105469,2.2695313-6.9482422,5.8798828-8.4033813,10.1845093 l-4.3446655-2.6210327C39.8085938,79.7313843,39,78.2998047,39,77.5020142V50.5 c0-0.7979126,0.8085938-2.2294922,1.4912109-2.6416016l22.1503906-13.3671875 C62.8125,34.3886719,63.2910156,34.2138672,64,34.2138672s1.1875,0.1748047,1.3583984,0.2773438l22.1503906,13.3671875 C88.1914063,48.2705078,89,49.7020874,89,50.5V77.5020142z" fill="inherit"/></g><g id="change1_7"><circle cx="108.592" cy="15" fill="inherit" r="6"/></g><g id="change1_8"><path d="M38.9862671,109.2772827l-7.9725952-13.5537109C30.4560547,94.7753906,29.0996094,94,28,94H12 c-1.0996094,0-2.4561157,0.7753906-3.0137329,1.7235718l-7.9725952,13.5537109 c-0.5576172,0.9483032-0.5576172,2.4990845,0,3.4473267l7.9725952,13.5517578C9.5438843,127.2246094,10.9003906,128,12,128h0.086853 H27.9375H28c1.0996094,0,2.4560547-0.7753906,3.0136719-1.7236328l7.9725952-13.5517578 C39.5438843,111.7763672,39.5438843,110.2255859,38.9862671,109.2772827z M30.1610718,119.0810547 c-0.6669922-1.2626953-1.6845093-2.3535767-2.930603-3.1933594C25.4082031,117.8007813,22.843811,119,20,119 c-2.843689,0-5.4072266-1.1992188-7.2294922-3.1104126c-1.225647,0.8251953-2.2285156,1.8936157-2.8964844,3.1289673 l-5.2334595-8.0175781L12.2880859,98H27.711853l7.647522,13.0009766L30.1610718,119.0810547z" fill="inherit"/></g><g id="change1_9"><circle cx="20" cy="109" fill="inherit" r="6"/></g><g id="change1_10"><path d="M117.984375,37.8358765C121.835022,45.7479858,124,54.625,124,64s-2.164978,18.2520142-6.015625,26.1640625 c1.3104858,0.2744141,2.5731812,0.9111328,3.593689,1.7988281C125.6894531,83.5145874,128,74.0282593,128,64 c0-10.0283203-2.3105469-19.5145874-6.421936-27.9628906C120.5575562,36.9248047,119.2948608,37.5614624,117.984375,37.8358765z" fill="inherit"/></g><g id="change1_11"><path d="M119.6054688,95.7235718C119.0478516,94.7753906,117.6914063,94,116.5917969,94h-16 c-1.0996094,0-2.4561157,0.7753906-3.0137329,1.7235718l-7.9725952,13.5537109 c-0.5576172,0.9483032-0.5576172,2.4990845,0,3.4473267l7.9725952,13.5517578 C98.1356812,127.2246094,99.4921875,128,100.5917969,128h0.086853h15.850647h0.0625 c1.0996094,0,2.4560547-0.7753906,3.0136719-1.7236328l7.9725952-13.5517578c0.5576172-0.9482422,0.5576172-2.4990234,0-3.4473267 L119.6054688,95.7235718z M118.7528687,119.0810547c-0.6669922-1.2626953-1.6845093-2.3535767-2.930603-3.1933594 C114,117.8007813,111.4354858,119,108.5917969,119c-2.843811,0-5.4072266-1.1992188-7.2294922-3.1104126 c-1.225647,0.8251953-2.2285156,1.8936157-2.8965454,3.1289673l-5.2333984-8.0175781L100.8798828,98h15.4237671l7.647522,13.0009766 L118.7528687,119.0810547z" fill="inherit"/></g><g id="change1_12"><circle cx="108.592" cy="109" fill="inherit" r="6"/></g><g id="change1_13"><path d="M6.6112671,92.3330078c0.9483032-0.9521484,2.1690063-1.6787109,3.4649048-2.0508423C6.1894531,82.3397827,4,73.421875,4,64 c0-9.421936,2.1894531-18.3398438,6.0761719-26.2822266c-1.2958984-0.3720703-2.5166016-1.0986938-3.4649048-2.0507813 C2.3856812,44.2089844,0,53.8241577,0,64C0,74.1757813,2.3856812,83.789978,6.6112671,92.3330078z" fill="inherit"/></g><g id="change1_14"><path d="M64,124c-8.5458984,0-16.6738281-1.8085938-24.0391235-5.0430298l-2.0487671,3.4815063 C45.8817749,126.0020142,54.7050781,128,64,128c9.4765625,0,18.4638672-2.0762329,26.5556641-5.772522l-2.0488892-3.4824219 C81.0185547,122.1112671,72.7284546,124,64,124z" fill="inherit"/></g></svg>