<?xml version="1.0" encoding="UTF-8" standalone="no"?><svg xmlns="http://www.w3.org/2000/svg" xmlns:xlink="http://www.w3.org/1999/xlink" fill="#ffffff" height="393" preserveAspectRatio="xMidYMid meet" version="1" viewBox="13.8 55.0 479.0 393.0" width="479" zoomAndPan="magnify"><g id="change1_1"><path d="M492.742,311.992c-0.002-2.397-1.08-4.666-2.935-6.184c-1.854-1.517-4.29-2.124-6.643-1.651l-24.837,4.994l0.555-2.775 c1.197-5.985,1.865-12.114,1.985-18.218c0.087-4.417-3.423-8.069-7.841-8.156c-4.464-0.088-8.069,3.423-8.156,7.841 c-0.102,5.158-0.666,10.338-1.678,15.396l-1.866,9.332l-16.34,3.286l1.896-9.479c0.866-4.333-1.943-8.547-6.276-9.414 c-4.335-0.866-8.547,1.944-9.414,6.276l-3.039,15.193c-0.056,0.279-0.095,0.557-0.121,0.833l-21.886,4.401 C390.015,311.128,392,298.14,392,285c0-11.028-8.972-20-20-20s-20,8.972-20,20c0,4.833-2.401,9.319-6.422,12l-4.363,2.908 C337.521,293.4,330.526,289,322.523,289c-9.874,0-18.441,6.689-20.836,16.269c-3.068,12.275-10.333,23.216-20.456,30.808 l-15.825,11.867l-80.275,16.142c-0.871-4.331-5.088-7.136-9.42-6.266L42.379,384.63c-17.298,3.479-28.542,20.382-25.063,37.68 c1.685,8.38,6.532,15.602,13.649,20.336c5.313,3.535,11.417,5.366,17.656,5.366c2.117,0,4.251-0.211,6.375-0.638l133.332-26.81 c2.08-0.418,3.909-1.646,5.084-3.413c1.175-1.767,1.6-3.928,1.182-6.008l0,0l31.958-6.426c13.013,21.76,36.7,35.086,61.887,35.086 c4.671,0,9.399-0.459,14.114-1.407l132.415-26.625c33.531-6.743,57.842-36.46,57.806-70.662L492.742,311.992z M317.209,309.149 c0.611-2.443,2.796-4.149,5.314-4.149c3.02,0,5.477,2.457,5.477,5.477V313c0,2.95,1.624,5.661,4.225,7.053 c2.602,1.394,5.758,1.24,8.212-0.397l14.016-9.343C362.936,304.658,368,295.195,368,285c0-2.206,1.794-4,4-4s4,1.794,4,4 c0,12.409-1.99,24.671-5.914,36.444l-1.675,5.026c-0.089,0.268-0.163,0.537-0.223,0.806l-68.583,13.791 C308.084,332.173,314.207,321.159,317.209,309.149z M213.228,374.757l6.291,15.055l-28.079,5.646l-3.154-15.686L213.228,374.757z M51.842,431.688c-4.191,0.842-8.458,0.003-12.015-2.364c-3.559-2.367-5.982-5.979-6.825-10.168 c-1.739-8.649,3.882-17.101,12.532-18.84l125.488-25.233l6.308,31.372L51.842,431.688z M431.812,396.084L299.397,422.71 c-26.079,5.244-52.452-8.765-62.709-33.309l-7.464-17.861l247.528-49.773l0.02,19.358 C476.8,367.727,457.892,390.84,431.812,396.084z"/><path d="M451.293,339.807l-64.87,13.044c-4.332,0.871-7.137,5.089-6.266,9.42c0.764,3.799,4.103,6.424,7.835,6.424 c0.522,0,66.456-13.202,66.456-13.202c4.332-0.871,7.137-5.089,6.266-9.42C459.842,341.742,455.628,338.938,451.293,339.807z"/><path d="M356.116,358.945l-14.041,2.823c-4.332,0.871-7.137,5.089-6.266,9.42c0.764,3.799,4.103,6.424,7.835,6.424 c0.522,0,15.626-2.981,15.626-2.981c4.332-0.871,7.137-5.089,6.266-9.42C364.666,360.88,360.453,358.075,356.116,358.945z"/><path d="M210.867,266.237c3.561,2.98,7.878,4.615,12.306,4.851c-0.033,1.241-0.003,2.491,0.108,3.747 c0.757,8.514,4.785,16.223,11.34,21.708c5.811,4.862,12.992,7.46,20.479,7.46c0.959,0,1.923-0.043,2.89-0.129 c8.514-0.757,16.223-4.785,21.708-11.34s8.089-14.854,7.332-23.369c-0.757-8.514-4.784-16.223-11.34-21.708 c-7.795-6.521-17.809-8.681-27.064-6.761c-1.011-4.324-3.391-8.289-6.958-11.273c-3.389-2.836-8.435-2.388-11.269,1.001 c-2.835,3.388-2.387,8.434,1.001,11.269h0l-7.925-6.631c-3.391-2.835-8.435-2.386-11.27,1.002 c-2.835,3.388-2.386,8.434,1.002,11.269l7.926,6.632c0,0,0,0-0.001,0c-3.389-2.835-8.435-2.387-11.269,1.002 C207.029,258.356,207.478,263.402,210.867,266.237z M265.422,259.728c3.278,2.743,5.292,6.597,5.67,10.854 c0.378,4.257-0.923,8.406-3.666,11.684c-2.742,3.278-6.597,5.292-10.854,5.67c-4.255,0.378-8.406-0.923-11.684-3.666h0 c-3.277-2.742-5.291-6.597-5.67-10.854c-0.378-4.257,0.923-8.406,3.666-11.684c3.16-3.777,7.707-5.726,12.285-5.726 C258.791,256.006,262.433,257.227,265.422,259.728z"/><path d="M376.304,128.614c5.701,4.495,12.598,6.875,19.748,6.875c1.268,0,2.545-0.075,3.824-0.227 c8.489-1.004,16.078-5.254,21.37-11.966s7.653-15.083,6.649-23.572c-0.148-1.248-0.374-2.474-0.66-3.679 c4.286-1.138,8.173-3.634,11.048-7.28c2.735-3.469,2.141-8.5-1.329-11.235c-3.469-2.736-8.5-2.141-11.235,1.329h0l6.398-8.115 c2.736-3.47,2.14-8.5-1.329-11.235c-3.471-2.738-8.5-2.14-11.235,1.329l-6.399,8.117c0,0,0-0.001,0.001-0.001 c2.735-3.469,2.141-8.5-1.329-11.235c-3.469-2.737-8.5-2.141-11.235,1.329c-2.879,3.652-4.396,8.021-4.499,12.46 c-9.452,0.018-18.81,4.184-25.103,12.165c-5.292,6.712-7.653,15.084-6.649,23.572S369.591,123.322,376.304,128.614z M383.551,93.579c5.463-6.926,15.543-8.12,22.471-2.659c6.928,5.462,8.121,15.542,2.659,22.47 c-2.646,3.356-6.441,5.481-10.685,5.983c-4.246,0.501-8.43-0.679-11.786-3.325c-3.356-2.646-5.481-6.44-5.983-10.684 C379.724,101.121,380.905,96.935,383.551,93.579z"/><path d="M304,256c0,4.418,3.582,8,8,8h24c4.418,0,8-3.582,8-8v-24c0-4.418-3.582-8-8-8h-24c-4.418,0-8,3.582-8,8V256z M320,240h8v8 h-8V240z"/><path d="M320,112.007h24c4.418,0,8-3.582,8-8v-24c0-4.418-3.582-8-8-8h-24c-4.418,0-8,3.582-8,8v24 C312,108.425,315.582,112.007,320,112.007z M328,88.007h8v8h-8V88.007z"/><path d="M330.405,158.742l-13.678,19.721c-2.518,3.63-1.616,8.615,2.015,11.133l19.721,13.678c1.39,0.964,2.979,1.427,4.552,1.427 c2.534,0,5.027-1.201,6.581-3.441l13.678-19.721c2.518-3.63,1.616-8.615-2.015-11.133l-19.721-13.678 C337.909,154.21,332.923,155.111,330.405,158.742z M341.007,185.566l-6.574-4.559l4.559-6.574l6.574,4.559L341.007,185.566z"/><path d="M415.03,154.343c-9.358,9.357-9.358,24.583,0,33.941c0,0,0,0,0,0c4.533,4.533,10.56,7.03,16.97,7.03 c6.411,0,12.438-2.497,16.97-7.03l11.314-11.313c4.533-4.533,7.03-10.56,7.03-16.971s-2.497-12.438-7.03-16.97 c-9.357-9.358-24.583-9.358-33.941,0L415.03,154.343z M443.313,152.004c2.049,0,4.098,0.78,5.657,2.34 c1.511,1.511,2.343,3.52,2.343,5.656s-0.832,4.146-2.343,5.657l-11.314,11.314c-1.511,1.511-3.52,2.343-5.656,2.343 s-4.146-0.832-5.656-2.343h0c-3.119-3.119-3.119-8.195,0-11.314l11.313-11.313C439.216,152.784,441.265,152.004,443.313,152.004z"/><path d="M388,200c-11.028,0-20,8.972-20,20s8.972,20,20,20s20-8.972,20-20S399.028,200,388,200z M388,224c-2.206,0-4-1.794-4-4 s1.794-4,4-4s4,1.794,4,4S390.206,224,388,224z"/><path d="M260,208c11.028,0,20-8.972,20-20s-8.972-20-20-20s-20,8.972-20,20S248.972,208,260,208z M260,184c2.206,0,4,1.794,4,4 s-1.794,4-4,4s-4-1.794-4-4S257.794,184,260,184z"/><path d="M445.471,248.41c-4.192,1.397-6.457,5.928-5.061,10.119c0.802,2.406,1.506,4.871,2.092,7.328 c0.876,3.674,4.156,6.145,7.774,6.145c0.615,0,1.24-0.072,1.864-0.221c4.298-1.025,6.95-5.341,5.924-9.638 c-0.694-2.909-1.527-5.827-2.475-8.672C454.192,249.279,449.661,247.015,445.471,248.41z"/><path d="M412.708,280.514c0.272,4.234,3.792,7.486,7.976,7.486c0.173,0,0.347-0.006,0.522-0.017 c4.409-0.284,7.753-4.088,7.469-8.498c-0.57-8.85-2.281-17.603-5.085-26.016c-1.397-4.192-5.927-6.458-10.119-5.06 c-4.192,1.397-6.457,5.928-5.06,10.119C410.78,265.639,412.226,273.036,412.708,280.514z"/><path d="M288,144.007c4.418,0,8-3.582,8-8v-4.686c0-5.159,2.009-10.009,5.657-13.657c3.125-3.124,3.125-8.189,0-11.313 c-3.124-3.124-8.189-3.124-11.313,0c-6.67,6.67-10.343,15.538-10.343,24.971v4.686C280,140.425,283.582,144.007,288,144.007z"/><path d="M256,152.007c4.418,0,8-3.582,8-8v-4.686c0-5.159,2.009-10.009,5.657-13.657c3.125-3.124,3.125-8.189,0-11.313 c-3.124-3.124-8.189-3.124-11.313,0c-6.67,6.67-10.343,15.538-10.343,24.971v4.686C248,148.425,251.582,152.007,256,152.007z"/><path d="M71.991,358.554c0.475,0,0.956-0.042,1.44-0.13l8-1.454c4.347-0.79,7.23-4.955,6.44-9.302 c-0.79-4.347-4.949-7.228-9.302-6.44l-8,1.454c-4.347,0.79-7.23,4.955-6.44,9.302C64.831,355.846,68.199,358.554,71.991,358.554z"/><path d="M103.991,352.736c0.475,0,0.957-0.042,1.44-0.13l32-5.818c4.347-0.791,7.23-4.955,6.44-9.302 c-0.79-4.347-4.953-7.229-9.302-6.44l-32,5.818c-4.347,0.791-7.23,4.955-6.44,9.302 C96.832,350.029,100.199,352.736,103.991,352.736z"/></g></svg>