<?xml version="1.0" encoding="UTF-8" standalone="no"?><svg xmlns="http://www.w3.org/2000/svg" xmlns:xlink="http://www.w3.org/1999/xlink" fill="#ffffff" height="116" preserveAspectRatio="xMidYMid meet" version="1" viewBox="-0.1 6.0 128.2 116.0" width="128.2" zoomAndPan="magnify"><g id="change1_1"><path d="M117,53c3.3,0,6-2.7,6-6s-2.7-6-6-6s-6,2.7-6,6S113.7,53,117,53z M117,45c1.1,0,2,0.9,2,2c0,1.1-0.9,2-2,2s-2-0.9-2-2 C115,45.9,115.9,45,117,45z" fill="inherit"/></g><g id="change1_2"><path d="M95,53c4.4,0,8-3.6,8-8s-3.6-8-8-8s-8,3.6-8,8S90.6,53,95,53z M95,41c2.2,0,4,1.8,4,4c0,2.2-1.8,4-4,4s-4-1.8-4-4 C91,42.8,92.8,41,95,41z" fill="inherit"/></g><g id="change1_3"><path d="M0.8,111.1C12.5,119.7,25,122,35.1,122c11.4,0,19.7-2.9,20.3-3.1c0.5-0.2,0.9-0.5,1.1-1c8.7-16.7,8.1-27.5,6.4-41 c-1.1-8.3-4.8-11.3-9.9-12.4V63c0-2.2-1.2-4.1-3-5.2V12c0-3.3-2.7-6-6-6s-6,2.7-6,6v45.8c-1.8,1-3,3-3,5.2v1.3 c-9.5,1.1-11.3,5.8-11.6,10.5c-1.8,24.9-21.3,32.6-22.1,32.9c-0.7,0.3-1.2,0.9-1.3,1.6C-0.1,110,0.2,110.7,0.8,111.1z M42,12 c0-1.1,0.9-2,2-2s2,0.9,2,2v45h-4V12z M39,63c0-1.1,0.9-2,2-2h6c1.1,0,2,0.9,2,2v1.1c-2-0.1-4-0.1-6.2-0.1c-1.1,0-2.3,0-3.5,0 c-0.1,0-0.2,0-0.3,0V63z M27.4,75c0.2-3,0.5-7,11.9-7c1.2,0,2.4,0,3.5,0c10.5-0.1,14.9-0.2,16.1,9.4c1.7,13,2.2,22.7-5.6,37.9 c-2.3,0.7-9.7,2.7-19.1,2.6c3.8-2.9,9.2-8.1,12.6-16.2c0.4-1-0.1-2.2-1.1-2.6c-1-0.4-2.2,0.1-2.6,1.1c-4.9,11.7-14.9,16.9-15.1,17 c-0.2,0.1-0.3,0.2-0.4,0.3c-2.5-0.3-5.2-0.8-7.8-1.5c3.1-2.2,8.1-6.4,11.9-13c0.5-1,0.2-2.2-0.7-2.7c-1-0.5-2.2-0.2-2.7,0.7 c-5.2,9.1-13.1,13.2-13.2,13.2c-0.1,0-0.1,0.1-0.2,0.1c-3-1.1-6-2.6-8.9-4.5C12.3,106.3,25.8,96.4,27.4,75z" fill="inherit"/></g><g id="change1_4"><path d="M36,76h12c1.1,0,2-0.9,2-2s-0.9-2-2-2H36c-1.1,0-2,0.9-2,2S34.9,76,36,76z" fill="inherit"/></g><g id="change1_5"><path d="M66.9,68.1l2.6,4.9l2.8,35.1c0.6,7.2,6.7,12.9,14,12.9h19.5c7.2,0,13.4-5.7,14-12.9l2.7-33.3c0.3-0.4,0.5-0.9,0.8-1.3l3-6.3 c1.1-1.1,1.8-2.6,1.8-4.2c0-3.3-2.7-6-6-6h-10c0-3.3-2.7-6-6-6s-6,2.7-6,6H89.7c-0.9-3.4-4-6-7.7-6s-6.8,2.6-7.7,6H70 c-3.3,0-6,2.7-6,6C64,65.1,65.2,67,66.9,68.1z M73.2,69H80c0,2.9,0,6.2,0,9.5c-2.8-1.8-5.1-4-6.6-6.5L73.2,69z M118.5,73.6 c-1.7,2.3-3.9,4.3-6.4,6c0-3.6,0-7.3,0-10.6h6.8L118.5,73.6z M122,61c1.1,0,2,0.9,2,2c0,1.1-0.9,2-2,2h-1h-9c0-1.6,0-3,0-4H122z M110.1,99.3c1.1,0,2-0.9,2-2c0-0.1,0-6,0-13.2c2.1-1.2,4.1-2.6,5.9-4.2l-2.2,27.8c-0.4,5.2-4.8,9.2-10,9.2H86.2 c-5.2,0-9.6-4-10-9.2l-2.3-29c1.8,1.7,3.9,3.1,6.1,4.4c0,7.8,0,14.4,0.1,14.5c0.2,0.9,1,1.7,2,1.7c0.4,0,0.5,0.1,1,0.5 c0.7,0.6,1.7,1.5,3.6,1.5c1.9,0,2.9-0.9,3.6-1.5c0.5-0.4,0.6-0.5,1-0.5s0.5,0.1,1,0.5c0.7,0.6,1.7,1.5,3.6,1.5 c1.9,0,2.9-0.9,3.6-1.5c0.5-0.4,0.6-0.5,1-0.5c0.4,0,0.5,0.1,1,0.5c0.7,0.6,1.7,1.5,3.6,1.5c1.9,0,2.9-0.9,3.6-1.5 C109.6,99.4,109.7,99.3,110.1,99.3z M84,95.6V85c4.5,1.9,9.4,2.9,13.5,2.9c3.5,0,7.1-0.7,10.5-2v9.8c-0.7,0.3-1.2,0.7-1.5,1 c-0.5,0.4-0.6,0.5-1,0.5c-0.4,0-0.5-0.1-1-0.5c-0.7-0.6-1.7-1.5-3.6-1.5s-2.9,0.9-3.6,1.5c-0.5,0.4-0.6,0.5-1,0.5 c-0.4,0-0.5-0.1-1-0.5c-0.7-0.6-1.7-1.5-3.6-1.5s-2.9,0.9-3.6,1.5c-0.5,0.4-0.6,0.5-1,0.5c-0.4,0-0.5-0.1-1-0.5 C85.3,96.4,84.8,96,84,95.6z M106,55c1.1,0,2,0.9,2,2h-4C104,55.9,104.9,55,106,55z M108,61v20.7c-3.3,1.4-6.9,2.3-10.5,2.3 c-4.2,0-9.1-1.2-13.5-3.3V61H108z M82,55c1.5,0,2.7,0.8,3.4,2h-6.9C79.2,55.8,80.5,55,82,55z M70,61h10c0,1,0,2.4,0,4h-9h-1 c-1.1,0-2-0.9-2-2C68,61.9,68.9,61,70,61z" fill="inherit"/></g></svg>