<?xml version="1.0" encoding="UTF-8" standalone="no"?><svg xmlns="http://www.w3.org/2000/svg" xmlns:xlink="http://www.w3.org/1999/xlink" fill="#000000" height="242.6" preserveAspectRatio="xMidYMid meet" version="1" viewBox="80.4 91.3 264.4 242.6" width="264.4" zoomAndPan="magnify"><g><g><g><g><g id="change1_2"><path d="M201.369,175.32c0,0,30.281-15.729,35.457-14.555c19.786,4.488,73.88,22.118,73.88,22.118 c1.293,0.079-0.374,15.789,0,15.88l4.678,21.12c0,0-37.425,26.442-37.662,26.456c-4.63,4.566-10.504,7.992-17.274,9.67 l-37.076,9.193c-20.094,4.982-40.42-7.269-45.401-27.361C172.987,217.75,182.691,188.938,201.369,175.32z" fill="#ffffff"/></g><g id="change2_7"><path d="M214.322,271.313c-19.551,0-36.495-13.269-41.205-32.268c-5.71-23.029,5.642-53.428,25.307-67.765 c0.204-0.148,0.417-0.281,0.641-0.397c6.855-3.562,29.792-15.181,37.108-15.181c0.631,0,1.206,0.061,1.759,0.187 c19.096,4.332,68.511,20.35,73.915,22.107c4.471,0.862,4.393,6.244,4.354,8.907c-0.035,2.367-0.215,5.296-0.359,7.649 c-0.076,1.23-0.167,2.713-0.187,3.427l4.612,20.822c0.436,1.966-0.352,4.002-1.997,5.165c0,0-9.359,6.612-18.748,13.227 c-4.697,3.309-9.401,6.619-12.946,9.102c-2.815,1.972-4.508,3.158-5.621,3.876c-5.366,5.195-12.033,8.889-19.304,10.691 l-37.076,9.193C221.209,270.89,217.76,271.313,214.322,271.313z M204.018,179.579c-16.208,12.045-25.903,38.074-21.195,57.059 c3.602,14.528,16.555,24.675,31.499,24.675c2.628,0,5.268-0.324,7.846-0.963l37.076-9.193 c5.656-1.402,10.832-4.299,14.966-8.377c0.298-0.294,0.63-0.547,0.986-0.755c1.891-1.246,20.702-14.5,34.587-24.306 l-3.959-17.874l0.058-0.013c-0.288-1.568-0.167-3.552-0.022-5.892c0.112-1.827,0.308-5.021,0.346-7.258 c-11.477-3.706-53.284-17.092-70.186-20.972C232.368,165.972,216.739,172.99,204.018,179.579z M277.311,241.356 c-0.905,0.074-1.595,0.378-1.977,0.59C275.941,241.617,276.613,241.414,277.311,241.356z M311.897,193.907 c1.196,0.293,2.217,1.009,2.901,1.982C314.199,195.023,313.259,194.241,311.897,193.907z M309.648,187.77 c0.235,0.052,0.483,0.087,0.741,0.104C310.14,187.857,309.892,187.823,309.648,187.77z" fill="#449da1"/></g></g><g><g id="change1_9"><path d="M237.096,203.298l-44.326-19.895c-1.001-0.453,10.85-9.036,9.832-9.395 c2.804-15.583-32.458,6.276-37.017,4.427l-36.282-13.184c-1.287-0.157-2.21-0.242-2.595-0.22l-12.214,66.126 c0,0,24.544,0.977,30.798,5.688c0.507,0.381,1.06,2.127,1.291,2.186c3.724,5.332,8.877,9.768,15.229,12.647l23.074,12.89 c18.855,8.549,52.784,3.078,61.331-15.775C254.768,229.94,255.949,211.845,237.096,203.298z" fill="#ffffff"/></g><g id="change2_4"><path d="M205.348,273.497c-0.001,0-0.001,0-0.002,0c-8.424,0-16.213-1.513-22.524-4.374 c-0.127-0.058-0.252-0.121-0.374-0.188l-22.896-12.791c-6.756-3.104-12.582-7.929-16.876-13.977 c-0.513-0.624-0.83-1.274-1.043-1.731c-4.059-2.142-16.932-3.865-27.337-4.282c-1.449-0.058-2.801-0.742-3.707-1.875 c-0.905-1.133-1.274-2.603-1.011-4.029l12.214-66.126c0.418-2.266,2.332-3.952,4.632-4.083 c0.631-0.036,1.631,0.021,3.486,0.249c0.376,0.046,0.746,0.134,1.102,0.264l35.624,12.945c1.684-0.339,6.154-2.181,9.482-3.552 c7.481-3.082,15.961-6.575,21.945-6.575c4.202,0,6.517,1.714,7.719,3.152c1.595,1.907,2.229,4.377,1.892,7.352 c0.212,2.713-1.53,4.28-6.042,8.026l37.513,16.836c10.339,4.688,16.472,12.578,17.751,22.825 c1.026,8.218-1.034,18.075-6.123,29.297C243.682,266.497,222.85,273.497,205.348,273.497z M187.135,260.097 c4.929,2.193,11.386,3.399,18.212,3.399c13.83,0,31.094-5.246,36.317-16.767c4.316-9.518,6.102-17.568,5.308-23.929 c-0.85-6.802-4.755-11.691-11.94-14.949l-44.309-19.887c-1.578-0.708-2.737-2.258-2.967-3.972 c-0.433-3.22,1.41-4.747,6.877-9.28c0.41-0.34,0.881-0.731,1.355-1.127c-4.344,0.779-10.998,3.52-16.062,5.606 c-8.82,3.632-12.889,5.149-16.099,3.925l-33.149-12.045l-10.236,55.417c8.658,0.631,22.412,2.26,27.859,6.364 c1.28,0.962,1.901,2.297,2.354,3.272c0.002,0.006,0.005,0.011,0.008,0.017c0.006,0.009,0.013,0.018,0.019,0.027 c3.326,4.762,7.889,8.551,13.195,10.956c0.127,0.058,0.252,0.121,0.374,0.189L187.135,260.097z" fill="#449da1"/></g></g><g><g><g id="change1_6"><path d="M222.773,196.745l38.577,10.572c5.327,1.459,8.462,6.961,7.002,12.287l0,0 c-1.46,5.327-6.961,8.461-12.288,7.002l-38.577-10.572" fill="#ffffff"/></g><g id="change2_17"><path d="M258.703,231.963c-1.309,0-2.638-0.172-3.959-0.535l-38.578-10.572c-2.663-0.73-4.23-3.48-3.5-6.144 c0.73-2.663,3.48-4.231,6.144-3.5l38.577,10.572c2.657,0.728,5.416-0.842,6.144-3.501c0.353-1.288,0.184-2.636-0.478-3.796 c-0.662-1.16-1.735-1.994-3.023-2.347l-38.578-10.572c-2.663-0.73-4.23-3.48-3.5-6.144c0.73-2.663,3.48-4.229,6.144-3.5 l38.577,10.572c3.864,1.059,7.085,3.559,9.068,7.041c1.984,3.481,2.493,7.526,1.434,11.391 C271.351,227.581,265.292,231.962,258.703,231.963z" fill="#449da1"/></g></g><g><g id="change1_7"><path d="M222.276,192.735l-32.171,10.398c-4.957,2.436-10.95,0.389-13.385-4.568l0,0 c-2.434-4.958-0.389-10.949,4.568-13.385l35.904-17.631" fill="#ffffff"/></g><g id="change2_10"><path d="M185.71,209.166c-1.631,0-3.269-0.27-4.858-0.812c-3.792-1.294-6.853-3.988-8.619-7.584 c-3.645-7.424-0.571-16.43,6.851-20.077l35.905-17.631c2.479-1.217,5.475-0.194,6.692,2.284 c1.217,2.479,0.194,5.475-2.284,6.692l-35.904,17.631c-2.474,1.215-3.499,4.218-2.284,6.693 c0.588,1.198,1.609,2.096,2.874,2.527c1.264,0.432,2.621,0.345,3.818-0.244c0.216-0.106,0.439-0.196,0.667-0.27l32.171-10.398 c2.628-0.847,5.446,0.593,6.295,3.22c0.849,2.627-0.592,5.446-3.22,6.295l-31.861,10.298 C189.965,208.705,187.843,209.166,185.71,209.166z" fill="#449da1"/></g></g><g><g id="change1_13"><path d="M210.691,214.222l38.577,10.572c5.327,1.459,8.462,6.961,7.002,12.287l0,0 c-1.46,5.327-6.961,8.461-12.288,7.002l-38.577-10.572" fill="#ffffff"/></g><g id="change2_21"><path d="M246.621,249.44c-1.309,0-2.638-0.172-3.959-0.535l-38.578-10.572c-2.663-0.73-4.23-3.48-3.5-6.144 c0.73-2.663,3.481-4.23,6.144-3.5l38.577,10.572c2.657,0.728,5.416-0.842,6.144-3.501c0.353-1.288,0.184-2.636-0.478-3.796 c-0.662-1.16-1.735-1.994-3.023-2.347l-38.578-10.572c-2.663-0.73-4.23-3.48-3.5-6.144c0.73-2.663,3.482-4.23,6.144-3.5 l38.577,10.572c3.864,1.059,7.085,3.559,9.068,7.041c1.984,3.481,2.493,7.526,1.434,11.391 C259.269,245.058,253.21,249.44,246.621,249.44z" fill="#449da1"/></g></g><g><g id="change1_3"><path d="M200.261,232.157l36.977,10.133c5.105,1.399,8.11,6.672,6.712,11.777l0,0 c-1.4,5.105-6.673,8.11-11.778,6.711l-23.76-6.512" fill="#ffffff"/></g><g id="change2_9"><path d="M234.698,266.121c-1.272,0-2.563-0.167-3.848-0.52l-23.761-6.512c-2.663-0.73-4.23-3.48-3.5-6.144 c0.73-2.663,3.478-4.228,6.144-3.5l23.76,6.512c2.438,0.67,4.965-0.773,5.635-3.212c0.667-2.437-0.773-4.964-3.211-5.632 l-36.977-10.133c-2.664-0.73-4.231-3.48-3.501-6.144c0.73-2.664,3.484-4.231,6.144-3.501l36.977,10.133 c7.756,2.125,12.338,10.165,10.213,17.92C246.996,261.86,241.105,266.121,234.698,266.121z" fill="#449da1"/></g></g><g><g id="change1_4"><path d="M204.27,252.776l16.797,4.603c4.394,1.204,6.979,5.742,5.775,10.135l0,0 c-1.205,4.394-5.741,6.979-10.135,5.775l-31.82-8.72" fill="#ffffff"/></g><g id="change2_5"><path d="M218.882,278.583c-1.156,0-2.33-0.152-3.497-0.472l-31.82-8.72c-2.664-0.73-4.231-3.48-3.501-6.144 c0.73-2.664,3.481-4.229,6.144-3.501l31.82,8.72c1.726,0.473,3.518-0.547,3.992-2.276c0.473-1.726-0.548-3.517-2.275-3.99 l-16.796-4.603c-2.664-0.73-4.231-3.48-3.501-6.144c0.73-2.664,3.482-4.229,6.144-3.501l16.797,4.603 c7.044,1.931,11.206,9.233,9.276,16.278C230.052,274.713,224.701,278.583,218.882,278.583z" fill="#449da1"/></g></g></g></g><g><g><g id="change1_15"><path d="M94.51 155.363H133.643V230.63H94.51z" fill="#ffffff" transform="rotate(14.791 114.059 192.96)"/></g><g id="change2_2"><path d="M123.388,239.378c-0.427,0-0.856-0.055-1.276-0.166l-37.836-9.989 c-1.282-0.338-2.377-1.172-3.044-2.318c-0.667-1.146-0.852-2.51-0.514-3.792l19.212-72.774 c0.338-1.282,1.172-2.377,2.318-3.044c1.146-0.667,2.509-0.853,3.792-0.514l37.836,9.989c2.67,0.705,4.263,3.441,3.558,6.111 l-19.212,72.774c-0.338,1.282-1.172,2.377-2.318,3.044C125.134,239.148,124.265,239.378,123.388,239.378z M91.663,220.832 l28.167,7.436l16.659-63.105l-28.167-7.436L91.663,220.832z" fill="#449da1"/></g></g><g><g id="change1_16"><path d="M291.558 155.363H330.691V230.63H291.558z" fill="#ffffff" transform="scale(-1) rotate(-14.791 -1486.924 2396.917)"/></g><g id="change2_15"><path d="M301.812,239.378c-0.876,0-1.746-0.23-2.516-0.679c-1.146-0.667-1.98-1.762-2.318-3.044l-19.212-72.774 c-0.705-2.67,0.888-5.406,3.558-6.111l37.836-9.989c1.282-0.339,2.646-0.154,3.792,0.514c1.146,0.667,1.98,1.762,2.318,3.044 l19.212,72.774c0.338,1.282,0.154,2.646-0.514,3.792c-0.667,1.146-1.762,1.98-3.044,2.318l-37.836,9.989 C302.668,239.324,302.239,239.378,301.812,239.378z M288.711,165.163l16.659,63.105l28.167-7.436l-16.66-63.105 L288.711,165.163z" fill="#449da1"/></g></g></g></g></g><g><g><g><g><g><g><g id="change1_17"><path d="M145.232 117.531L162.843 138.745" fill="#ffffff"/></g><g id="change2_8"><path d="M162.846,143.745c-1.436,0-2.861-0.615-3.85-1.806l-17.611-21.214 c-1.764-2.125-1.471-5.277,0.653-7.041c2.125-1.764,5.277-1.471,7.041,0.653l17.611,21.214 c1.764,2.125,1.471,5.277-0.653,7.041C165.104,143.367,163.971,143.745,162.846,143.745z" fill="#449da1"/></g></g><g><g id="change1_20"><path d="M134.484 104.586L137.666 108.419" fill="#ffffff"/></g><g id="change2_11"><path d="M137.669,113.419c-1.436,0-2.861-0.615-3.85-1.807l-3.182-3.833 c-1.764-2.125-1.471-5.277,0.654-7.041c2.125-1.764,5.276-1.471,7.041,0.654l3.182,3.833 c1.764,2.125,1.471,5.277-0.654,7.041C139.926,113.041,138.794,113.419,137.669,113.419z" fill="#449da1"/></g></g></g><g><g><g id="change1_18"><path d="M279.968 117.531L262.357 138.745" fill="#ffffff"/></g><g id="change2_18"><path d="M262.354,143.745c-1.125,0-2.257-0.378-3.191-1.153c-2.125-1.764-2.417-4.916-0.653-7.041 l17.611-21.214c1.763-2.125,4.914-2.417,7.041-0.653c2.125,1.764,2.417,4.916,0.653,7.041l-17.611,21.214 C265.215,143.13,263.79,143.745,262.354,143.745z" fill="#449da1"/></g></g><g><g id="change1_11"><path d="M290.716 104.586L287.534 108.419" fill="#ffffff"/></g><g id="change2_12"><path d="M287.531,113.419c-1.125,0-2.257-0.378-3.19-1.153c-2.125-1.764-2.417-4.916-0.654-7.041l3.182-3.833 c1.764-2.125,4.916-2.418,7.041-0.654c2.125,1.764,2.417,4.916,0.654,7.041l-3.182,3.833 C290.393,112.804,288.967,113.419,287.531,113.419z" fill="#449da1"/></g></g></g></g><g><g><g id="change1_10"><path d="M212.601 112.544L212.601 135.621" fill="#ffffff"/></g><g id="change2_16"><path d="M212.601,140.621c-2.761,0-5-2.239-5-5v-23.077c0-2.761,2.239-5,5-5s5,2.239,5,5v23.077 C217.601,138.382,215.362,140.621,212.601,140.621z" fill="#449da1"/></g></g><g><g id="change1_19"><path d="M212.601 96.292L212.6 100.462" fill="#ffffff"/></g><g id="change2_1"><path d="M212.6,105.462C212.599,105.462,212.599,105.462,212.6,105.462c-2.763,0-5-2.24-5-5.001l0.001-4.17 c0-2.761,2.239-4.999,5-4.999c0,0,0,0,0.001,0c2.762,0,5,2.24,4.999,5.001l-0.001,4.17 C217.599,103.224,215.36,105.462,212.6,105.462z" fill="#449da1"/></g></g></g></g></g><g><g><g><g><g><g id="change1_21"><path d="M145.232 307.669L162.843 286.455" fill="#ffffff"/></g><g id="change2_6"><path d="M145.229,312.669c-1.125,0-2.257-0.378-3.191-1.153c-2.125-1.764-2.417-4.916-0.653-7.041 l17.611-21.214c1.763-2.125,4.916-2.417,7.041-0.653c2.125,1.764,2.417,4.916,0.653,7.041l-17.611,21.214 C148.09,312.054,146.665,312.669,145.229,312.669z" fill="#449da1"/></g></g><g><g id="change1_12"><path d="M134.484 320.614L137.666 316.781" fill="#ffffff"/></g><g id="change2_14"><path d="M134.481,325.614c-1.125,0-2.257-0.378-3.19-1.153c-2.125-1.764-2.417-4.916-0.654-7.041l3.182-3.833 c1.763-2.125,4.916-2.418,7.041-0.654c2.125,1.764,2.417,4.916,0.654,7.041l-3.182,3.833 C137.343,324.999,135.917,325.614,134.481,325.614z" fill="#449da1"/></g></g></g><g><g><g id="change1_1"><path d="M279.968 307.669L262.357 286.455" fill="#ffffff"/></g><g id="change2_20"><path d="M279.971,312.669c-1.436,0-2.861-0.615-3.85-1.806l-17.611-21.214 c-1.764-2.125-1.471-5.277,0.653-7.041c2.125-1.764,5.278-1.471,7.041,0.653l17.611,21.214 c1.764,2.125,1.471,5.277-0.653,7.041C282.228,312.291,281.096,312.669,279.971,312.669z" fill="#449da1"/></g></g><g><g id="change1_14"><path d="M290.716 320.614L287.534 316.781" fill="#ffffff"/></g><g id="change2_3"><path d="M290.719,325.614c-1.436,0-2.861-0.615-3.85-1.807l-3.182-3.833 c-1.764-2.125-1.471-5.277,0.654-7.041c2.125-1.764,5.278-1.471,7.041,0.654l3.182,3.833 c1.764,2.125,1.471,5.277-0.654,7.041C292.976,325.236,291.844,325.614,290.719,325.614z" fill="#449da1"/></g></g></g></g><g><g><g id="change1_8"><path d="M212.601 312.656L212.601 289.579" fill="#ffffff"/></g><g id="change2_19"><path d="M212.601,317.656c-2.761,0-5-2.239-5-5v-23.077c0-2.761,2.239-5,5-5s5,2.239,5,5v23.077 C217.601,315.417,215.362,317.656,212.601,317.656z" fill="#449da1"/></g></g><g><g id="change1_5"><path d="M212.601 328.908L212.6 324.738" fill="#ffffff"/></g><g id="change2_13"><path d="M212.601,333.908c-2.761,0-5-2.238-5-4.999l-0.001-4.17c0-2.761,2.237-5,4.999-5.001c0,0,0,0,0.001,0 c2.761,0,5,2.238,5,4.999l0.001,4.17C217.601,331.668,215.363,333.908,212.601,333.908 C212.602,333.908,212.601,333.908,212.601,333.908z" fill="#449da1"/></g></g></g></g></g></g></svg>