<?xml version="1.0" encoding="UTF-8" standalone="no"?><svg xmlns="http://www.w3.org/2000/svg" xmlns:xlink="http://www.w3.org/1999/xlink" fill="#d69e0f" height="64" preserveAspectRatio="xMidYMid meet" version="1" viewBox="3.9 0.0 60.2 64.0" width="60.2" zoomAndPan="magnify"><g data-name="04-Evaluation" id="change1_1"><path d="M17,64a1,1,0,0,1-.707-.293l-12-12A1,1,0,0,1,5,50H17a1,1,0,0,1,1,1V63a1,1,0,0,1-1,1ZM7.414,52,16,60.586V52Z" fill="inherit"/><path d="M54,64H17a1,1,0,0,1-.707-.293l-12-12A1,1,0,0,1,4,51V1A1,1,0,0,1,5,0H55a1,1,0,0,1,1,1V46H54V2H6V50.586L17.414,62H54Z" fill="inherit"/><path d="M58,64a1,1,0,0,1-.707-.293l-11-11a1,1,0,0,1,0-1.414l5-5a1,1,0,0,1,1.414,0l11,11a1,1,0,0,1,0,1.414l-5,5A1,1,0,0,1,58,64ZM48.414,52,58,61.586,61.586,58,52,48.414Z" fill="inherit"/><path d="M45 43.757H47V52.242H45z" fill="inherit" transform="rotate(-45 46 48)"/><path d="M47 41.757H49V50.242H47z" fill="inherit" transform="rotate(-45 48 46)"/><path d="M48.964 51.5H56.035V53.5H48.964z" fill="inherit" transform="rotate(-45 52.5 52.5)"/><path d="M30,51A21,21,0,1,1,51,30,21.024,21.024,0,0,1,30,51Zm0-40A19,19,0,1,0,49,30,19.021,19.021,0,0,0,30,11Z" fill="inherit"/><path d="M30,46A16,16,0,1,1,46,30,16.019,16.019,0,0,1,30,46Zm0-30A14,14,0,1,0,44,30,14.015,14.015,0,0,0,30,16Z" fill="inherit"/><path d="M17,12H9a1,1,0,0,1-1-1V5A1,1,0,0,1,9,4h8a1,1,0,0,1,1,1v6A1,1,0,0,1,17,12Zm-7-2h6V6H10Z" fill="inherit"/><path d="M10,22H9a1,1,0,0,1-1-1V15a1,1,0,0,1,1-1h4v2H10Z" fill="inherit"/><path d="M20 4H22V6H20z" fill="inherit"/><path d="M24 4H51V6H24z" fill="inherit"/><path d="M20 58H22V60H20z" fill="inherit"/><path d="M24 58H42V60H24z" fill="inherit"/><path d="M20 54H38V56H20z" fill="inherit"/><path d="M27,38a1,1,0,0,1-.707-.293l-5-5a1,1,0,0,1,0-1.414l3-3a1,1,0,0,1,1.414,0L27,29.586l7.293-7.293a1,1,0,0,1,1.414,0l3,3a1,1,0,0,1,0,1.414l-11,11A1,1,0,0,1,27,38Zm-3.586-6L27,35.586,36.586,26,35,24.414l-7.293,7.293a1,1,0,0,1-1.414,0L25,30.414Z" fill="inherit"/></g></svg>