<?xml version="1.0" encoding="UTF-8" standalone="no"?><svg xmlns="http://www.w3.org/2000/svg" xmlns:xlink="http://www.w3.org/1999/xlink" fill="#199daf" height="92" preserveAspectRatio="xMidYMid meet" version="1" viewBox="0.0 18.0 128.2 92.0" width="128.2" zoomAndPan="magnify"><g id="change1_1"><path d="M4,110h98.8c1.7,0,3.2-1,3.8-2.6l21.2-58c0.4-1.2,0.3-2.6-0.5-3.7c-0.7-1.1-2-1.7-3.3-1.7H26.2c-1.7,0-3.2,1-3.8,2.6L4,97.1 V32.4h7.8V22h20.7L39,32h42.8l2.5-4H41.2l-5.3-8.2c-0.7-1.1-2-1.8-3.4-1.8H11.8c-2.2,0-4,1.8-4,4v6.4H4c-2.2,0-4,1.8-4,4V106 C0,108.2,1.8,110,4,110z M26.2,48H124l-1.5,4H24.8L26.2,48z M23.3,56h97.8l-18.3,50H5L23.3,56z" fill="inherit"/></g><g id="change1_2"><path d="M112.2,40h4.8h4.3l0.5-1.2c0.3-0.6,0.2-1.3-0.2-1.9c-0.4-0.6-1-0.9-1.7-0.9h-5.8v-8c0-1.1-0.9-2-2-2H92 c-0.7,0-1.3,0.3-1.6,0.9L84,36H42c-0.8,0-1.6,0.5-1.9,1.3l-1,2.7h4.3H85c0.7,0,1.3-0.3,1.6-0.9L93,30h17.1v8 C110.2,39.1,111.1,40,112.2,40z" fill="inherit"/></g></svg>