<?xml version="1.0" encoding="UTF-8" standalone="no"?><svg xmlns="http://www.w3.org/2000/svg" xmlns:xlink="http://www.w3.org/1999/xlink" fill="#ffffff" height="980" preserveAspectRatio="xMidYMid meet" version="1" viewBox="10.0 10.0 980.0 980.0" width="980" zoomAndPan="magnify"><g><g id="change1_1"><path d="M100,4535.8v-474.2h237.1h237.1V742.3v-3319.4h322.1h324l25.7-83c65.2-219.3,250.9-460.4,438.6-567.1l90.9-53.3l-128.4-67.2c-173.9-88.9-371.4-288.5-466.3-470.2c-100.8-191.7-132.4-351.7-132.4-689.6V-4790h1108.4h1108.4l-7.9,339.8c-9.9,371.4-35.6,480.1-164,697.5c-81,138.3-282.5,330-430.7,407l-128.4,65.2l90.9,53.3c187.7,106.7,373.4,347.8,438.6,567.1l25.7,83h488h488l25.7-83c65.2-219.3,250.9-460.4,438.6-567.1l90.9-53.3l-128.4-65.2c-148.2-77-349.7-268.7-430.7-407c-128.4-217.3-154.1-326-164-697.5l-7.9-339.8H5000h1110.4l-7.9,341.8c-9.9,369.5-35.6,478.2-164,695.5c-81,138.3-282.5,330-430.7,407l-128.4,65.2l90.9,53.3c187.7,106.7,373.4,347.8,438.6,567.1l25.7,83h488h488l25.7-83c65.2-219.3,250.9-460.4,438.6-567.1l90.9-53.3l-128.4-65.2c-148.2-77-349.7-268.7-430.7-407c-128.4-217.3-154.1-326-164-695.5l-7.9-341.8h1108.4h1108.4v272.7c0,341.8-21.7,466.3-120.5,669.8c-96.8,203.5-286.5,401.1-478.1,499.9l-128.4,67.2l90.9,53.3c223.3,128.4,418.9,412.9,464.3,679.7c73.1,426.8-247,906.9-691.5,1039.3l-85,23.7v887.1c0,486-5.9,885.2-11.8,885.2c-5.9,0-223.3-92.9-480.1-207.5c-258.8-114.6-494-207.5-523.6-207.5c-29.6,0-77.1,11.8-106.7,27.7c-29.6,15.8-256.9,233.1-505.8,484.1c-399.1,399.1-452.5,460.4-452.5,515.7c0,85,98.8,183.7,183.7,183.7c55.3,0,114.6-51.4,492-428.7l430.7-430.7l620.4,405l620.4,403.1l181.8-179.8l183.8-179.8V76.4v-598.7h158.1h158.1V76.4v596.7l177.8,177.8l177.8,175.8l57.3-55.3c31.6-29.6,81-98.8,110.6-154.1c108.7-197.6,108.7-201.5,108.7-1531.3v-1230.9h158.1H9900v1211.2c0,1347.5-2,1371.2-130.4,1634c-90.9,183.7-337.9,438.6-495.9,511.7l-104.7,47.4l94.8,55.3c223.3,128.4,418.9,412.9,464.3,679.7c41.5,239.1-51.4,541.4-221.3,727.1l-81,86.9V3536v525.6h237.1H9900v474.2V5010H5000H100V4535.8z M9583.9,4535.8v-158.1H5000H416.1v158.1v158.1H5000h4583.9V4535.8z M9109.7,3634.8c0-399.1-2-426.8-33.6-412.9c-19.8,7.9-90.9,23.7-158.1,35.6c-569,100.8-1157.8-490-1059-1063c45.4-262.8,237.1-547.3,458.4-677.7l85-49.4l-75.1-39.5c-43.5-21.7-339.8-209.4-661.9-418.9l-586.8-379.4l-322.1,324c-393.2,393.2-452.5,428.7-689.6,418.9l-158.1-7.9l-177.8,274.6c-98.8,150.2-177.8,280.6-173.9,288.5c3.9,9.9,156.1,181.8,339.8,385.3c280.6,312.2,339.8,367.5,375.4,355.6c195.6-57.3,318.1-23.7,466.3,126.4c211.4,211.4,211.4,424.8,0,636.2c-201.5,203.5-438.6,205.5-638.2,3.9c-132.4-130.4-177.8-294.4-126.5-446.5l29.6-88.9L5697.5,2558c-169.9-189.7-314.1-345.8-320.1-347.7c-5.9-3.9-63.2,75.1-128.4,171.9L5134.4,2560l-75.1-41.5c-41.5-23.7-98.8-61.3-130.4-86.9c-53.3-43.5-55.3-45.4-21.7-94.8c17.8-27.7,81-126.5,140.3-217.3l106.7-166l-140.3-152.1l-142.3-154.1l-92.9,25.7c-77.1,21.7-112.6,21.7-195.6,0l-100.8-25.7l-395.2,395.2L3692,2437.5l25.7,100.8c31.6,126.5,3.9,254.9-79,355.6c-140.3,175.8-306.3,247-470.2,203.5c-241-65.2-422.8-333.9-367.5-541.4c13.8-47.4,27.7-98.8,33.6-114.6c7.9-19.8-162-249-482.1-648.1c-446.5-557.2-499.9-616.5-539.4-602.6c-75.1,27.7-237.1,15.8-312.2-19.8c-146.2-71.1-262.8-227.2-288.5-379.4c-37.5-229.2,227.2-523.6,468.3-523.6c108.7,0,209.4,51.4,316.1,158.1c152.1,152.1,189.7,282.5,128.4,454.4c-17.8,49.4-21.7,94.8-13.8,106.7c13.8,15.8,928.6,1169.7,962.2,1213.1c2,2,45.4-5.9,94.8-19.8c73.1-19.8,110.6-17.8,193.6,2l100.8,25.7l395.2-391.2c343.8-343.8,391.2-399.1,381.3-442.6c-31.6-144.2-31.6-185.7-7.9-270.7c17.8-69.2,55.3-124.5,134.4-203.5c211.4-211.4,424.8-211.4,634.2,0c152.1,150.2,189.7,282.5,130.4,450.5l-29.6,81l114.6,124.5l114.6,124.5l173.9-264.8c169.9-260.8,171.9-266.7,150.2-337.9c-11.8-41.5-21.7-126.5-21.7-191.7c0-197.6,45.4-260.8,549.3-760.7c527.5-525.6,549.3-539.4,823.9-537.4c169.9,0,187.7,4,385.3,94.9c114.6,51.4,227.2,102.7,252.9,112.6l43.5,17.8v-650.1v-648.1l-83-25.7c-308.2-90.9-578.9-361.6-669.8-665.9l-23.7-85h-488h-488l-23.7,85c-102.7,345.8-424.8,630.3-782.4,691.5c-426.8,73.1-906.9-247-1039.3-691.5l-23.7-85h-488h-488l-23.7,85c-102.7,345.8-424.8,630.3-782.4,691.5c-426.8,73.1-906.9-247-1039.3-691.5l-23.7-85h-166h-164V900.3v3161.3H5000h4109.7V3634.8z M6541.1,3231.8c25.7-25.7,39.5-65.2,39.5-118.5c0-53.3-13.8-92.9-39.5-118.5s-65.2-39.5-118.6-39.5c-53.3,0-92.9,13.8-118.5,39.5c-25.7,25.7-39.5,65.2-39.5,118.5c0,53.4,13.8,92.9,39.5,118.5c25.7,25.7,65.2,39.5,118.5,39.5C6475.9,3271.3,6515.4,3257.5,6541.1,3231.8z M9080,2895.9c122.5-59.3,227.2-164,288.5-288.5c39.5-81,47.4-126.5,47.4-284.5c0-215.4-41.5-328-167.9-454.4c-126.5-126.5-239.1-167.9-454.4-167.9c-158.1,0-203.5,7.9-284.5,47.4c-203.5,100.8-326,284.5-343.8,515.7c-21.7,316.1,126.4,559.1,401.1,657.9C8706.6,2971,8947.7,2959.1,9080,2895.9z M3379.8,2757.6c25.7-25.7,39.5-65.2,39.5-118.5c0-104.7-53.3-158.1-158.1-158.1c-104.7,0-158.1,53.3-158.1,158.1c0,53.3,13.8,92.9,39.5,118.5c25.7,25.7,65.2,39.5,118.5,39.5S3354.2,2783.3,3379.8,2757.6z M4802.4,1335c25.7-25.7,39.5-65.2,39.5-118.5c0-104.7-53.3-158.1-158.1-158.1c-104.7,0-158.1,53.3-158.1,158.1c0,53.4,13.8,92.9,39.5,118.5s65.2,39.5,118.5,39.5S4776.7,1360.7,4802.4,1335z M8967.4,1200.6c41.5-13.8,39.5-19.8-65.2-122.5l-108.7-106.7l-108.7,106.7c-104.7,102.7-106.7,108.7-65.2,122.5c25.7,5.9,102.8,11.8,173.9,11.8C8864.7,1212.5,8941.7,1206.6,8967.4,1200.6z M1799.2,860.8c25.7-25.7,39.5-65.2,39.5-118.5c0-104.7-53.3-158.1-158.1-158.1c-104.7,0-158.1,53.3-158.1,158.1c0,104.7,53.3,158.1,158.1,158.1C1734,900.3,1773.5,886.5,1799.2,860.8z M2441.3-1846.1c122.5-59.3,227.2-164,288.5-288.5c39.5-81,47.4-124.5,47.4-284.5c0-215.4-43.5-330-167.9-454.4c-124.5-124.5-239.1-167.9-454.4-167.9c-160,0-203.5,7.9-284.5,47.4c-203.5,100.8-326,284.5-343.8,515.7c-21.7,316.1,126.5,559.2,401.1,657.9C2067.9-1771,2308.9-1782.8,2441.3-1846.1z M5286.5-1846.1c122.5-59.3,227.2-164,288.5-288.5c39.5-81,47.4-126.5,47.4-284.5c0-215.4-41.5-328-167.9-454.4c-126.5-126.5-239.1-167.9-454.4-167.9c-158.1,0-203.5,7.9-284.5,47.4c-203.5,100.8-326,284.5-343.8,515.7c-21.7,316.1,126.5,559.2,401.1,657.9C4913.1-1771,5154.1-1782.8,5286.5-1846.1z M8131.6-1846.1c122.5-59.3,225.3-162,286.5-286.5c41.5-83,49.4-128.4,49.4-286.5c0-215.4-41.5-328-167.9-454.4c-126.5-126.5-239.1-167.9-454.4-167.9c-215.4,0-330,43.5-454.4,167.9c-148.2,148.2-213.4,407-160,626.3c49.4,197.6,211.4,369.5,405,432.7C7762.2-1772.9,8013.1-1788.7,8131.6-1846.1z M2451.2-3572.9c209.4-75.1,407-294.4,464.3-515.7c15.8-63.2,29.6-177.8,29.6-250.9v-134.3h-790.3h-790.3v148.2c0,361.6,187.7,634.2,519.6,756.7c102.7,37.5,150.2,43.5,300.3,35.6C2283.3-3537.3,2401.8-3555.1,2451.2-3572.9z M5258.8-3565c328-100.8,531.5-401.1,531.5-774.5v-134.3H5000h-790.3v148.2c0,181.8,53.3,357.6,150.2,490C4551.5-3572.9,4924.9-3460.3,5258.8-3565z M8106-3567c223.3-73.1,389.2-229.2,478.1-448.5c21.7-57.3,39.5-166,47.4-274.6l9.9-183.7h-794.3h-792.3v146.2c0,466.3,324,798.2,784.4,800.2C7934.1-3525.5,8025-3539.3,8106-3567z" transform="matrix(.1 0 0 -.1 0 511)"/><path d="M2629-206.1v-158.1h1264.5h1264.5v158.1v158.1H3893.5H2629V-206.1z" transform="matrix(.1 0 0 -.1 0 511)"/><path d="M3103.2-838.4v-158.1h1027.4h1027.4v158.1v158.1H4130.6H3103.2V-838.4z" transform="matrix(.1 0 0 -.1 0 511)"/></g></g></svg>