<?xml version="1.0" encoding="UTF-8" standalone="no"?><svg xmlns="http://www.w3.org/2000/svg" xmlns:xlink="http://www.w3.org/1999/xlink" fill="#ffffff" height="26.8" preserveAspectRatio="xMidYMid meet" version="1" viewBox="0.4 3.1 30.3 26.8" width="30.3" zoomAndPan="magnify"><g id="change1_1"><path d="M28.15088,7.87793c-1.88361-3.29521-5.31162-4.75345-9.355-4.73046C12.521,3.07281,6.38339,6.18916,3.84915,12.03423.37677,19.87005,4.03458,29.90334,13.8996,29.50469a14.40542,14.40542,0,0,0,7.22394-1.93441Q22.302,26.96535,22,26.15039a.85569.85569,0,0,0-1.2998-.48437C16.65748,28.08145,10.08,28.41545,6.84127,24.59376,3.06333,19.93862,4.56221,12.38324,8.80606,8.6641c4.41846-3.89668,13.69513-5.46636,17.3952.09054,2.00237,3.40187.96255,8.76809-1.84366,11.44071-1.25156,1.17984-3.48555.967-3.05287-1.2091l1.26949-8.10051c.15286-1.05475-.19542-1.54533-1.33008-1.542a1.28806,1.28806,0,0,0-1.42042,1.05859l-.18236,1.20709c-.852-2.63-4.18736-3.00662-6.27077-1.60052a10.07276,10.07276,0,0,0-4.398,7.95c-.09708,5.46076,6.73172,6.7201,9.2854,2.25.27267,3.13931,4.47135,3.29149,6.53786,1.83C29.12121,19.16354,30.62987,12.39308,28.15088,7.87793Zm-9.38526,8.17676a6.19985,6.19985,0,0,1-2.93161,4.126c-1.86385,1.08921-4.13381.10832-3.99017-2.28233.05235-2.5802,1.48023-6.29864,4.50375-6.37792C18.87683,11.47183,19.52612,13.74116,18.76562,16.05469Z" fill="inherit"/></g></svg>