<?xml version="1.0" encoding="UTF-8" standalone="no"?><svg xmlns="http://www.w3.org/2000/svg" xmlns:xlink="http://www.w3.org/1999/xlink" fill="#199daf" height="48" preserveAspectRatio="xMidYMid meet" version="1" viewBox="1.0 8.0 62.0 48.0" width="62" zoomAndPan="magnify"><g data-name="Layer 21" id="change1_1"><path d="m32 28a8 8 0 1 0 -8-8 8.009 8.009 0 0 0 8 8zm-1-9a1 1 0 1 1 1 1 1 1 0 0 1 -1-1zm-1 6.65v-2.65a1 1 0 0 1 1-1h2a1 1 0 0 1 1 1v2.65a5.889 5.889 0 0 1 -4 0zm2-11.65a5.992 5.992 0 0 1 4 10.46v-1.46a2.994 2.994 0 0 0 -1.4-2.529 2.967 2.967 0 0 0 .4-1.471 3 3 0 0 0 -6 0 2.967 2.967 0 0 0 .4 1.471 2.994 2.994 0 0 0 -1.4 2.529v1.46a5.992 5.992 0 0 1 4-10.46z"/><path d="m24 30h16v2h-16z"/><path d="m21 34h12v2h-12z"/><path d="m21 38h22v2h-22z"/><path d="m21 42h22v2h-22z"/><path d="m62 14h-15v-5a1 1 0 0 0 -1-1h-28a1 1 0 0 0 -1 1v5h-15a1 1 0 0 0 -1 1v40a1 1 0 0 0 1 1h28a1 1 0 0 0 1-1v-5h2v5a1 1 0 0 0 1 1h28a1 1 0 0 0 1-1v-40a1 1 0 0 0 -1-1zm-14 12a1 1 0 1 1 1-1 1 1 0 0 1 -1 1zm-1 2h2a1 1 0 0 1 1 1v2.65a5.749 5.749 0 0 1 -3 .258zm3.6-1.529a2.967 2.967 0 0 0 .4-1.471 3 3 0 0 0 -3-3 2.966 2.966 0 0 0 -1 .184v-2.092a5.988 5.988 0 0 1 5 10.368v-1.46a2.994 2.994 0 0 0 -1.4-2.529zm-31.6-16.471h26v38h-26zm-4 15a1 1 0 1 1 1 1 1 1 0 0 1 -1-1zm2-2.816a2.966 2.966 0 0 0 -1-.184 3 3 0 0 0 -3 3 2.967 2.967 0 0 0 .4 1.471 2.994 2.994 0 0 0 -1.4 2.529v1.46a5.978 5.978 0 0 1 5-10.368zm-3 6.816a1 1 0 0 1 1-1h2v3.908a5.749 5.749 0 0 1 -3-.258zm15 25h-26v-38h14v2.072a8.13 8.13 0 0 0 -1-.072 8 8 0 0 0 0 16 8.13 8.13 0 0 0 1-.072v2.072h-9v2h9v2h-2v2h2v2h-12v2h12v3a1 1 0 0 0 1 1h11zm32 0h-26v-4h11a1 1 0 0 0 1-1v-3h12v-2h-12v-2h2v-2h-2v-2h9v-2h-9v-2.072a8.13 8.13 0 0 0 1 .072 8 8 0 0 0 0-16 8.13 8.13 0 0 0 -1 .072v-2.072h14z"/><path d="m49 48h10v2h-10z"/><path d="m5 48h10v2h-10z"/></g></svg>