<?xml version="1.0" encoding="UTF-8" standalone="no"?><svg xmlns="http://www.w3.org/2000/svg" xmlns:xlink="http://www.w3.org/1999/xlink" fill="#000000" height="60" preserveAspectRatio="xMidYMid meet" version="1" viewBox="2.0 2.0 60.0 60.0" width="60" zoomAndPan="magnify"><g><g id="change1_1"><circle cx="32" cy="32" fill="#449da1" r="19"/></g><g fill="#ffffff" id="change2_1"><circle cx="32" cy="25" r="6"/><path d="M36,31h-8c-2.209,0-4,1.791-4,4v8h16v-8C40,32.791,38.209,31,36,31z"/></g><g id="change3_1"><path d="M61,33h-4c-0.553,0-1-0.448-1-1s0.447-1,1-1h4c0.553,0,1,0.448,1,1S61.553,33,61,33z" fill="#d69e0f"/></g><g id="change3_2"><path d="M7,33H3c-0.553,0-1-0.448-1-1s0.447-1,1-1h4c0.553,0,1,0.448,1,1S7.553,33,7,33z" fill="#d69e0f"/></g><g id="change3_3"><path d="M32,8c-0.553,0-1-0.448-1-1V3c0-0.552,0.447-1,1-1s1,0.448,1,1v4C33,7.552,32.553,8,32,8z" fill="#d69e0f"/></g><g id="change3_4"><path d="M32,62c-0.553,0-1-0.448-1-1v-4c0-0.552,0.447-1,1-1s1,0.448,1,1v4C33,61.552,32.553,62,32,62z" fill="#d69e0f"/></g><g fill="#199daf" id="change4_3"><circle cx="57" cy="6" r="3"/><path d="M59,9h-4c-1.105,0-2,0.895-2,2v4h8v-4C61,9.895,60.105,9,59,9z"/></g><g fill="#199daf" id="change4_1"><circle cx="57" cy="52" r="3"/><path d="M59,55h-4c-1.105,0-2,0.895-2,2v4h8v-4C61,55.895,60.105,55,59,55z"/></g><g fill="#199daf" id="change4_4"><circle cx="8" cy="51" r="3"/><path d="M10,54H6c-1.105,0-2,0.895-2,2v4h8v-4C12,54.895,11.105,54,10,54z"/></g><g fill="#199daf" id="change4_2"><circle cx="7" cy="6" r="3"/><path d="M9,9H5c-1.105,0-2,0.895-2,2v4h8v-4C11,9.895,10.105,9,9,9z"/></g></g></svg>