<?xml version="1.0" encoding="UTF-8" standalone="no"?><svg xmlns="http://www.w3.org/2000/svg" xmlns:xlink="http://www.w3.org/1999/xlink" fill="#000000" height="45" preserveAspectRatio="xMidYMid meet" version="1" viewBox="9.0 9.0 46.0 45.0" width="46" zoomAndPan="magnify"><g fill="#449da1"><g id="change1_2"><path d="M32,9C19.3,9,9,19.3,9,32c0,6.5,2.7,12.3,7,16.5V19h21.8L48,29.1v19.4c4.3-4.2,7-10,7-16.5 C55,19.3,44.7,9,32,9z" fill="inherit"/></g><g id="change1_3"><path d="M37 21L37 30.1 46 30z" fill="inherit"/></g><g id="change1_1"><path d="M30.2 38.2L31.1 38.2 30.6 37z" fill="inherit"/><path d="M36,31.1V21H18v28c3.8,3.1,8.7,5,14,5s10.2-1.9,14-5V31L36,31.1z M22,24h10c0.6,0,1,0.4,1,1s-0.4,1-1,1H22 c-0.6,0-1-0.4-1-1S21.4,24,22,24z M34.1,40.5c0.2,0.5-0.1,1.1-0.6,1.3c-0.1,0-0.2,0.1-0.4,0.1c-0.4,0-0.8-0.2-0.9-0.6l-0.4-1h-2.4 l-0.4,1c-0.2,0.5-0.8,0.8-1.3,0.6c-0.5-0.2-0.8-0.8-0.6-1.3l2.5-6.7c0.1-0.4,0.5-0.6,0.9-0.6s0.8,0.3,0.9,0.6L34.1,40.5z M22,28 h10c0.6,0,1,0.4,1,1s-0.4,1-1,1H22c-0.6,0-1-0.4-1-1S21.4,28,22,28z M21.2,41v-6.9c0-0.6,0.4-1,1-1h4.6c0.6,0,1,0.4,1,1 s-0.4,1-1,1h-3.6v1.5H25c0.6,0,1,0.4,1,1s-0.4,1-1,1h-1.8V41c0,0.6-0.4,1-1,1S21.2,41.6,21.2,41z M41,50H23c-0.6,0-1-0.4-1-1 s0.4-1,1-1h18c0.6,0,1,0.4,1,1S41.6,50,41,50z M41,46H23c-0.6,0-1-0.4-1-1s0.4-1,1-1h18c0.6,0,1,0.4,1,1S41.6,46,41,46z M42.5,41.7c-0.2,0.2-0.5,0.3-0.7,0.3s-0.5-0.1-0.7-0.3l-2.5-2.5c-0.4-0.4-0.4-1,0-1.4s1-0.4,1.4,0l2.5,2.5 C42.9,40.7,42.9,41.3,42.5,41.7z M42.6,38.9l-1.8-1.8c-0.2-1-1.2-1.8-2.3-1.8c-1.3,0-2.4,1.1-2.4,2.4c0,1.1,0.8,2.1,1.8,2.3 l1.8,1.8c-0.4,0.1-0.9,0.2-1.3,0.2c-2.4,0-4.4-2-4.4-4.4s2-4.4,4.4-4.4s4.4,2,4.4,4.4C42.8,38.1,42.7,38.5,42.6,38.9z" fill="inherit"/></g></g></svg>