<?xml version="1.0" encoding="UTF-8" standalone="no"?><!-- Generator: Adobe Illustrator 23.1.0, SVG Export Plug-In . SVG Version: 6.00 Build 0)  --><svg xmlns="http://www.w3.org/2000/svg" xmlns:xlink="http://www.w3.org/1999/xlink" fill="#ffffff" height="60" id="Layer_1_1_" preserveAspectRatio="xMidYMid meet" style="enable-background:new 0 0 64 64" version="1.1" viewBox="2.0 2.0 60.0 60.0" width="60" x="0px" xml:space="preserve" y="0px" zoomAndPan="magnify">
<g id="change1_1"><path d="m58 38h-6v-25c0-0.552-0.447-1-1-1h-8v-4c0-3.309-2.691-6-6-6h-34c-0.553 0-1 0.448-1 1v58c0 0.552 0.447 1 1 1h55c2.206 0 4-1.794 4-4v-16c0-2.206-1.794-4-4-4zm-8-24v3h-2v2h2v2h-2v2h2v2h-2v2h2v11h-7v-24h7zm-46-10h33c2.206 0 4 1.794 4 4v30h-15c-2.206 0-4 1.794-4 4v16c0 0.732 0.212 1.409 0.556 2h-18.556v-56zm54 56h-32c-1.103 0-2-0.897-2-2v-16c0-1.103 0.897-2 2-2h32c1.103 0 2 0.897 2 2h-19c-0.553 0-1 0.448-1 1v4c0 0.552 0.447 1 1 1h19v10c0 1.103-0.897 2-2 2zm2-16v2h-18v-2h18z" fill="inherit"/></g>
<g id="change1_2"><path d="m31 42c-2.757 0-5 2.243-5 5s2.243 5 5 5 5-2.243 5-5-2.243-5-5-5zm0 8c-1.654 0-3-1.346-3-3s1.346-3 3-3 3 1.346 3 3-1.346 3-3 3z" fill="inherit"/></g>
<g id="change1_3"><rect fill="inherit" height="2" width="5" x="40" y="51"/></g>
<g id="change1_4"><rect fill="inherit" height="2" width="10" x="48" y="51"/></g>
<g id="change1_5"><rect fill="inherit" height="2" width="3" x="40" y="55"/></g>
<g id="change1_6"><rect fill="inherit" height="2" width="4" x="45" y="55"/></g>
<g id="change1_7"><rect fill="inherit" height="2" width="7" x="51" y="55"/></g>
<g id="change1_8"><path d="m24 34c6.617 0 12-5.383 12-12s-5.383-12-12-12-12 5.383-12 12 5.383 12 12 12zm-9.303-8.357c0.862 0.339 1.81 0.598 2.786 0.791 0.375 1.661 0.956 3.128 1.694 4.32-2.03-1.122-3.623-2.932-4.48-5.111zm19.303-3.643c0 0.358-0.021 0.711-0.058 1.06-0.718 0.502-1.763 0.918-3.069 1.235 0.081-0.741 0.127-1.507 0.127-2.295 0-1.165-0.098-2.281-0.271-3.339 1.254 0.292 2.276 0.676 3.02 1.142 0.16 0.708 0.251 1.442 0.251 2.197zm-5 0c0 0.929-0.072 1.83-0.197 2.691-1.152 0.161-2.436 0.255-3.803 0.288v-6.959c1.302 0.031 2.522 0.115 3.624 0.26 0.24 1.156 0.376 2.413 0.376 3.72zm-6 9.789c-1.437-0.611-2.669-2.503-3.373-5.024 1.203 0.137 2.364 0.199 3.373 0.222v4.802zm2 0v-4.802c1.009-0.023 2.17-0.085 3.373-0.222-0.704 2.521-1.936 4.413-3.373 5.024zm0-15.776v-3.802c1.232 0.523 2.309 1.993 3.036 3.987-1.086-0.112-2.127-0.164-3.036-0.185zm-2-3.802v3.802c-0.909 0.021-1.95 0.074-3.036 0.186 0.727-1.995 1.804-3.465 3.036-3.988zm0 5.809v6.959c-1.367-0.033-2.651-0.127-3.803-0.288-0.125-0.861-0.197-1.762-0.197-2.691 0-1.307 0.136-2.564 0.376-3.721 1.102-0.144 2.322-0.229 3.624-0.259zm-5.873 6.275c-1.306-0.317-2.351-0.733-3.069-1.235-0.037-0.349-0.058-0.702-0.058-1.06 0-0.755 0.091-1.489 0.251-2.197 0.743-0.466 1.766-0.85 3.02-1.142-0.173 1.058-0.271 2.174-0.271 3.339 0 0.788 0.046 1.554 0.127 2.295zm11.696 6.459c0.737-1.192 1.318-2.659 1.694-4.32 0.977-0.193 1.924-0.452 2.786-0.791-0.857 2.179-2.45 3.989-4.48 5.111zm3.91-13.612c-0.787-0.266-1.631-0.471-2.489-0.629-0.362-1.232-0.843-2.334-1.421-3.267 1.64 0.907 2.997 2.261 3.91 3.896zm-13.556-3.896c-0.577 0.933-1.059 2.035-1.421 3.267-0.858 0.159-1.702 0.364-2.489 0.629 0.913-1.635 2.27-2.989 3.91-3.896z" fill="inherit"/></g>
<g id="change1_9"><rect fill="inherit" height="2" width="2" x="18" y="56"/></g>
<g id="change1_10"><path d="m8 48h-2v9c0 0.552 0.447 1 1 1h9v-2h-8v-8z" fill="inherit"/></g>
<g id="change1_11"><rect fill="inherit" height="40" width="2" x="6" y="6"/></g>
</svg>