<?xml version="1.0" encoding="UTF-8" standalone="no"?><svg xmlns="http://www.w3.org/2000/svg" xmlns:xlink="http://www.w3.org/1999/xlink" fill="#ffffff" height="52.8" preserveAspectRatio="xMidYMid meet" version="1" viewBox="-0.2 4.9 64.8 52.8" width="64.8" zoomAndPan="magnify"><g id="change1_1"><path d="M63.91,42.75a5.58,5.58,0,0,0-5.15-4.6A10.3,10.3,0,0,0,56,35.07a5.49,5.49,0,0,0,1.27-5.14c.92-1.33,3.15-5.17.57-8.22a5.63,5.63,0,0,0-6.75-1.55c-1.26-.74-4.58-2.34-7.44-.68A6.07,6.07,0,0,0,40.57,24a7.4,7.4,0,0,0-2.18-.18,27.7,27.7,0,0,0-2.53-2.94l-6.79-6.79c-3.84-3.84-6.76-2.72-9.31-.48-1.06-2.06-2.35-5.54-.6-6.75A1,1,0,0,0,18,5.19c-2,1.37-1.95,3.77-1.37,5.93a7.73,7.73,0,0,0-7.33,0,1,1,0,1,0,.88,1.79,5.79,5.79,0,0,1,6.32.52,5.75,5.75,0,0,0-4,1.17A1,1,0,0,0,12.35,16a1,1,0,0,0,.79.37,1,1,0,0,0,.62-.22,4.55,4.55,0,0,1,4-.52c-2.13,2.51-3.11,5.38.64,9.13l3.94,3.94H16.11c-5.43,0-6.7,2.86-6.92,6.25C7,34.23,3.61,32.67,4,30.59a1,1,0,0,0-.8-1.17A1,1,0,0,0,2,30.23c-.43,2.36,1.28,4,3.22,5.16a7.72,7.72,0,0,0-5.2,5.17,1,1,0,0,0,.62,1.27.93.93,0,0,0,.32.05,1,1,0,0,0,1-.67A5.79,5.79,0,0,1,6.77,37.1a5.79,5.79,0,0,0-2,3.67,1,1,0,0,0,.88,1.1h.11a1,1,0,0,0,1-.89,4.54,4.54,0,0,1,2.45-3.2c.26,3.28,1.6,6,6.9,6,2.65,0,4.24,0,5.16.07,0,.18-.09.37-.14.55a24.58,24.58,0,0,0-5.32,8.78,22.68,22.68,0,0,0-2.68,2.73,1,1,0,0,0,.17,1.4,1,1,0,0,0,1.4-.17A22.62,22.62,0,0,1,17,54.79c1.5.11,3,.17,4.71.17,3.06,0,5.93-.18,8.46-.34,2.08-.13,3.87-.24,5.43-.24a12.63,12.63,0,0,1,3.55.37,5.39,5.39,0,0,0,1.55.23c2.77,0,5.15-2.16,6.39-3.53A7.33,7.33,0,0,0,53.66,54c3.89-.32,5.39-2.71,5.76-4.34C60.87,49,64.68,46.67,63.91,42.75ZM41.08,26.24a1,1,0,0,0,1-.1,1,1,0,0,0,.41-.92,4.28,4.28,0,0,1,2.15-4c2.44-1.41,5.78.9,5.81.92a1,1,0,0,0,1.08,0,3.7,3.7,0,0,1,4.77.83c2,2.41-.92,6.11-1,6.14a1,1,0,0,0-.12,1.06,3.44,3.44,0,0,1-1.13,4,5.46,5.46,0,0,0-1.54-.23h0a6.16,6.16,0,0,0-4.88,2.44,6.31,6.31,0,0,0-4.18-1.76,5.16,5.16,0,0,0-1.28.16A7.1,7.1,0,0,0,38,37.57a6.13,6.13,0,0,0-1.77-.48l.94-.88c.31-.29.61-.55.91-.82.67-.37,4.73-2.44,8.76-1a1,1,0,1,0,.67-1.88A11.25,11.25,0,0,0,42.3,32c.5-.36,1-.69,1.45-1,4-1.24,5.78-.75,6.47-.33a1.45,1.45,0,0,1,.72.87,1,1,0,0,0,1,.85h.13a1,1,0,0,0,.87-1.12A3.35,3.35,0,0,0,51.36,29a5.58,5.58,0,0,0-2.62-.78,16.87,16.87,0,0,1,3-1.08,1,1,0,0,0-.42-2,25.11,25.11,0,0,0-6.37,2.74c1.57-3.31.51-4.7.2-5a1,1,0,0,0-1.44,0,1,1,0,0,0,0,1.38c.27.42.29,2.37-2.82,6.32-.87.63-1.78,1.35-2.72,2.14.37-2.34-.69-3.3-.86-3.44a1,1,0,0,0-1.43.13,1,1,0,0,0,.13,1.38s1,1.16-1.07,4.83L33,37.34c-.57.16-1.13.33-1.67.52.69-1.83,1-3,1-3a1,1,0,0,0-1.93-.54,44.51,44.51,0,0,1-1.66,4.6A24.88,24.88,0,0,0,24,41.8a23.4,23.4,0,0,1,5.66-8.5,4.89,4.89,0,0,1,3.83-1.59,1,1,0,0,0,1.16-1.12,4.81,4.81,0,0,1,1.72-3.9,3.42,3.42,0,0,1,1.8-.86h0A5.49,5.49,0,0,1,41.08,26.24ZM20.22,15.9c2.66-2.66,4.45-3.4,7.43-.42l6.8,6.79c.64.65,1.25,1.35,1.84,2.08a5.69,5.69,0,0,0-1.28.87,7.1,7.1,0,0,0-2.34,4.51,7.24,7.24,0,0,0-4.27,2c-.63-.52-1.24-1.06-1.81-1.62l-2.45-2.46C26,23,28.49,22,28.56,22a1,1,0,0,0-.62-1.91c-.13.05-3.14,1.06-5.34,6.08l-2.8-2.8C16.82,20.35,17.56,18.56,20.22,15.9Zm.66,26c-1.9-4.48-.85-6.88-.81-7A1,1,0,0,0,18.28,34c-.06.12-1.42,2.87.43,7.82l-2.6,0c-4.22,0-5-1.79-5-5.55s.74-5.55,5-5.55h8.22l.85.85c.57.57,1.19,1.11,1.82,1.64a24.9,24.9,0,0,0-5.14,8.7Zm37.26,6.21a1,1,0,0,0-.63.87c0,.11-.19,2.77-4,3.09a5.25,5.25,0,0,1-5.36-2.66,1,1,0,0,0-.82-.59,1,1,0,0,0-.92.42c-.74,1.05-3.2,3.79-5.65,3.79a3.43,3.43,0,0,1-1-.14,14.13,14.13,0,0,0-4.14-.46c-1.62,0-3.53.12-5.55.24-2.51.16-5.35.34-8.34.34-.82,0-1.61,0-2.38-.05a34.35,34.35,0,0,1,4.92-3A42.33,42.33,0,0,1,32,47.15c5.47-.36,6.85,2.79,6.91,2.94a1,1,0,0,0,.93.64.92.92,0,0,0,.36-.07,1,1,0,0,0,.58-1.29A6.83,6.83,0,0,0,37,45.87l1.8-.45,1.2-.27c.78,0,5.34.18,8.13,3.37a1,1,0,0,0,.75.35,1,1,0,0,0,.66-.25,1,1,0,0,0,.1-1.41,11.23,11.23,0,0,0-4.31-3c.62-.07,1.21-.13,1.77-.17,4.1.86,5.4,2.14,5.8,2.84A1.43,1.43,0,0,1,53.11,48a1,1,0,0,0,.56,1.28,1,1,0,0,0,1.3-.55A3.3,3.3,0,0,0,54.7,46a5.61,5.61,0,0,0-1.91-2,17.15,17.15,0,0,1,3.11.49,1,1,0,1,0,.58-1.92,25.14,25.14,0,0,0-6.9-.69c3-2.13,2.72-3.86,2.6-4.27a1,1,0,1,0-1.92.55s-.2,1.82-5.54,4.06c-1.07.14-2.21.32-3.42.56,1.45-1.87,1-3.22.91-3.42a1,1,0,0,0-1.31-.59,1,1,0,0,0-.56,1.28s.31,1.49-3.27,3.69l-.64.16c-1.55.38-3.24.8-4.93,1.26a47.87,47.87,0,0,0,3.78-3.31,1,1,0,1,0-1.43-1.41,56,56,0,0,1-8.67,6.8c-.63.25-1.24.52-1.8.81a38,38,0,0,0-4.22,2.5A23.21,23.21,0,0,1,33.64,39.24,6.14,6.14,0,0,1,35.25,39a4.27,4.27,0,0,1,2.51.7,1,1,0,0,0,.88.17,1,1,0,0,0,.67-.59,4.84,4.84,0,0,1,3.4-2.58,3.73,3.73,0,0,1,.8-.1,5,5,0,0,1,3.54,2A1,1,0,0,0,48,39a1,1,0,0,0,.81-.61,4.3,4.3,0,0,1,3.88-2.46c2.78,0,4.56,3.58,4.58,3.62a1.07,1.07,0,0,0,.94.56,3.7,3.7,0,0,1,3.76,3C62.55,46.23,58.18,48,58.14,48.06Z" fill="inherit"/></g></svg>