<?xml version="1.0" encoding="UTF-8" standalone="no"?><svg xmlns="http://www.w3.org/2000/svg" xmlns:xlink="http://www.w3.org/1999/xlink" fill="#000000" height="64.4" preserveAspectRatio="xMidYMid meet" version="1" viewBox="4.9 22.5 92.2 64.4" width="92.2" zoomAndPan="magnify"><g clip-rule="evenodd" fill-rule="evenodd"><g id="change1_1"><path d="M67.053,76.78c0,2.13,0.064,4.263-0.019,6.39 c-0.09,2.33-1.514,3.693-3.717,3.745c-2.177,0.049-3.914-1.274-3.96-3.52c-0.127-6.235-0.12-12.477-0.007-18.712 c0.039-2.108,1.751-3.474,4.01-3.529c2.814-0.068,5.631-0.076,8.444-0.003c1.349,0.035,1.936-0.176,2.049-1.798 c0.274-3.931,0.96-7.824,2.141-11.606c1.437-4.604,5.444-7.551,10.228-7.518c3.339,0.023,4.789,1.917,3.906,5.255 c-1.336,5.049-2.737,10.079-4.127,15.112c-2.234,8.087-2.241,8.085-10.727,8.085c-1.979,0-3.964,0.106-5.933-0.032 c-1.721-0.123-2.488,0.289-2.313,2.201c0.181,1.961,0.041,3.952,0.041,5.93C67.064,76.78,67.058,76.78,67.053,76.78z" fill="#199daf"/></g><g id="change2_1"><path d="M42.719,74.039c0,2.893,0.037,5.785-0.011,8.677 c-0.043,2.645-1.637,4.247-4.052,4.194c-2.319-0.05-3.717-1.592-3.736-4.22c-0.027-3.958-0.089-7.919,0.032-11.873 c0.051-1.647-0.285-2.268-2.086-2.184c-3.417,0.16-6.849,0.071-10.273,0.038c-3.059-0.029-4.731-1.307-5.568-4.322 c-1.784-6.42-3.542-12.849-5.25-19.291c-0.765-2.886,0.736-4.755,3.729-4.828c5.01-0.123,9.29,2.961,10.67,7.903 c1.001,3.581,1.75,7.239,1.914,10.967c0.066,1.512,0.458,2.163,2.108,2.066c2.427-0.144,4.869-0.046,7.305-0.036 c3.912,0.016,5.212,1.301,5.219,5.144C42.723,68.863,42.719,71.451,42.719,74.039z" fill="#ffffff"/></g><g id="change2_2"><path d="M51.258,36.112c2.356,0,4.712-0.025,7.069,0.005 c4.136,0.052,7.126,3.019,7.251,7.16c0.019,0.608,0.006,1.216,0.006,1.824c0.001,3.041-0.002,2.954-2.932,3.047 c-1.528,0.049-2.235-0.283-2.046-1.961c0.083-0.727,0.445-2.049-0.646-2.091c-1.213-0.049-0.806,1.295-0.713,1.989 c0.242,1.796-0.508,2.118-2.142,2.069c-3.95-0.122-7.906-0.122-11.855,0c-1.626,0.049-2.213-0.454-1.959-2.029 c0.06-0.369,0.02-0.76-0.017-1.137c-0.043-0.459-0.137-1.003-0.715-0.97c-0.496,0.029-0.747,0.454-0.715,0.981 c0.004,0.076,0.011,0.153,0,0.228c-0.142,0.94,0.497,2.403-0.372,2.725c-1.205,0.446-2.69,0.138-4.056,0.151 c-0.472,0.004-0.678-0.269-0.658-0.705c0.102-2.334-0.48-4.759,0.557-6.976c1.25-2.67,3.388-4.233,6.417-4.3 C46.239,36.068,48.748,36.112,51.258,36.112z" fill="#ffffff"/></g><g id="change2_3"><path d="M51.4,55.329c-6.243,0-12.488-0.087-18.727,0.052 c-1.895,0.042-1.912-0.85-1.773-2.17c0.124-1.194-0.666-2.702,1.771-2.682c12.409,0.106,24.819,0.104,37.227-0.004 c2.138-0.02,1.66,1.213,1.603,2.312c-0.056,1.079,0.748,2.593-1.603,2.539C63.735,55.235,57.566,55.329,51.4,55.329z" fill="#ffffff"/></g><g id="change1_2"><path d="M76.613,75.896c-1.294,0-2.588-0.009-3.882,0.002 c-1.348,0.011-2.255-0.614-2.32-1.966c-0.073-1.479,0.96-1.91,2.267-1.905c2.13,0.007,4.262,0.01,6.392-0.002 c4.825-0.023,7.661-2.162,8.942-6.81c1.669-6.056,3.311-12.119,4.926-18.188c0.371-1.396,0.974-2.592,2.598-2.112 c1.56,0.46,1.537,1.763,1.154,3.174c-1.64,6.066-3.151,12.167-4.828,18.225c-1.706,6.161-6.33,9.572-12.737,9.582 C78.287,75.897,77.449,75.896,76.613,75.896z" fill="#199daf"/></g><g id="change1_3"><path d="M25.165,75.896c-1.546-0.123-3.353,0.078-5.184-0.283 c-5.063-0.998-8.282-4.021-9.689-8.835c-1.805-6.177-3.35-12.429-4.987-18.655c-0.348-1.325-0.452-2.767,1.176-3.22 c1.623-0.452,2.219,0.733,2.592,2.142c1.586,6.003,3.242,11.988,4.849,17.985c1.26,4.703,4.174,6.979,9.037,6.997 c2.131,0.007,4.262,0.007,6.393,0.001c1.307-0.005,2.387,0.485,2.314,1.896c-0.065,1.263-0.987,1.99-2.351,1.976 C28.02,75.884,26.726,75.896,25.165,75.896z" fill="#199daf"/></g><g id="change1_4"><path d="M89.811,31.776c-0.005,3.456-2.77,6.209-6.22,6.195 c-3.457-0.016-6.187-2.776-6.172-6.245c0.014-3.458,2.76-6.173,6.229-6.161C87.131,25.578,89.814,28.283,89.811,31.776z" fill="#199daf"/></g><g id="change1_5"><path d="M24.555,31.609c0.029,3.496-2.643,6.283-6.088,6.352 c-3.343,0.067-6.293-2.782-6.375-6.156c-0.084-3.458,2.799-6.273,6.415-6.264C21.889,25.551,24.527,28.196,24.555,31.609z" fill="#199daf"/></g><g id="change1_6"><path d="M56.95,28.314c0.013,3.268-2.467,5.732-5.743,5.708 c-3.2-0.023-5.798-2.637-5.75-5.784c0.046-3.018,2.651-5.593,5.708-5.642C54.373,22.545,56.938,25.078,56.95,28.314z" fill="#199daf"/></g></g></svg>