<?xml version="1.0" encoding="UTF-8" standalone="no"?><svg xmlns="http://www.w3.org/2000/svg" xmlns:xlink="http://www.w3.org/1999/xlink" fill="#ffffff" height="489.4" preserveAspectRatio="xMidYMid meet" version="1" viewBox="0.5 0.0 453.5 489.4" width="453.5" zoomAndPan="magnify"><g id="change1_1"><path d="M 446.84375 187.800781 L 404.777344 183.746094 C 400.316406 165.839844 393.109375 148.722656 383.417969 133.011719 L 410.234375 100.640625 C 412.867188 97.464844 412.648438 92.808594 409.734375 89.894531 L 364.234375 44.390625 C 361.320312 41.476562 356.664062 41.261719 353.488281 43.890625 L 321.09375 70.714844 C 305.355469 61.097656 288.261719 53.894531 270.382812 49.347656 L 266.324219 7.222656 C 265.929688 3.125 262.484375 0 258.367188 0 L 196.183594 0 C 192.066406 0 188.625 3.125 188.230469 7.222656 L 184.167969 49.347656 C 166.292969 53.890625 149.195312 61.097656 133.457031 70.714844 L 101.0625 43.882812 C 97.890625 41.253906 93.234375 41.46875 90.316406 44.382812 L 44.816406 89.890625 C 41.902344 92.808594 41.683594 97.464844 44.316406 100.640625 L 71.125 133.007812 C 61.429688 148.71875 54.21875 165.839844 49.75 183.75 L 7.707031 187.808594 C 3.617188 188.207031 0.507812 191.652344 0.527344 195.761719 L 0.527344 260.269531 C 0.503906 264.371094 3.613281 267.820312 7.703125 268.21875 L 49.796875 272.277344 C 54.335938 290.152344 61.53125 307.25 71.148438 322.992188 L 44.3125 355.378906 C 41.5625 358.699219 41.941406 363.605469 45.171875 366.464844 L 79.683594 396.988281 C 81.390625 398.5 83.660156 399.210938 85.925781 398.941406 C 88.191406 398.667969 90.230469 397.441406 91.535156 395.574219 L 141.136719 324.402344 C 143.347656 321.226562 142.964844 316.917969 140.226562 314.179688 C 92.640625 266.59375 92.636719 189.433594 140.226562 141.839844 C 187.816406 94.25 264.976562 94.25 312.570312 141.839844 C 360.160156 189.433594 360.160156 266.59375 312.570312 314.179688 C 309.792969 316.953125 309.445312 321.328125 311.738281 324.507812 L 363.082031 395.675781 C 364.402344 397.503906 366.433594 398.691406 368.679688 398.941406 C 370.921875 399.191406 373.164062 398.480469 374.855469 396.984375 L 409.378906 366.472656 C 412.609375 363.617188 412.992188 358.707031 410.238281 355.382812 L 383.410156 322.992188 C 393.03125 307.25 400.234375 290.15625 404.773438 272.277344 L 446.84375 268.21875 C 450.933594 267.820312 454.042969 264.371094 454.019531 260.269531 L 454.019531 195.753906 C 454.039062 191.648438 450.933594 188.199219 446.84375 187.800781 Z M 438.039062 253.007812 L 397.507812 256.917969 C 394.066406 257.246094 391.234375 259.765625 390.496094 263.144531 C 386.09375 283.125 378.082031 302.136719 366.863281 319.25 C 364.945312 322.183594 365.164062 326.027344 367.398438 328.722656 L 392.996094 359.621094 L 370.882812 379.171875 L 328.578125 320.53125 C 377.5625 266.496094 375.996094 182.664062 323.867188 130.539062 C 270.125 76.792969 182.671875 76.792969 128.925781 130.539062 C 76.773438 182.691406 75.234375 266.585938 124.292969 320.613281 L 83.550781 379.074219 L 61.550781 359.617188 L 87.144531 328.71875 C 89.382812 326.015625 89.59375 322.175781 87.675781 319.242188 C 76.453125 302.132812 68.441406 283.121094 64.023438 263.144531 C 63.296875 259.769531 60.472656 257.25 57.039062 256.917969 L 16.507812 253.007812 L 16.507812 203.019531 L 57.039062 199.105469 C 60.496094 198.769531 63.335938 196.238281 64.058594 192.839844 C 68.359375 172.855469 76.367188 153.855469 87.667969 136.820312 C 89.609375 133.882812 89.402344 130.019531 87.152344 127.308594 L 61.265625 96.050781 L 96.472656 60.835938 L 127.734375 86.71875 C 130.433594 88.960938 134.277344 89.171875 137.207031 87.25 C 154.316406 76.027344 173.324219 68.015625 193.304688 63.601562 C 196.6875 62.851562 199.199219 60.011719 199.53125 56.566406 L 203.441406 15.984375 L 251.109375 15.984375 L 255.023438 56.566406 C 255.355469 60.011719 257.867188 62.851562 261.246094 63.601562 C 281.230469 68.015625 300.238281 76.03125 317.347656 87.253906 C 320.277344 89.175781 324.121094 88.964844 326.824219 86.722656 L 358.078125 60.839844 L 393.289062 96.050781 L 367.402344 127.308594 C 365.160156 130.019531 364.953125 133.882812 366.894531 136.816406 C 378.199219 153.851562 386.210938 172.855469 390.511719 192.839844 C 391.222656 196.234375 394.054688 198.769531 397.503906 199.105469 L 438.039062 203.015625 Z M 438.039062 253.007812" fill="inherit"/><path d="M 255.140625 368.640625 L 255.140625 247.300781 C 275.28125 235.671875 288.507812 213.589844 288.507812 190.832031 C 288.507812 159.738281 270.726562 137.09375 240.941406 130.261719 C 238.460938 129.691406 235.863281 130.335938 233.933594 131.992188 C 232.011719 133.65625 230.988281 136.132812 231.183594 138.667969 L 233.824219 172.582031 C 227.152344 176.082031 219.191406 176.085938 212.515625 172.589844 L 215.355469 138.488281 C 215.574219 135.867188 214.492188 133.308594 212.453125 131.640625 C 210.417969 129.976562 207.695312 129.417969 205.167969 130.152344 C 177.929688 138.042969 160.960938 161.46875 160.960938 191.296875 C 160.960938 218.675781 175.328125 240.824219 199.300781 250.421875 L 199.300781 371.292969 C 182.320312 381.316406 165.960938 401.65625 166.21875 427.539062 C 166.21875 458.378906 183.800781 481.175781 213.195312 488.53125 C 215.691406 489.15625 218.335938 488.542969 220.300781 486.886719 C 222.265625 485.226562 223.316406 482.726562 223.121094 480.164062 L 220.492188 446.253906 C 227.160156 442.753906 235.125 442.75 241.800781 446.242188 L 238.960938 480.347656 C 238.742188 482.96875 239.824219 485.527344 241.863281 487.195312 C 243.898438 488.859375 246.625 489.417969 249.148438 488.683594 C 276.253906 480.828125 293.257812 457.519531 293.53125 427.765625 C 293.535156 400.378906 278.980469 378.238281 255.140625 368.640625 Z M 255.996094 468.378906 L 258.121094 442.824219 C 258.347656 440.105469 257.175781 437.460938 255.003906 435.804688 L 254.703125 435.574219 C 240.632812 424.894531 221.140625 425.023438 207.214844 435.886719 C 205.121094 437.539062 203.992188 440.125 204.199219 442.78125 L 206.238281 469.070312 C 190.851562 461.402344 182.25 446.753906 182.25 427.460938 C 182.042969 406.4375 196.847656 389.863281 210.734375 383.355469 C 213.53125 382.039062 215.304688 379.214844 215.285156 376.117188 L 215.285156 244.761719 C 215.304688 241.246094 213.015625 238.136719 209.652344 237.109375 C 189.476562 231.019531 176.96875 213.464844 176.96875 191.289062 C 176.96875 173.429688 184.914062 158.667969 198.308594 150.449219 L 196.191406 176.003906 C 195.964844 178.726562 197.144531 181.375 199.320312 183.027344 L 199.617188 183.253906 C 213.667969 193.929688 233.140625 193.816406 247.0625 182.980469 C 247.132812 182.925781 247.210938 182.863281 247.277344 182.808594 C 249.269531 181.148438 250.328125 178.628906 250.132812 176.046875 L 248.0625 149.476562 C 263.757812 156.832031 272.53125 171.414062 272.53125 190.835938 C 272.53125 208.941406 260.691406 227.210938 243.730469 235.265625 C 240.945312 236.585938 239.171875 239.398438 239.171875 242.484375 L 239.171875 374.296875 C 239.171875 377.820312 241.480469 380.925781 244.851562 381.945312 C 265.03125 388.039062 277.5625 405.59375 277.5625 427.695312 C 277.390625 445.476562 269.378906 460.1875 256 468.378906 Z M 255.996094 468.378906" fill="inherit"/></g></svg>