<?xml version="1.0" encoding="UTF-8" standalone="no"?><svg xmlns="http://www.w3.org/2000/svg" xmlns:xlink="http://www.w3.org/1999/xlink" fill="#000000" height="44" preserveAspectRatio="xMidYMid meet" version="1" viewBox="0.0 0.0 39.9 44.0" width="39.9" zoomAndPan="magnify"><defs><clipPath id="a"><path d="M 0 0 L 39.859375 0 L 39.859375 44 L 0 44 Z M 0 0"/></clipPath></defs><g><g id="change1_1"><path d="M 36.476562 14.015625 C 35.976562 14.015625 35.570312 13.609375 35.570312 13.109375 C 35.570312 12.609375 35.976562 12.207031 36.476562 12.207031 C 36.976562 12.207031 37.378906 12.609375 37.378906 13.109375 C 37.378906 13.609375 36.976562 14.015625 36.476562 14.015625 Z M 36.476562 11.132812 C 35.382812 11.132812 34.5 12.019531 34.5 13.109375 C 34.5 14.203125 35.382812 15.089844 36.476562 15.089844 C 37.566406 15.089844 38.453125 14.203125 38.453125 13.109375 C 38.453125 12.019531 37.566406 11.132812 36.476562 11.132812" fill="#ffffff"/></g><g id="change1_2"><path d="M 13.496094 2.703125 C 14.191406 2.703125 14.753906 3.265625 14.753906 3.960938 C 14.753906 4.652344 14.191406 5.214844 13.496094 5.21875 C 12.804688 5.21875 12.238281 4.65625 12.238281 3.960938 C 12.238281 3.265625 12.800781 2.703125 13.496094 2.703125 Z M 13.496094 6.289062 C 14.78125 6.289062 15.824219 5.246094 15.824219 3.960938 C 15.828125 2.675781 14.785156 1.632812 13.496094 1.628906 C 12.210938 1.628906 11.167969 2.671875 11.167969 3.960938 C 11.167969 5.246094 12.210938 6.289062 13.496094 6.289062" fill="#ffffff"/></g><g id="change1_3"><path d="M 20.167969 21.082031 C 19.476562 21.085938 18.910156 20.523438 18.910156 19.828125 C 18.910156 19.132812 19.472656 18.570312 20.167969 18.570312 C 20.863281 18.570312 21.425781 19.132812 21.425781 19.824219 C 21.425781 19.828125 21.425781 19.828125 21.425781 19.828125 C 21.425781 20.519531 20.863281 21.082031 20.167969 21.082031 Z M 22.5 19.828125 C 22.496094 18.539062 21.453125 17.5 20.167969 17.5 C 18.882812 17.5 17.839844 18.542969 17.839844 19.828125 C 17.84375 21.113281 18.882812 22.15625 20.167969 22.15625 C 21.457031 22.15625 22.496094 21.113281 22.5 19.828125" fill="#ffffff"/></g><g id="change1_4"><path d="M 4.792969 9.980469 C 5.488281 9.980469 6.050781 10.542969 6.050781 11.234375 C 6.054688 11.929688 5.492188 12.492188 4.796875 12.492188 C 4.101562 12.496094 3.539062 11.933594 3.539062 11.238281 C 3.539062 10.542969 4.101562 9.980469 4.792969 9.980469 Z M 4.792969 13.566406 C 6.082031 13.566406 7.125 12.523438 7.125 11.238281 C 7.125 9.953125 6.082031 8.90625 4.796875 8.90625 C 3.511719 8.90625 2.46875 9.949219 2.464844 11.234375 C 2.464844 11.234375 2.464844 11.238281 2.464844 11.238281 C 2.46875 12.523438 3.507812 13.566406 4.792969 13.566406" fill="#ffffff"/></g><g clip-path="url(#a)" id="change1_5"><path d="M 38.3125 14.589844 L 36.566406 16.921875 L 34.828125 14.597656 C 34.492188 14.152344 34.320312 13.605469 34.34375 13.046875 C 34.414062 11.988281 35.265625 10.894531 36.566406 10.894531 C 37.871094 10.894531 38.71875 11.988281 38.789062 13.050781 C 38.820312 13.605469 38.648438 14.152344 38.308594 14.589844 Z M 38.292969 22.308594 L 37.519531 22.386719 C 37.484375 22.390625 37.445312 22.394531 37.40625 22.398438 L 37.050781 22.414062 C 36.1875 22.449219 35.417969 22.976562 35.074219 23.773438 L 34.980469 23.976562 C 34.636719 24.761719 33.863281 25.269531 33.007812 25.269531 L 31.492188 25.269531 C 31.023438 25.269531 30.628906 24.914062 30.585938 24.445312 L 30.523438 23.839844 C 30.457031 23.15625 30.082031 22.535156 29.5 22.164062 C 29.191406 21.96875 29.007812 21.625 29.007812 21.257812 L 29.007812 20.652344 C 29.007812 20.25 29.179688 19.867188 29.480469 19.601562 L 32.066406 17.316406 C 32.75 16.710938 33.019531 15.761719 32.753906 14.886719 C 32.480469 13.984375 31.699219 13.324219 30.761719 13.207031 L 30.5 13.175781 C 30.136719 13.132812 29.804688 12.957031 29.5625 12.679688 C 29.300781 12.382812 29.257812 11.949219 29.453125 11.605469 L 30.867188 9.179688 C 31.890625 9.863281 32.84375 10.636719 33.722656 11.496094 C 33.460938 11.949219 33.308594 12.457031 33.273438 12.976562 C 33.234375 13.789062 33.476562 14.585938 33.964844 15.234375 L 36.136719 18.140625 C 36.316406 18.378906 36.652344 18.425781 36.886719 18.25 C 36.929688 18.21875 36.964844 18.179688 36.996094 18.140625 L 37.394531 17.605469 C 37.824219 19.148438 38.125 20.71875 38.292969 22.308594 Z M 38.410156 24.21875 C 38.410156 34.519531 30.035156 42.90625 19.742188 42.90625 C 9.449219 42.90625 1.074219 34.519531 1.074219 24.21875 C 1.082031 22.925781 1.226562 21.640625 1.503906 20.378906 L 3.542969 19.714844 C 4.425781 19.554688 5.316406 19.964844 5.765625 20.738281 C 5.976562 21.101562 6.238281 21.429688 6.539062 21.71875 L 7.976562 23.074219 C 8.363281 23.433594 8.828125 23.695312 9.335938 23.835938 L 9.503906 23.878906 C 10.132812 24.050781 10.625 24.542969 10.800781 25.167969 L 11.570312 27.953125 C 11.699219 28.417969 11.914062 28.855469 12.207031 29.238281 L 14.542969 32.300781 C 14.726562 32.546875 14.851562 32.835938 14.902344 33.136719 L 15.539062 36.964844 C 15.683594 37.835938 16.507812 38.429688 17.378906 38.285156 C 17.503906 38.265625 17.625 38.230469 17.742188 38.179688 C 18.464844 37.878906 18.964844 37.207031 19.042969 36.425781 C 19.101562 35.855469 19.328125 35.3125 19.699219 34.871094 L 20.375 34.054688 C 20.582031 33.804688 20.742188 33.515625 20.835938 33.199219 L 21.53125 30.945312 C 21.671875 30.484375 21.949219 30.085938 22.328125 29.796875 L 24.414062 28.191406 C 25.191406 27.59375 25.335938 26.480469 24.742188 25.707031 C 24.722656 25.683594 24.707031 25.660156 24.6875 25.640625 L 23.308594 24.019531 C 23.246094 23.945312 23.1875 23.863281 23.125 23.78125 L 22.753906 23.273438 L 23.414062 22.390625 C 24.007812 21.613281 24.304688 20.648438 24.246094 19.671875 C 24.109375 17.539062 22.367188 15.867188 20.28125 15.867188 C 18.398438 15.867188 16.796875 17.230469 16.402344 19.066406 C 15.511719 18.804688 14.445312 18.863281 13.707031 19.257812 L 12.570312 19.867188 C 12.035156 20.152344 11.367188 19.976562 11.039062 19.464844 L 9.9375 17.722656 C 9.65625 17.277344 9.664062 16.703125 9.960938 16.265625 C 10.308594 15.75 10.914062 15.472656 11.53125 15.554688 L 13.195312 15.765625 C 14.207031 15.894531 15.199219 15.40625 15.714844 14.527344 C 16.027344 13.992188 16.628906 13.699219 17.242188 13.777344 L 17.964844 13.871094 C 18.855469 13.980469 19.738281 13.613281 20.285156 12.90625 L 20.921875 12.078125 C 21.78125 10.96875 21.820312 9.425781 21.019531 8.273438 L 19.125 5.542969 C 19.34375 5.535156 19.550781 5.53125 19.742188 5.53125 C 22.253906 5.53125 24.964844 6.15625 27.578125 7.339844 C 28.398438 7.710938 29.195312 8.132812 29.964844 8.601562 L 28.523438 11.070312 C 28.101562 11.8125 28.195312 12.742188 28.757812 13.386719 C 29.171875 13.859375 29.746094 14.164062 30.371094 14.242188 L 30.628906 14.273438 C 31.148438 14.335938 31.578125 14.699219 31.730469 15.199219 C 31.871094 15.671875 31.726562 16.183594 31.355469 16.511719 L 28.769531 18.800781 C 28.238281 19.269531 27.933594 19.945312 27.933594 20.652344 L 27.933594 21.257812 C 27.933594 21.988281 28.304688 22.671875 28.917969 23.066406 C 29.222656 23.261719 29.421875 23.585938 29.457031 23.949219 L 29.519531 24.554688 C 29.617188 25.570312 30.472656 26.34375 31.492188 26.34375 L 33.007812 26.34375 C 34.289062 26.34375 35.449219 25.585938 35.964844 24.410156 L 36.054688 24.203125 C 36.238281 23.78125 36.644531 23.503906 37.101562 23.484375 L 37.457031 23.46875 C 37.511719 23.46875 37.570312 23.460938 37.628906 23.457031 L 38.382812 23.378906 C 38.398438 23.671875 38.410156 23.957031 38.410156 24.21875 Z M 17.386719 19.742188 C 17.476562 18.363281 18.585938 16.941406 20.28125 16.941406 C 21.980469 16.941406 23.085938 18.363281 23.175781 19.742188 C 23.214844 20.464844 22.996094 21.175781 22.554688 21.746094 L 20.28125 24.789062 L 18.011719 21.753906 C 17.574219 21.175781 17.355469 20.464844 17.386719 19.742188 Z M 3.132812 15.617188 L 4.480469 17.417969 C 4.65625 17.652344 4.992188 17.703125 5.230469 17.523438 C 5.269531 17.492188 5.304688 17.457031 5.335938 17.417969 L 8.039062 13.800781 C 9.019531 12.527344 9.152344 10.796875 8.382812 9.386719 C 9.292969 8.707031 10.246094 8.089844 11.234375 7.539062 L 13.179688 10.140625 C 13.355469 10.375 13.691406 10.425781 13.929688 10.246094 C 13.96875 10.214844 14.007812 10.179688 14.039062 10.140625 L 16.738281 6.523438 C 16.929688 6.273438 17.089844 6 17.21875 5.714844 C 17.441406 5.683594 17.664062 5.65625 17.882812 5.636719 L 20.136719 8.886719 C 20.671875 9.65625 20.648438 10.683594 20.074219 11.421875 L 19.4375 12.25 C 19.121094 12.660156 18.613281 12.871094 18.101562 12.804688 L 17.378906 12.714844 C 16.339844 12.582031 15.320312 13.082031 14.789062 13.984375 C 14.492188 14.492188 13.917969 14.777344 13.332031 14.699219 L 11.664062 14.488281 C 10.648438 14.355469 9.644531 14.8125 9.074219 15.660156 C 8.539062 16.453125 8.523438 17.488281 9.03125 18.296875 L 10.132812 20.035156 C 10.546875 20.683594 11.261719 21.074219 12.03125 21.074219 C 12.394531 21.074219 12.757812 20.984375 13.078125 20.8125 L 14.210938 20.203125 C 14.765625 19.90625 15.667969 19.902344 16.320312 20.167969 C 16.382812 20.972656 16.667969 21.742188 17.148438 22.390625 L 19.851562 26.007812 C 20.03125 26.242188 20.367188 26.292969 20.601562 26.113281 C 20.644531 26.085938 20.679688 26.046875 20.710938 26.007812 L 22.082031 24.171875 L 22.257812 24.410156 C 22.332031 24.515625 22.410156 24.613281 22.492188 24.710938 L 23.867188 26.335938 C 24.117188 26.628906 24.082031 27.070312 23.789062 27.320312 C 23.78125 27.328125 23.769531 27.335938 23.761719 27.34375 L 21.675781 28.945312 C 21.121094 29.371094 20.710938 29.960938 20.507812 30.628906 L 19.8125 32.886719 C 19.757812 33.0625 19.667969 33.226562 19.550781 33.371094 L 18.871094 34.1875 C 18.367188 34.792969 18.054688 35.53125 17.976562 36.316406 C 17.9375 36.707031 17.6875 37.042969 17.328125 37.191406 C 17.058594 37.304688 16.746094 37.175781 16.632812 36.90625 C 16.617188 36.867188 16.605469 36.828125 16.597656 36.789062 L 15.960938 32.960938 C 15.882812 32.484375 15.6875 32.035156 15.394531 31.652344 L 13.058594 28.589844 C 12.851562 28.3125 12.695312 28 12.601562 27.667969 L 11.832031 24.886719 C 11.554688 23.894531 10.78125 23.117188 9.785156 22.84375 L 9.617188 22.800781 C 9.28125 22.707031 8.96875 22.53125 8.714844 22.292969 L 7.277344 20.9375 C 7.046875 20.722656 6.851562 20.472656 6.691406 20.203125 C 6.007812 19.019531 4.644531 18.402344 3.304688 18.667969 C 3.285156 18.671875 3.265625 18.675781 3.242188 18.683594 L 1.804688 19.152344 C 2.140625 17.9375 2.585938 16.753906 3.132812 15.617188 Z M 2.015625 11.152344 C 2.105469 9.773438 3.210938 8.351562 4.90625 8.351562 C 6.605469 8.351562 7.710938 9.773438 7.800781 11.152344 C 7.839844 11.875 7.621094 12.585938 7.179688 13.15625 L 4.90625 16.199219 L 2.636719 13.164062 C 2.199219 12.585938 1.980469 11.875 2.015625 11.152344 Z M 10.714844 3.875 C 10.804688 2.496094 11.910156 1.074219 13.609375 1.074219 C 15.304688 1.074219 16.410156 2.496094 16.5 3.875 C 16.542969 4.597656 16.320312 5.308594 15.882812 5.882812 L 13.609375 8.921875 L 11.339844 5.886719 C 10.902344 5.308594 10.679688 4.597656 10.714844 3.875 Z M 39.859375 12.976562 C 39.742188 11.210938 38.296875 9.824219 36.566406 9.824219 C 35.765625 9.824219 34.996094 10.121094 34.402344 10.65625 C 32.644531 8.941406 30.449219 7.460938 28.019531 6.363281 C 25.265625 5.117188 22.402344 4.457031 19.742188 4.457031 C 19.007812 4.464844 18.273438 4.507812 17.542969 4.59375 C 17.578125 4.332031 17.589844 4.066406 17.570312 3.804688 C 17.433594 1.671875 15.691406 0 13.609375 0 C 11.523438 0 9.78125 1.671875 9.644531 3.804688 C 9.59375 4.78125 9.886719 5.742188 10.476562 6.523438 L 10.585938 6.671875 C 9.605469 7.226562 8.660156 7.84375 7.753906 8.515625 C 7.015625 7.730469 5.988281 7.28125 4.90625 7.277344 C 2.824219 7.277344 1.082031 8.949219 0.941406 11.082031 C 0.894531 12.054688 1.1875 13.019531 1.773438 13.800781 L 2.414062 14.65625 C 0.898438 17.570312 0 21.117188 0 24.21875 C -0.0234375 35.117188 8.796875 43.976562 19.699219 44 C 30.601562 44.023438 39.457031 35.203125 39.480469 24.300781 C 39.480469 24.273438 39.480469 24.246094 39.480469 24.21875 C 39.480469 22.015625 38.921875 18.71875 38.191406 16.542969 L 39.167969 15.234375 C 39.660156 14.589844 39.90625 13.789062 39.859375 12.976562" fill="#ffffff"/></g></g></svg>